%TF.GenerationSoftware,KiCad,Pcbnew,9.0.7*%
%TF.CreationDate,2026-06-11T13:29:59+02:00*%
%TF.ProjectId,usb_rfid_reader,7573625f-7266-4696-945f-726561646572,rev?*%
%TF.SameCoordinates,Original*%
%TF.FileFunction,Copper,L4,Bot*%
%TF.FilePolarity,Positive*%
%FSLAX46Y46*%
G04 Gerber Fmt 4.6, Leading zero omitted, Abs format (unit mm)*
G04 Created by KiCad (PCBNEW 9.0.7) date 2026-06-11 13:29:59*
%MOMM*%
%LPD*%
G01*
G04 APERTURE LIST*
%TA.AperFunction,ComponentPad*%
%ADD10C,5.600000*%
%TD*%
%TA.AperFunction,ComponentPad*%
%ADD11R,2.000000X2.000000*%
%TD*%
%TA.AperFunction,ComponentPad*%
%ADD12C,2.000000*%
%TD*%
%TA.AperFunction,HeatsinkPad*%
%ADD13O,1.000000X2.100000*%
%TD*%
%TA.AperFunction,HeatsinkPad*%
%ADD14O,1.000000X1.600000*%
%TD*%
%TA.AperFunction,ComponentPad*%
%ADD15R,1.725000X1.725000*%
%TD*%
%TA.AperFunction,ComponentPad*%
%ADD16C,1.725000*%
%TD*%
%TA.AperFunction,ViaPad*%
%ADD17C,0.600000*%
%TD*%
%TA.AperFunction,ViaPad*%
%ADD18C,0.800000*%
%TD*%
%TA.AperFunction,Conductor*%
%ADD19C,0.200000*%
%TD*%
%TA.AperFunction,Conductor*%
%ADD20C,0.300000*%
%TD*%
%TA.AperFunction,Conductor*%
%ADD21C,0.250000*%
%TD*%
G04 APERTURE END LIST*
D10*
%TO.P,H4,1,1*%
%TO.N,GND*%
X60000000Y-130000000D03*
%TD*%
D11*
%TO.P,BZ1,1,+*%
%TO.N,+3.3V*%
X136000000Y-64000000D03*
D12*
%TO.P,BZ1,2,-*%
%TO.N,Net-(BZ1--)*%
X126000000Y-64000000D03*
%TD*%
D13*
%TO.P,J1,S1,SHIELD*%
%TO.N,GND*%
X104320000Y-52130000D03*
D14*
X104320000Y-47950000D03*
D13*
X95680000Y-52130000D03*
D14*
X95680000Y-47950000D03*
%TD*%
D10*
%TO.P,H1,1,1*%
%TO.N,GND*%
X60000000Y-50000000D03*
%TD*%
%TO.P,H2,1,1*%
%TO.N,GND*%
X140000000Y-50000000D03*
%TD*%
D15*
%TO.P,J2,1,Pin_1*%
%TO.N,+3.3V*%
X91550000Y-76240000D03*
D16*
%TO.P,J2,2,Pin_2*%
%TO.N,/RC522_RST*%
X94090000Y-76240000D03*
%TO.P,J2,3,Pin_3*%
%TO.N,GND*%
X96630000Y-76240000D03*
%TO.P,J2,4,Pin_4*%
%TO.N,unconnected-(J2-Pin_4-Pad4)*%
X99170000Y-76240000D03*
%TO.P,J2,5,Pin_5*%
%TO.N,/RC522_SPI2_MISO*%
X101710000Y-76240000D03*
%TO.P,J2,6,Pin_6*%
%TO.N,/RC522_SPI2_MOSI*%
X104250000Y-76240000D03*
%TO.P,J2,7,Pin_7*%
%TO.N,/RC522_SPI2_CLK*%
X106790000Y-76240000D03*
%TO.P,J2,8,Pin_8*%
%TO.N,/RC522_SPI2_CE_N*%
X109330000Y-76240000D03*
%TD*%
D10*
%TO.P,H3,1,1*%
%TO.N,GND*%
X140000000Y-130000000D03*
%TD*%
D17*
%TO.N,GND*%
X60700000Y-59200000D03*
X60700000Y-57000000D03*
X110200000Y-60400000D03*
X83750000Y-58500000D03*
X88500000Y-63750000D03*
X91700000Y-64500000D03*
X95300000Y-60300000D03*
X95600000Y-65900000D03*
X96200000Y-67600000D03*
X103300000Y-68300000D03*
X104300000Y-66800000D03*
X99300000Y-64400000D03*
X101000000Y-63600000D03*
X98400000Y-63400000D03*
X89900000Y-69300000D03*
%TO.N,+3.3V*%
X92785000Y-70500000D03*
%TO.N,GND*%
X91400000Y-72400000D03*
%TO.N,/RC522_RST*%
X101200000Y-62700000D03*
%TO.N,/BOOT0*%
X100315744Y-62388203D03*
D18*
%TO.N,+3.3V*%
X87300000Y-59600000D03*
%TO.N,GND*%
X113100000Y-65300000D03*
X112800000Y-61800000D03*
%TO.N,+3.3V*%
X87562500Y-73912500D03*
D17*
X90825000Y-62605000D03*
X68250000Y-59250000D03*
X94000000Y-53750000D03*
D18*
X76000000Y-47775000D03*
D17*
X106874142Y-69166715D03*
X95600000Y-59500000D03*
X95520000Y-73099000D03*
X107500000Y-62750000D03*
X91975000Y-51000000D03*
X106800000Y-71300000D03*
X117400000Y-47000000D03*
X109400000Y-47050000D03*
X103225735Y-73775735D03*
D18*
%TO.N,GND*%
X70000000Y-80000000D03*
X144000000Y-60000000D03*
X125000000Y-95000000D03*
X144000000Y-120000000D03*
X140000000Y-80000000D03*
X135000000Y-105000000D03*
X60000000Y-115000000D03*
X140000000Y-46000000D03*
X140000000Y-120000000D03*
X60000000Y-134000000D03*
X65000000Y-80000000D03*
X130000000Y-134000000D03*
X144000000Y-115000000D03*
X60000000Y-70000000D03*
X70000000Y-65000000D03*
X65000000Y-125000000D03*
X130000000Y-110000000D03*
X65000000Y-110000000D03*
X144000000Y-110000000D03*
X75000000Y-65000000D03*
X60000000Y-110000000D03*
X144000000Y-90000000D03*
D17*
X85675000Y-50925000D03*
D18*
X65000000Y-120000000D03*
X125000000Y-110000000D03*
X70000000Y-105000000D03*
X140000000Y-105000000D03*
X140000000Y-55000000D03*
X56000000Y-90000000D03*
X60000000Y-75000000D03*
X125000000Y-90000000D03*
X70000000Y-120000000D03*
X65000000Y-46000000D03*
X56000000Y-75000000D03*
D17*
X106545153Y-72144814D03*
D18*
X125000000Y-134000000D03*
X130000000Y-90000000D03*
X130000000Y-95000000D03*
X60000000Y-65000000D03*
D17*
X90775000Y-64155000D03*
D18*
X130000000Y-80000000D03*
X130000000Y-100000000D03*
X130000000Y-125000000D03*
X140000000Y-85000000D03*
X56000000Y-130000000D03*
X125000000Y-105000000D03*
X135000000Y-46000000D03*
X125000000Y-125000000D03*
X125000000Y-85000000D03*
X140000000Y-125000000D03*
X60000000Y-125000000D03*
D17*
X101200000Y-73900000D03*
D18*
X75000000Y-46000000D03*
X56000000Y-100000000D03*
X60000000Y-120000000D03*
X75000000Y-134000000D03*
D17*
X96650000Y-59450000D03*
D18*
X144000000Y-85000000D03*
X56000000Y-85000000D03*
X75000000Y-125000000D03*
X80000000Y-46000000D03*
X135000000Y-100000000D03*
X56000000Y-105000000D03*
D17*
X107050000Y-70400000D03*
D18*
X70000000Y-70000000D03*
X70000000Y-46000000D03*
X56000000Y-80000000D03*
D17*
X107162500Y-63662500D03*
D18*
X135000000Y-95000000D03*
D17*
X104300000Y-54300000D03*
D18*
X75000000Y-105000000D03*
X85000000Y-46000000D03*
X125000000Y-100000000D03*
X125000000Y-115000000D03*
X65000000Y-65000000D03*
D17*
X106050000Y-61640000D03*
D18*
X140000000Y-134000000D03*
X75000000Y-130000000D03*
X60000000Y-85000000D03*
X144000000Y-75000000D03*
X144000000Y-50000000D03*
X135000000Y-134000000D03*
X60000000Y-105000000D03*
X56000000Y-55000000D03*
X125000000Y-120000000D03*
X140000000Y-110000000D03*
X130000000Y-85000000D03*
X70000000Y-134000000D03*
X56000000Y-110000000D03*
X65000000Y-115000000D03*
X65000000Y-70000000D03*
X70000000Y-75000000D03*
X70000000Y-85000000D03*
X56000000Y-115000000D03*
X115000000Y-46000000D03*
X65000000Y-85000000D03*
X90000000Y-46000000D03*
X65000000Y-105000000D03*
X140000000Y-95000000D03*
D17*
X92674221Y-69758224D03*
D18*
X70000000Y-125000000D03*
X144000000Y-100000000D03*
X75000000Y-115000000D03*
X65000000Y-75000000D03*
X135000000Y-115000000D03*
X65000000Y-130000000D03*
X56000000Y-70000000D03*
X120000000Y-46000000D03*
X56000000Y-95000000D03*
X144000000Y-70000000D03*
X56000000Y-50000000D03*
X56000000Y-65000000D03*
X125000000Y-130000000D03*
X110000000Y-46000000D03*
X140000000Y-90000000D03*
X130000000Y-46000000D03*
X65000000Y-134000000D03*
X70000000Y-130000000D03*
X130000000Y-120000000D03*
X135000000Y-130000000D03*
X135000000Y-120000000D03*
X144000000Y-130000000D03*
X130000000Y-130000000D03*
X140000000Y-100000000D03*
X144000000Y-105000000D03*
X144000000Y-125000000D03*
X144000000Y-65000000D03*
X130000000Y-115000000D03*
X70000000Y-110000000D03*
X56000000Y-120000000D03*
X140000000Y-115000000D03*
X60000000Y-80000000D03*
X56000000Y-125000000D03*
X125000000Y-80000000D03*
X70000000Y-115000000D03*
X135000000Y-90000000D03*
X75000000Y-120000000D03*
X135000000Y-125000000D03*
X60000000Y-46000000D03*
X140000000Y-60000000D03*
X144000000Y-80000000D03*
X75000000Y-70000000D03*
X130000000Y-105000000D03*
X135000000Y-110000000D03*
X144000000Y-95000000D03*
X144000000Y-55000000D03*
X135000000Y-85000000D03*
X75000000Y-110000000D03*
D17*
X99572526Y-58773796D03*
D18*
X140000000Y-65000000D03*
X125000000Y-46000000D03*
X135000000Y-80000000D03*
%TO.N,+5V*%
X90775000Y-58100000D03*
D17*
X93600000Y-60300000D03*
X102450000Y-53925000D03*
X99742701Y-56442574D03*
X97550000Y-53900000D03*
X93150000Y-58125000D03*
X78250000Y-57250000D03*
D18*
%TO.N,/NRST*%
X109703000Y-74425000D03*
D17*
X110000000Y-61250000D03*
%TO.N,/RC522_SPI2_CE_N*%
X104300000Y-59800000D03*
%TO.N,/RC522_SPI2_CLK*%
X103492137Y-59743551D03*
%TO.N,/RC522_SPI2_MISO*%
X102900000Y-63000000D03*
%TO.N,/VCP_USART2_RX*%
X104600000Y-70425000D03*
X69700000Y-50649997D03*
%TO.N,/VCP_USART2_TX*%
X69700000Y-51400000D03*
X104400000Y-71700000D03*
%TO.N,/BOOT0*%
X109250000Y-53750000D03*
%TO.N,/RC522_SPI2_MOSI*%
X101900000Y-62400000D03*
%TD*%
D19*
%TO.N,/RC522_SPI2_CLK*%
X103492137Y-59744965D02*
X103264640Y-59972462D01*
X108702000Y-67205612D02*
X108702000Y-73094389D01*
X103264640Y-61768252D02*
X108702000Y-67205612D01*
X106790000Y-75006388D02*
X106790000Y-76240000D01*
X103492137Y-59743551D02*
X103492137Y-59744965D01*
X103264640Y-59972462D02*
X103264640Y-61768252D01*
X108702000Y-73094389D02*
X106790000Y-75006388D01*
%TO.N,/BOOT0*%
X109250000Y-53750000D02*
X107750000Y-53750000D01*
X107750000Y-53750000D02*
X100315744Y-61184256D01*
X100315744Y-61184256D02*
X100315744Y-62388203D01*
%TO.N,/NRST*%
X109703000Y-74425000D02*
X109404000Y-74126000D01*
X110000000Y-66500000D02*
X110000000Y-61250000D01*
X109404000Y-74126000D02*
X109404000Y-67096000D01*
X109404000Y-67096000D02*
X110000000Y-66500000D01*
%TO.N,/RC522_SPI2_CE_N*%
X109330000Y-76240000D02*
X109330000Y-75430000D01*
X104300000Y-62307224D02*
X104300000Y-59800000D01*
X109330000Y-75430000D02*
X109053000Y-75153000D01*
X109053000Y-67060223D02*
X104300000Y-62307224D01*
X109053000Y-75153000D02*
X109053000Y-67060223D01*
%TO.N,/RC522_SPI2_MOSI*%
X101900000Y-62400000D02*
X103400000Y-62400000D01*
X103400000Y-62400000D02*
X108351000Y-67351000D01*
X108351000Y-67351000D02*
X108351000Y-72949000D01*
X108351000Y-72949000D02*
X105949000Y-75351000D01*
X105949000Y-75351000D02*
X105947586Y-75351000D01*
X105947586Y-75351000D02*
X105921086Y-75377500D01*
X105921086Y-75377500D02*
X105112500Y-75377500D01*
X105112500Y-75377500D02*
X104250000Y-76240000D01*
%TO.N,/RC522_SPI2_MISO*%
X102900000Y-63000000D02*
X103503612Y-63000000D01*
X103503612Y-63000000D02*
X108000000Y-67496388D01*
X108000000Y-67496388D02*
X108000000Y-72803612D01*
X108000000Y-72803612D02*
X105803612Y-75000000D01*
X105803612Y-75000000D02*
X103200000Y-75000000D01*
X103200000Y-75000000D02*
X101960000Y-76240000D01*
X101960000Y-76240000D02*
X101710000Y-76240000D01*
%TO.N,/RC522_RST*%
X101200000Y-62700000D02*
X102096388Y-63596388D01*
X102096388Y-63596388D02*
X103603612Y-63596388D01*
X103603612Y-63596388D02*
X107600000Y-67592776D01*
X107600000Y-72707224D02*
X105658224Y-74649000D01*
X107600000Y-67592776D02*
X107600000Y-72707224D01*
X105658224Y-74649000D02*
X95681000Y-74649000D01*
X95681000Y-74649000D02*
X94090000Y-76240000D01*
%TO.N,/VCP_USART2_TX*%
X69700000Y-51400000D02*
X69725000Y-51425000D01*
X104600000Y-71700000D02*
X104400000Y-71700000D01*
X69725000Y-51425000D02*
X70428612Y-51425000D01*
X70428612Y-51425000D02*
X80854612Y-61851000D01*
X80854612Y-61851000D02*
X97829612Y-61851000D01*
X97829612Y-61851000D02*
X104000000Y-68021388D01*
X104000000Y-68021388D02*
X104000000Y-71100000D01*
X104000000Y-71100000D02*
X104600000Y-71700000D01*
%TO.N,/VCP_USART2_RX*%
X104600000Y-70425000D02*
X104600000Y-68124999D01*
X104600000Y-68124999D02*
X97975000Y-61500000D01*
X97975000Y-61500000D02*
X81000000Y-61500000D01*
X81000000Y-61500000D02*
X70149997Y-50649997D01*
X70149997Y-50649997D02*
X69700000Y-50649997D01*
D20*
%TO.N,+3.3V*%
X95600000Y-59500000D02*
X96250000Y-58850000D01*
X96250000Y-58850000D02*
X96250000Y-56000000D01*
X96250000Y-56000000D02*
X94000000Y-53750000D01*
D21*
%TO.N,+5V*%
X78250000Y-57250000D02*
X89925000Y-57250000D01*
X89925000Y-57250000D02*
X90775000Y-58100000D01*
%TD*%
%TA.AperFunction,Conductor*%
%TO.N,GND*%
G36*
X99017069Y-74969185D02*
G01*
X99062824Y-75021989D01*
X99072768Y-75091147D01*
X99043743Y-75154703D01*
X98984965Y-75192477D01*
X98974222Y-75195117D01*
X98859939Y-75217849D01*
X98859933Y-75217851D01*
X98666478Y-75297982D01*
X98492381Y-75414310D01*
X98492373Y-75414316D01*
X98344316Y-75562373D01*
X98344310Y-75562381D01*
X98227983Y-75736477D01*
X98172252Y-75871023D01*
X98128410Y-75925426D01*
X98062116Y-75947490D01*
X97994417Y-75930210D01*
X97946807Y-75879073D01*
X97939760Y-75861887D01*
X97892676Y-75716979D01*
X97795313Y-75525893D01*
X97754219Y-75469333D01*
X97754219Y-75469332D01*
X97174200Y-76049352D01*
X97165815Y-76018058D01*
X97090115Y-75886942D01*
X96983058Y-75779885D01*
X96851942Y-75704185D01*
X96820645Y-75695799D01*
X97400665Y-75115780D01*
X97398104Y-75083229D01*
X97412468Y-75014852D01*
X97461519Y-74965095D01*
X97521722Y-74949500D01*
X98950030Y-74949500D01*
X99017069Y-74969185D01*
G37*
%TD.AperFunction*%
%TA.AperFunction,Conductor*%
G36*
X140002702Y-45200617D02*
G01*
X140412917Y-45218528D01*
X140423654Y-45219468D01*
X140828057Y-45272708D01*
X140838695Y-45274583D01*
X141236925Y-45362869D01*
X141247365Y-45365667D01*
X141636363Y-45488317D01*
X141646524Y-45492015D01*
X142023363Y-45648108D01*
X142033155Y-45652674D01*
X142394965Y-45841020D01*
X142404305Y-45846413D01*
X142689636Y-46028189D01*
X142748309Y-46065568D01*
X142757170Y-46071772D01*
X143080766Y-46320076D01*
X143089053Y-46327030D01*
X143389767Y-46602583D01*
X143397416Y-46610232D01*
X143672969Y-46910946D01*
X143679923Y-46919233D01*
X143928227Y-47242829D01*
X143934431Y-47251690D01*
X143961692Y-47294481D01*
X144125434Y-47551504D01*
X144153578Y-47595680D01*
X144158983Y-47605042D01*
X144215706Y-47714005D01*
X144347322Y-47966838D01*
X144351894Y-47976642D01*
X144507983Y-48353473D01*
X144511683Y-48363639D01*
X144634331Y-48752630D01*
X144637131Y-48763078D01*
X144725414Y-49161296D01*
X144727292Y-49171950D01*
X144780529Y-49576326D01*
X144781472Y-49587102D01*
X144799382Y-49997297D01*
X144799500Y-50002706D01*
X144799500Y-129997293D01*
X144799382Y-130002702D01*
X144781472Y-130412897D01*
X144780529Y-130423673D01*
X144727292Y-130828049D01*
X144725414Y-130838703D01*
X144637131Y-131236921D01*
X144634331Y-131247369D01*
X144511683Y-131636360D01*
X144507983Y-131646526D01*
X144351894Y-132023357D01*
X144347322Y-132033161D01*
X144158987Y-132394951D01*
X144153578Y-132404319D01*
X143934431Y-132748309D01*
X143928227Y-132757170D01*
X143679923Y-133080766D01*
X143672969Y-133089053D01*
X143397416Y-133389767D01*
X143389767Y-133397416D01*
X143089053Y-133672969D01*
X143080766Y-133679923D01*
X142757170Y-133928227D01*
X142748309Y-133934431D01*
X142404319Y-134153578D01*
X142394951Y-134158987D01*
X142033161Y-134347322D01*
X142023357Y-134351894D01*
X141646526Y-134507983D01*
X141636360Y-134511683D01*
X141247369Y-134634331D01*
X141236921Y-134637131D01*
X140838703Y-134725414D01*
X140828049Y-134727292D01*
X140423673Y-134780529D01*
X140412897Y-134781472D01*
X140002703Y-134799382D01*
X139997294Y-134799500D01*
X120124000Y-134799500D01*
X120056961Y-134779815D01*
X120011206Y-134727011D01*
X120000000Y-134675500D01*
X120000000Y-80000000D01*
X80000000Y-80000000D01*
X80000000Y-134675500D01*
X79980315Y-134742539D01*
X79927511Y-134788294D01*
X79876000Y-134799500D01*
X60002706Y-134799500D01*
X59997297Y-134799382D01*
X59587102Y-134781472D01*
X59576326Y-134780529D01*
X59171950Y-134727292D01*
X59161296Y-134725414D01*
X58763078Y-134637131D01*
X58752630Y-134634331D01*
X58363639Y-134511683D01*
X58353473Y-134507983D01*
X57976642Y-134351894D01*
X57966838Y-134347322D01*
X57847126Y-134285004D01*
X57605042Y-134158983D01*
X57595686Y-134153582D01*
X57423685Y-134044004D01*
X57251690Y-133934431D01*
X57242829Y-133928227D01*
X56919233Y-133679923D01*
X56910946Y-133672969D01*
X56610232Y-133397416D01*
X56602583Y-133389767D01*
X56327030Y-133089053D01*
X56320076Y-133080766D01*
X56071772Y-132757170D01*
X56065568Y-132748309D01*
X56012070Y-132664334D01*
X55846413Y-132404305D01*
X55841020Y-132394965D01*
X55652674Y-132033155D01*
X55648105Y-132023357D01*
X55492016Y-131646526D01*
X55488316Y-131636360D01*
X55365668Y-131247369D01*
X55362868Y-131236921D01*
X55274585Y-130838703D01*
X55272707Y-130828049D01*
X55219468Y-130423654D01*
X55218528Y-130412917D01*
X55200618Y-130002702D01*
X55200500Y-129997293D01*
X55200500Y-75357747D01*
X90487000Y-75357747D01*
X90487000Y-77122252D01*
X90498631Y-77180729D01*
X90498632Y-77180730D01*
X90542947Y-77247052D01*
X90609269Y-77291367D01*
X90609270Y-77291368D01*
X90667747Y-77302999D01*
X90667750Y-77303000D01*
X90667752Y-77303000D01*
X92432250Y-77303000D01*
X92432251Y-77302999D01*
X92447068Y-77300052D01*
X92490729Y-77291368D01*
X92490729Y-77291367D01*
X92490731Y-77291367D01*
X92557052Y-77247052D01*
X92601367Y-77180731D01*
X92601367Y-77180729D01*
X92601368Y-77180729D01*
X92612999Y-77122252D01*
X92613000Y-77122250D01*
X92613000Y-75357749D01*
X92612999Y-75357747D01*
X92601368Y-75299270D01*
X92601367Y-75299269D01*
X92557052Y-75232947D01*
X92490730Y-75188632D01*
X92490729Y-75188631D01*
X92432252Y-75177000D01*
X92432248Y-75177000D01*
X90667752Y-75177000D01*
X90667747Y-75177000D01*
X90609270Y-75188631D01*
X90609269Y-75188632D01*
X90542947Y-75232947D01*
X90498632Y-75299269D01*
X90498631Y-75299270D01*
X90487000Y-75357747D01*
X55200500Y-75357747D01*
X55200500Y-73833443D01*
X86962000Y-73833443D01*
X86962000Y-73991556D01*
X87002923Y-74144283D01*
X87002926Y-74144290D01*
X87081975Y-74281209D01*
X87081979Y-74281214D01*
X87081980Y-74281216D01*
X87193784Y-74393020D01*
X87193786Y-74393021D01*
X87193790Y-74393024D01*
X87330709Y-74472073D01*
X87330716Y-74472077D01*
X87483443Y-74513000D01*
X87483445Y-74513000D01*
X87641555Y-74513000D01*
X87641557Y-74513000D01*
X87794284Y-74472077D01*
X87931216Y-74393020D01*
X88043020Y-74281216D01*
X88122077Y-74144284D01*
X88163000Y-73991557D01*
X88163000Y-73833443D01*
X88122077Y-73680716D01*
X88121975Y-73680540D01*
X88043024Y-73543790D01*
X88043018Y-73543782D01*
X87931217Y-73431981D01*
X87931209Y-73431975D01*
X87794290Y-73352926D01*
X87794286Y-73352924D01*
X87794284Y-73352923D01*
X87641557Y-73312000D01*
X87483443Y-73312000D01*
X87330716Y-73352923D01*
X87330709Y-73352926D01*
X87193790Y-73431975D01*
X87193782Y-73431981D01*
X87081981Y-73543782D01*
X87081975Y-73543790D01*
X87002926Y-73680709D01*
X87002923Y-73680716D01*
X86962000Y-73833443D01*
X55200500Y-73833443D01*
X55200500Y-73033108D01*
X95019500Y-73033108D01*
X95019500Y-73164891D01*
X95053608Y-73292187D01*
X95086554Y-73349250D01*
X95119500Y-73406314D01*
X95212686Y-73499500D01*
X95326814Y-73565392D01*
X95454108Y-73599500D01*
X95454110Y-73599500D01*
X95585890Y-73599500D01*
X95585892Y-73599500D01*
X95713186Y-73565392D01*
X95827314Y-73499500D01*
X95920500Y-73406314D01*
X95986392Y-73292186D01*
X96020500Y-73164892D01*
X96020500Y-73033108D01*
X95986392Y-72905814D01*
X95920500Y-72791686D01*
X95827314Y-72698500D01*
X95770250Y-72665554D01*
X95713187Y-72632608D01*
X95649539Y-72615554D01*
X95585892Y-72598500D01*
X95454108Y-72598500D01*
X95326812Y-72632608D01*
X95212686Y-72698500D01*
X95212683Y-72698502D01*
X95119502Y-72791683D01*
X95119500Y-72791686D01*
X95053608Y-72905812D01*
X95019500Y-73033108D01*
X55200500Y-73033108D01*
X55200500Y-70434108D01*
X92284500Y-70434108D01*
X92284500Y-70565891D01*
X92318608Y-70693187D01*
X92341200Y-70732316D01*
X92384500Y-70807314D01*
X92477686Y-70900500D01*
X92591814Y-70966392D01*
X92719108Y-71000500D01*
X92719110Y-71000500D01*
X92850890Y-71000500D01*
X92850892Y-71000500D01*
X92978186Y-70966392D01*
X93092314Y-70900500D01*
X93185500Y-70807314D01*
X93251392Y-70693186D01*
X93285500Y-70565892D01*
X93285500Y-70434108D01*
X93251392Y-70306814D01*
X93185500Y-70192686D01*
X93092314Y-70099500D01*
X93013513Y-70054004D01*
X92978187Y-70033608D01*
X92914539Y-70016554D01*
X92850892Y-69999500D01*
X92719108Y-69999500D01*
X92591812Y-70033608D01*
X92477686Y-70099500D01*
X92477683Y-70099502D01*
X92384502Y-70192683D01*
X92384500Y-70192686D01*
X92318608Y-70306812D01*
X92284500Y-70434108D01*
X55200500Y-70434108D01*
X55200500Y-59184108D01*
X67749500Y-59184108D01*
X67749500Y-59315891D01*
X67783608Y-59443187D01*
X67804577Y-59479505D01*
X67849500Y-59557314D01*
X67942686Y-59650500D01*
X68056814Y-59716392D01*
X68184108Y-59750500D01*
X68184110Y-59750500D01*
X68315890Y-59750500D01*
X68315892Y-59750500D01*
X68443186Y-59716392D01*
X68557314Y-59650500D01*
X68650500Y-59557314D01*
X68716392Y-59443186D01*
X68750500Y-59315892D01*
X68750500Y-59184108D01*
X68716392Y-59056814D01*
X68650500Y-58942686D01*
X68557314Y-58849500D01*
X68500250Y-58816554D01*
X68443187Y-58783608D01*
X68379539Y-58766554D01*
X68315892Y-58749500D01*
X68184108Y-58749500D01*
X68056812Y-58783608D01*
X67942686Y-58849500D01*
X67942683Y-58849502D01*
X67849502Y-58942683D01*
X67849500Y-58942686D01*
X67783608Y-59056812D01*
X67749500Y-59184108D01*
X55200500Y-59184108D01*
X55200500Y-50584105D01*
X69199500Y-50584105D01*
X69199500Y-50715889D01*
X69222908Y-50803251D01*
X69233609Y-50843185D01*
X69233609Y-50843186D01*
X69302783Y-50962998D01*
X69319256Y-51030898D01*
X69302783Y-51086998D01*
X69233609Y-51206810D01*
X69233609Y-51206811D01*
X69233608Y-51206813D01*
X69233608Y-51206814D01*
X69211769Y-51288318D01*
X69199500Y-51334108D01*
X69199500Y-51465891D01*
X69233608Y-51593187D01*
X69266554Y-51650250D01*
X69299500Y-51707314D01*
X69392686Y-51800500D01*
X69506814Y-51866392D01*
X69634108Y-51900500D01*
X69634110Y-51900500D01*
X69765890Y-51900500D01*
X69765892Y-51900500D01*
X69893186Y-51866392D01*
X70007314Y-51800500D01*
X70045995Y-51761819D01*
X70072922Y-51747115D01*
X70098741Y-51730523D01*
X70104941Y-51729631D01*
X70107318Y-51728334D01*
X70133676Y-51725500D01*
X70252779Y-51725500D01*
X70319818Y-51745185D01*
X70340460Y-51761819D01*
X80670101Y-62091460D01*
X80738624Y-62131022D01*
X80815050Y-62151500D01*
X90294126Y-62151500D01*
X90361165Y-62171185D01*
X90406920Y-62223989D01*
X90416864Y-62293147D01*
X90401513Y-62337500D01*
X90358609Y-62411810D01*
X90358609Y-62411811D01*
X90358608Y-62411813D01*
X90358608Y-62411814D01*
X90324500Y-62539108D01*
X90324500Y-62670892D01*
X90334259Y-62707314D01*
X90358608Y-62798187D01*
X90376433Y-62829060D01*
X90424500Y-62912314D01*
X90517686Y-63005500D01*
X90631814Y-63071392D01*
X90759108Y-63105500D01*
X90759110Y-63105500D01*
X90890890Y-63105500D01*
X90890892Y-63105500D01*
X91018186Y-63071392D01*
X91132314Y-63005500D01*
X91225500Y-62912314D01*
X91291392Y-62798186D01*
X91325500Y-62670892D01*
X91325500Y-62539108D01*
X91291392Y-62411814D01*
X91291390Y-62411810D01*
X91248487Y-62337500D01*
X91232014Y-62269600D01*
X91254866Y-62203573D01*
X91309787Y-62160383D01*
X91355874Y-62151500D01*
X97653779Y-62151500D01*
X97720818Y-62171185D01*
X97741460Y-62187819D01*
X103663181Y-68109540D01*
X103696666Y-68170863D01*
X103699500Y-68197221D01*
X103699500Y-71139562D01*
X103719979Y-71215989D01*
X103719980Y-71215991D01*
X103730439Y-71234106D01*
X103730441Y-71234109D01*
X103759539Y-71284509D01*
X103759541Y-71284512D01*
X103893178Y-71418149D01*
X103926663Y-71479472D01*
X103925272Y-71537922D01*
X103899500Y-71634106D01*
X103899500Y-71765891D01*
X103933608Y-71893187D01*
X103966554Y-71950250D01*
X103999500Y-72007314D01*
X104092686Y-72100500D01*
X104206814Y-72166392D01*
X104334108Y-72200500D01*
X104334110Y-72200500D01*
X104465890Y-72200500D01*
X104465892Y-72200500D01*
X104593186Y-72166392D01*
X104707314Y-72100500D01*
X104800500Y-72007314D01*
X104866392Y-71893186D01*
X104900500Y-71765892D01*
X104900500Y-71634108D01*
X104866392Y-71506814D01*
X104800500Y-71392686D01*
X104707314Y-71299500D01*
X104594054Y-71234109D01*
X104593185Y-71233607D01*
X104593186Y-71233607D01*
X104578002Y-71229539D01*
X104564116Y-71221521D01*
X104550671Y-71218597D01*
X104522417Y-71197446D01*
X104462152Y-71137181D01*
X104428667Y-71075858D01*
X104433651Y-71006166D01*
X104475523Y-70950233D01*
X104540987Y-70925816D01*
X104549833Y-70925500D01*
X104665890Y-70925500D01*
X104665892Y-70925500D01*
X104793186Y-70891392D01*
X104907314Y-70825500D01*
X105000500Y-70732314D01*
X105066392Y-70618186D01*
X105100500Y-70490892D01*
X105100500Y-70359108D01*
X105066392Y-70231814D01*
X105000500Y-70117686D01*
X104936818Y-70054004D01*
X104903334Y-69992680D01*
X104900500Y-69966323D01*
X104900500Y-68085438D01*
X104880020Y-68009008D01*
X104880017Y-68009003D01*
X104840464Y-67940494D01*
X104840458Y-67940486D01*
X104784510Y-67884538D01*
X103224138Y-66324166D01*
X99917883Y-63017912D01*
X99884399Y-62956590D01*
X99889383Y-62886898D01*
X99931255Y-62830965D01*
X99996719Y-62806548D01*
X100064992Y-62821400D01*
X100067548Y-62822835D01*
X100122558Y-62854595D01*
X100249852Y-62888703D01*
X100249854Y-62888703D01*
X100381634Y-62888703D01*
X100381636Y-62888703D01*
X100508930Y-62854595D01*
X100554895Y-62828056D01*
X100622794Y-62811584D01*
X100688821Y-62834436D01*
X100731457Y-62887993D01*
X100733607Y-62893185D01*
X100750110Y-62921769D01*
X100799500Y-63007314D01*
X100892686Y-63100500D01*
X100991521Y-63157563D01*
X101004037Y-63164789D01*
X101006814Y-63166392D01*
X101134108Y-63200500D01*
X101134110Y-63200500D01*
X101224167Y-63200500D01*
X101291206Y-63220185D01*
X101311848Y-63236819D01*
X101855928Y-63780899D01*
X101911877Y-63836848D01*
X101911879Y-63836849D01*
X101911883Y-63836852D01*
X101980392Y-63876405D01*
X101980399Y-63876409D01*
X102056826Y-63896888D01*
X103427779Y-63896888D01*
X103494818Y-63916573D01*
X103515460Y-63933207D01*
X107263181Y-67680928D01*
X107296666Y-67742251D01*
X107299500Y-67768609D01*
X107299500Y-68619593D01*
X107279815Y-68686632D01*
X107227011Y-68732387D01*
X107157853Y-68742331D01*
X107113500Y-68726980D01*
X107067331Y-68700324D01*
X107067328Y-68700323D01*
X106940034Y-68666215D01*
X106808250Y-68666215D01*
X106680954Y-68700323D01*
X106566828Y-68766215D01*
X106566825Y-68766217D01*
X106473644Y-68859398D01*
X106473642Y-68859401D01*
X106407750Y-68973527D01*
X106373642Y-69100823D01*
X106373642Y-69232606D01*
X106407750Y-69359902D01*
X106440696Y-69416965D01*
X106473642Y-69474029D01*
X106566828Y-69567215D01*
X106680956Y-69633107D01*
X106808250Y-69667215D01*
X106808252Y-69667215D01*
X106940032Y-69667215D01*
X106940034Y-69667215D01*
X107067328Y-69633107D01*
X107113500Y-69606449D01*
X107181398Y-69589976D01*
X107247425Y-69612827D01*
X107290617Y-69667748D01*
X107299500Y-69713836D01*
X107299500Y-70795684D01*
X107279815Y-70862723D01*
X107227011Y-70908478D01*
X107157853Y-70918422D01*
X107113500Y-70903071D01*
X106993189Y-70833609D01*
X106993186Y-70833608D01*
X106865892Y-70799500D01*
X106734108Y-70799500D01*
X106606812Y-70833608D01*
X106492686Y-70899500D01*
X106492683Y-70899502D01*
X106399502Y-70992683D01*
X106399500Y-70992686D01*
X106333608Y-71106812D01*
X106325471Y-71137181D01*
X106299500Y-71234108D01*
X106299500Y-71365892D01*
X106313502Y-71418149D01*
X106333608Y-71493187D01*
X106341475Y-71506812D01*
X106399500Y-71607314D01*
X106492686Y-71700500D01*
X106591521Y-71757563D01*
X106605944Y-71765890D01*
X106606814Y-71766392D01*
X106734108Y-71800500D01*
X106734110Y-71800500D01*
X106865890Y-71800500D01*
X106865892Y-71800500D01*
X106993186Y-71766392D01*
X107107314Y-71700500D01*
X107107316Y-71700497D01*
X107113499Y-71696928D01*
X107181399Y-71680455D01*
X107247426Y-71703307D01*
X107290617Y-71758228D01*
X107299500Y-71804315D01*
X107299500Y-72531391D01*
X107279815Y-72598430D01*
X107263181Y-72619072D01*
X105570072Y-74312181D01*
X105508749Y-74345666D01*
X105482391Y-74348500D01*
X103660146Y-74348500D01*
X103593107Y-74328815D01*
X103547352Y-74276011D01*
X103537408Y-74206853D01*
X103566433Y-74143297D01*
X103572465Y-74136819D01*
X103626235Y-74083049D01*
X103692127Y-73968921D01*
X103726235Y-73841627D01*
X103726235Y-73709843D01*
X103692127Y-73582549D01*
X103626235Y-73468421D01*
X103533049Y-73375235D01*
X103475985Y-73342289D01*
X103418922Y-73309343D01*
X103354890Y-73292186D01*
X103291627Y-73275235D01*
X103159843Y-73275235D01*
X103032547Y-73309343D01*
X102918421Y-73375235D01*
X102918418Y-73375237D01*
X102825237Y-73468418D01*
X102825235Y-73468421D01*
X102759343Y-73582547D01*
X102725235Y-73709843D01*
X102725235Y-73841626D01*
X102759343Y-73968922D01*
X102772411Y-73991556D01*
X102825235Y-74083049D01*
X102825237Y-74083051D01*
X102879005Y-74136819D01*
X102912490Y-74198142D01*
X102907506Y-74267834D01*
X102865634Y-74323767D01*
X102800170Y-74348184D01*
X102791324Y-74348500D01*
X95641438Y-74348500D01*
X95565010Y-74368978D01*
X95496489Y-74408540D01*
X95496486Y-74408542D01*
X94661670Y-75243357D01*
X94600347Y-75276842D01*
X94530655Y-75271858D01*
X94526551Y-75270243D01*
X94400066Y-75217851D01*
X94400060Y-75217849D01*
X94194698Y-75177000D01*
X94194696Y-75177000D01*
X93985304Y-75177000D01*
X93985302Y-75177000D01*
X93779939Y-75217849D01*
X93779933Y-75217851D01*
X93586478Y-75297982D01*
X93412381Y-75414310D01*
X93412373Y-75414316D01*
X93264316Y-75562373D01*
X93264310Y-75562381D01*
X93147982Y-75736478D01*
X93067851Y-75929933D01*
X93067849Y-75929939D01*
X93027000Y-76135301D01*
X93027000Y-76135304D01*
X93027000Y-76344696D01*
X93027000Y-76344698D01*
X93026999Y-76344698D01*
X93067849Y-76550060D01*
X93067851Y-76550066D01*
X93147982Y-76743521D01*
X93264310Y-76917618D01*
X93264316Y-76917626D01*
X93412373Y-77065683D01*
X93412381Y-77065689D01*
X93586478Y-77182017D01*
X93586483Y-77182019D01*
X93779934Y-77262149D01*
X93779938Y-77262149D01*
X93779939Y-77262150D01*
X93985301Y-77303000D01*
X93985304Y-77303000D01*
X94194698Y-77303000D01*
X94332863Y-77275516D01*
X94400066Y-77262149D01*
X94593519Y-77182018D01*
X94593521Y-77182017D01*
X94682972Y-77122248D01*
X94767623Y-77065686D01*
X94915686Y-76917623D01*
X95032018Y-76743519D01*
X95087747Y-76608976D01*
X95131588Y-76554574D01*
X95197882Y-76532509D01*
X95265581Y-76549788D01*
X95313192Y-76600925D01*
X95320239Y-76618112D01*
X95367323Y-76763020D01*
X95464688Y-76954110D01*
X95505778Y-77010665D01*
X95505779Y-77010666D01*
X96085799Y-76430645D01*
X96094185Y-76461942D01*
X96169885Y-76593058D01*
X96276942Y-76700115D01*
X96408058Y-76775815D01*
X96439352Y-76784200D01*
X95859332Y-77364219D01*
X95915893Y-77405313D01*
X96106979Y-77502676D01*
X96310950Y-77568951D01*
X96522764Y-77602500D01*
X96737236Y-77602500D01*
X96949049Y-77568951D01*
X97153020Y-77502676D01*
X97344105Y-77405314D01*
X97400665Y-77364219D01*
X97400666Y-77364219D01*
X96820646Y-76784200D01*
X96851942Y-76775815D01*
X96983058Y-76700115D01*
X97090115Y-76593058D01*
X97165815Y-76461942D01*
X97174200Y-76430647D01*
X97754219Y-77010666D01*
X97754219Y-77010665D01*
X97795314Y-76954105D01*
X97892676Y-76763020D01*
X97939760Y-76618112D01*
X97979197Y-76560437D01*
X98043556Y-76533238D01*
X98112402Y-76545152D01*
X98163878Y-76592396D01*
X98172252Y-76608977D01*
X98227982Y-76743520D01*
X98227982Y-76743521D01*
X98344310Y-76917618D01*
X98344316Y-76917626D01*
X98492373Y-77065683D01*
X98492381Y-77065689D01*
X98666478Y-77182017D01*
X98666483Y-77182019D01*
X98859934Y-77262149D01*
X98859938Y-77262149D01*
X98859939Y-77262150D01*
X99065301Y-77303000D01*
X99065304Y-77303000D01*
X99274698Y-77303000D01*
X99412863Y-77275516D01*
X99480066Y-77262149D01*
X99673519Y-77182018D01*
X99673519Y-77182017D01*
X99673521Y-77182017D01*
X99762972Y-77122248D01*
X99847623Y-77065686D01*
X99995686Y-76917623D01*
X100112018Y-76743519D01*
X100192149Y-76550066D01*
X100233000Y-76344696D01*
X100233000Y-76135304D01*
X100233000Y-76135301D01*
X100192150Y-75929939D01*
X100192149Y-75929938D01*
X100192149Y-75929934D01*
X100112018Y-75736481D01*
X100112017Y-75736478D01*
X99995689Y-75562381D01*
X99995683Y-75562373D01*
X99847626Y-75414316D01*
X99847618Y-75414310D01*
X99673521Y-75297982D01*
X99480066Y-75217851D01*
X99480060Y-75217849D01*
X99365778Y-75195117D01*
X99303867Y-75162732D01*
X99269293Y-75102016D01*
X99273033Y-75032247D01*
X99313900Y-74975575D01*
X99378918Y-74949993D01*
X99389970Y-74949500D01*
X101490030Y-74949500D01*
X101557069Y-74969185D01*
X101602824Y-75021989D01*
X101612768Y-75091147D01*
X101583743Y-75154703D01*
X101524965Y-75192477D01*
X101514222Y-75195117D01*
X101399939Y-75217849D01*
X101399933Y-75217851D01*
X101206478Y-75297982D01*
X101032381Y-75414310D01*
X101032373Y-75414316D01*
X100884316Y-75562373D01*
X100884310Y-75562381D01*
X100767982Y-75736478D01*
X100687851Y-75929933D01*
X100687849Y-75929939D01*
X100647000Y-76135301D01*
X100647000Y-76135304D01*
X100647000Y-76344696D01*
X100647000Y-76344698D01*
X100646999Y-76344698D01*
X100687849Y-76550060D01*
X100687851Y-76550066D01*
X100767982Y-76743521D01*
X100884310Y-76917618D01*
X100884316Y-76917626D01*
X101032373Y-77065683D01*
X101032381Y-77065689D01*
X101206478Y-77182017D01*
X101206483Y-77182019D01*
X101399934Y-77262149D01*
X101399938Y-77262149D01*
X101399939Y-77262150D01*
X101605301Y-77303000D01*
X101605304Y-77303000D01*
X101814698Y-77303000D01*
X101952863Y-77275516D01*
X102020066Y-77262149D01*
X102213519Y-77182018D01*
X102213519Y-77182017D01*
X102213521Y-77182017D01*
X102302972Y-77122248D01*
X102387623Y-77065686D01*
X102535686Y-76917623D01*
X102652018Y-76743519D01*
X102732149Y-76550066D01*
X102773000Y-76344696D01*
X102773000Y-76135304D01*
X102773000Y-76135301D01*
X102738922Y-75963984D01*
X102745149Y-75894392D01*
X102772855Y-75852114D01*
X103288152Y-75336819D01*
X103315079Y-75322115D01*
X103340898Y-75305523D01*
X103347098Y-75304631D01*
X103349475Y-75303334D01*
X103375833Y-75300500D01*
X103386828Y-75300500D01*
X103453867Y-75320185D01*
X103499622Y-75372989D01*
X103509566Y-75442147D01*
X103480541Y-75505703D01*
X103474509Y-75512181D01*
X103424316Y-75562373D01*
X103424310Y-75562381D01*
X103307982Y-75736478D01*
X103227851Y-75929933D01*
X103227849Y-75929939D01*
X103187000Y-76135301D01*
X103187000Y-76135304D01*
X103187000Y-76344696D01*
X103187000Y-76344698D01*
X103186999Y-76344698D01*
X103227849Y-76550060D01*
X103227851Y-76550066D01*
X103307982Y-76743521D01*
X103424310Y-76917618D01*
X103424316Y-76917626D01*
X103572373Y-77065683D01*
X103572381Y-77065689D01*
X103746478Y-77182017D01*
X103746483Y-77182019D01*
X103939934Y-77262149D01*
X103939938Y-77262149D01*
X103939939Y-77262150D01*
X104145301Y-77303000D01*
X104145304Y-77303000D01*
X104354698Y-77303000D01*
X104492863Y-77275516D01*
X104560066Y-77262149D01*
X104753519Y-77182018D01*
X104753519Y-77182017D01*
X104753521Y-77182017D01*
X104842972Y-77122248D01*
X104927623Y-77065686D01*
X105075686Y-76917623D01*
X105192018Y-76743519D01*
X105272149Y-76550066D01*
X105313000Y-76344696D01*
X105313000Y-76135304D01*
X105313000Y-76135301D01*
X105272150Y-75929939D01*
X105272149Y-75929938D01*
X105272149Y-75929934D01*
X105257427Y-75894392D01*
X105238813Y-75849452D01*
X105231344Y-75779983D01*
X105262620Y-75717504D01*
X105322709Y-75681852D01*
X105353374Y-75678000D01*
X105686626Y-75678000D01*
X105753665Y-75697685D01*
X105799420Y-75750489D01*
X105809364Y-75819647D01*
X105801187Y-75849452D01*
X105767852Y-75929929D01*
X105767849Y-75929939D01*
X105727000Y-76135301D01*
X105727000Y-76135304D01*
X105727000Y-76344696D01*
X105727000Y-76344698D01*
X105726999Y-76344698D01*
X105767849Y-76550060D01*
X105767851Y-76550066D01*
X105847982Y-76743521D01*
X105964310Y-76917618D01*
X105964316Y-76917626D01*
X106112373Y-77065683D01*
X106112381Y-77065689D01*
X106286478Y-77182017D01*
X106286483Y-77182019D01*
X106479934Y-77262149D01*
X106479938Y-77262149D01*
X106479939Y-77262150D01*
X106685301Y-77303000D01*
X106685304Y-77303000D01*
X106894698Y-77303000D01*
X107032863Y-77275516D01*
X107100066Y-77262149D01*
X107293519Y-77182018D01*
X107293519Y-77182017D01*
X107293521Y-77182017D01*
X107382972Y-77122248D01*
X107467623Y-77065686D01*
X107615686Y-76917623D01*
X107732018Y-76743519D01*
X107812149Y-76550066D01*
X107853000Y-76344696D01*
X107853000Y-76135304D01*
X107853000Y-76135301D01*
X107812150Y-75929939D01*
X107812149Y-75929938D01*
X107812149Y-75929934D01*
X107732018Y-75736481D01*
X107732017Y-75736478D01*
X107615689Y-75562381D01*
X107615683Y-75562373D01*
X107467626Y-75414316D01*
X107467618Y-75414310D01*
X107293520Y-75297982D01*
X107203241Y-75260587D01*
X107148838Y-75216746D01*
X107126773Y-75150451D01*
X107144052Y-75082752D01*
X107163009Y-75058349D01*
X108540819Y-73680540D01*
X108602142Y-73647055D01*
X108671834Y-73652039D01*
X108727767Y-73693911D01*
X108752184Y-73759375D01*
X108752500Y-73768221D01*
X108752500Y-75192562D01*
X108763322Y-75232948D01*
X108764694Y-75238069D01*
X108763031Y-75307919D01*
X108723869Y-75365782D01*
X108713810Y-75373265D01*
X108652377Y-75414313D01*
X108652373Y-75414316D01*
X108504316Y-75562373D01*
X108504310Y-75562381D01*
X108387982Y-75736478D01*
X108307851Y-75929933D01*
X108307849Y-75929939D01*
X108267000Y-76135301D01*
X108267000Y-76135304D01*
X108267000Y-76344696D01*
X108267000Y-76344698D01*
X108266999Y-76344698D01*
X108307849Y-76550060D01*
X108307851Y-76550066D01*
X108387982Y-76743521D01*
X108504310Y-76917618D01*
X108504316Y-76917626D01*
X108652373Y-77065683D01*
X108652381Y-77065689D01*
X108826478Y-77182017D01*
X108826483Y-77182019D01*
X109019934Y-77262149D01*
X109019938Y-77262149D01*
X109019939Y-77262150D01*
X109225301Y-77303000D01*
X109225304Y-77303000D01*
X109434698Y-77303000D01*
X109572863Y-77275516D01*
X109640066Y-77262149D01*
X109833519Y-77182018D01*
X109833519Y-77182017D01*
X109833521Y-77182017D01*
X109922972Y-77122248D01*
X110007623Y-77065686D01*
X110155686Y-76917623D01*
X110272018Y-76743519D01*
X110352149Y-76550066D01*
X110393000Y-76344696D01*
X110393000Y-76135304D01*
X110393000Y-76135301D01*
X110352150Y-75929939D01*
X110352149Y-75929938D01*
X110352149Y-75929934D01*
X110272018Y-75736481D01*
X110272017Y-75736478D01*
X110155689Y-75562381D01*
X110155683Y-75562373D01*
X110007626Y-75414316D01*
X110007618Y-75414310D01*
X109833521Y-75297982D01*
X109833517Y-75297980D01*
X109749481Y-75263172D01*
X109695077Y-75219331D01*
X109673012Y-75153037D01*
X109690291Y-75085338D01*
X109741428Y-75037727D01*
X109774225Y-75027672D01*
X109774207Y-75027603D01*
X109776146Y-75027083D01*
X109780750Y-75025672D01*
X109782054Y-75025500D01*
X109782057Y-75025500D01*
X109934784Y-74984577D01*
X110071716Y-74905520D01*
X110183520Y-74793716D01*
X110262577Y-74656784D01*
X110303500Y-74504057D01*
X110303500Y-74345943D01*
X110262577Y-74193216D01*
X110234330Y-74144290D01*
X110183524Y-74056290D01*
X110183518Y-74056282D01*
X110071717Y-73944481D01*
X110071709Y-73944475D01*
X109934790Y-73865426D01*
X109934785Y-73865423D01*
X109815440Y-73833445D01*
X109796405Y-73828344D01*
X109736746Y-73791980D01*
X109706217Y-73729133D01*
X109704500Y-73708570D01*
X109704500Y-67271833D01*
X109724185Y-67204794D01*
X109740819Y-67184152D01*
X110240460Y-66684511D01*
X110280021Y-66615989D01*
X110300500Y-66539562D01*
X110300500Y-63905513D01*
X124799500Y-63905513D01*
X124799500Y-64094486D01*
X124829059Y-64281118D01*
X124887454Y-64460836D01*
X124973240Y-64629199D01*
X125084310Y-64782073D01*
X125217927Y-64915690D01*
X125370801Y-65026760D01*
X125450347Y-65067290D01*
X125539163Y-65112545D01*
X125539165Y-65112545D01*
X125539168Y-65112547D01*
X125635497Y-65143846D01*
X125718881Y-65170940D01*
X125905514Y-65200500D01*
X125905519Y-65200500D01*
X126094486Y-65200500D01*
X126281118Y-65170940D01*
X126460832Y-65112547D01*
X126629199Y-65026760D01*
X126782073Y-64915690D01*
X126915690Y-64782073D01*
X127026760Y-64629199D01*
X127112547Y-64460832D01*
X127170940Y-64281118D01*
X127200500Y-64094486D01*
X127200500Y-63905513D01*
X127170940Y-63718881D01*
X127112545Y-63539163D01*
X127026759Y-63370800D01*
X126915690Y-63217927D01*
X126782073Y-63084310D01*
X126778951Y-63082042D01*
X126768539Y-63074477D01*
X126756721Y-63065891D01*
X126638843Y-62980247D01*
X134799500Y-62980247D01*
X134799500Y-65019752D01*
X134811131Y-65078229D01*
X134811132Y-65078230D01*
X134855447Y-65144552D01*
X134921769Y-65188867D01*
X134921770Y-65188868D01*
X134980247Y-65200499D01*
X134980250Y-65200500D01*
X134980252Y-65200500D01*
X137019750Y-65200500D01*
X137019751Y-65200499D01*
X137034568Y-65197552D01*
X137078229Y-65188868D01*
X137078229Y-65188867D01*
X137078231Y-65188867D01*
X137144552Y-65144552D01*
X137188867Y-65078231D01*
X137188867Y-65078229D01*
X137188868Y-65078229D01*
X137200499Y-65019752D01*
X137200500Y-65019750D01*
X137200500Y-62980249D01*
X137200499Y-62980247D01*
X137188868Y-62921770D01*
X137188867Y-62921769D01*
X137144552Y-62855447D01*
X137078230Y-62811132D01*
X137078229Y-62811131D01*
X137019752Y-62799500D01*
X137019748Y-62799500D01*
X134980252Y-62799500D01*
X134980247Y-62799500D01*
X134921770Y-62811131D01*
X134921769Y-62811132D01*
X134855447Y-62855447D01*
X134811132Y-62921769D01*
X134811131Y-62921770D01*
X134799500Y-62980247D01*
X126638843Y-62980247D01*
X126629199Y-62973240D01*
X126460836Y-62887454D01*
X126281118Y-62829059D01*
X126094486Y-62799500D01*
X126094481Y-62799500D01*
X125905519Y-62799500D01*
X125905514Y-62799500D01*
X125718881Y-62829059D01*
X125539163Y-62887454D01*
X125370800Y-62973240D01*
X125309314Y-63017913D01*
X125217927Y-63084310D01*
X125217925Y-63084312D01*
X125217924Y-63084312D01*
X125084312Y-63217924D01*
X125084312Y-63217925D01*
X125084310Y-63217927D01*
X125075286Y-63230348D01*
X124973240Y-63370800D01*
X124887454Y-63539163D01*
X124829059Y-63718881D01*
X124799500Y-63905513D01*
X110300500Y-63905513D01*
X110300500Y-61708676D01*
X110320185Y-61641637D01*
X110336819Y-61620995D01*
X110365395Y-61592419D01*
X110400500Y-61557314D01*
X110466392Y-61443186D01*
X110500500Y-61315892D01*
X110500500Y-61184108D01*
X110466392Y-61056814D01*
X110400500Y-60942686D01*
X110307314Y-60849500D01*
X110222442Y-60800499D01*
X110193187Y-60783608D01*
X110128931Y-60766391D01*
X110065892Y-60749500D01*
X109934108Y-60749500D01*
X109806812Y-60783608D01*
X109692686Y-60849500D01*
X109692683Y-60849502D01*
X109599502Y-60942683D01*
X109599500Y-60942686D01*
X109533608Y-61056812D01*
X109505107Y-61163181D01*
X109499500Y-61184108D01*
X109499500Y-61315892D01*
X109516554Y-61379539D01*
X109533608Y-61443187D01*
X109566554Y-61500250D01*
X109599500Y-61557314D01*
X109599502Y-61557316D01*
X109663181Y-61620995D01*
X109696666Y-61682318D01*
X109699500Y-61708676D01*
X109699500Y-66324166D01*
X109679815Y-66391205D01*
X109663181Y-66411847D01*
X109334069Y-66740959D01*
X109272746Y-66774444D01*
X109203054Y-66769460D01*
X109158707Y-66740959D01*
X105101856Y-62684108D01*
X106999500Y-62684108D01*
X106999500Y-62815892D01*
X107003539Y-62830965D01*
X107033608Y-62943187D01*
X107055005Y-62980247D01*
X107099500Y-63057314D01*
X107192686Y-63150500D01*
X107306814Y-63216392D01*
X107434108Y-63250500D01*
X107434110Y-63250500D01*
X107565890Y-63250500D01*
X107565892Y-63250500D01*
X107693186Y-63216392D01*
X107807314Y-63150500D01*
X107900500Y-63057314D01*
X107966392Y-62943186D01*
X108000500Y-62815892D01*
X108000500Y-62684108D01*
X107966392Y-62556814D01*
X107900500Y-62442686D01*
X107807314Y-62349500D01*
X107717570Y-62297686D01*
X107693187Y-62283608D01*
X107629539Y-62266554D01*
X107565892Y-62249500D01*
X107434108Y-62249500D01*
X107306812Y-62283608D01*
X107192686Y-62349500D01*
X107192683Y-62349502D01*
X107099502Y-62442683D01*
X107099500Y-62442686D01*
X107033608Y-62556812D01*
X107027022Y-62581392D01*
X106999500Y-62684108D01*
X105101856Y-62684108D01*
X104636819Y-62219071D01*
X104603334Y-62157748D01*
X104600500Y-62131390D01*
X104600500Y-60258676D01*
X104620185Y-60191637D01*
X104636819Y-60170995D01*
X104663763Y-60144051D01*
X104700500Y-60107314D01*
X104766392Y-59993186D01*
X104800500Y-59865892D01*
X104800500Y-59734108D01*
X104766392Y-59606814D01*
X104700500Y-59492686D01*
X104607314Y-59399500D01*
X104550250Y-59366554D01*
X104493187Y-59333608D01*
X104393188Y-59306814D01*
X104365892Y-59299500D01*
X104234108Y-59299500D01*
X104106814Y-59333608D01*
X104106813Y-59333608D01*
X104106811Y-59333609D01*
X104106810Y-59333609D01*
X103988368Y-59401993D01*
X103920468Y-59418466D01*
X103854441Y-59395614D01*
X103838687Y-59382287D01*
X103799453Y-59343053D01*
X103799451Y-59343051D01*
X103724019Y-59299500D01*
X103685324Y-59277159D01*
X103621676Y-59260105D01*
X103558029Y-59243051D01*
X103426245Y-59243051D01*
X103298949Y-59277159D01*
X103184823Y-59343051D01*
X103184820Y-59343053D01*
X103091639Y-59436234D01*
X103091637Y-59436237D01*
X103025745Y-59550363D01*
X102991637Y-59677659D01*
X102991637Y-59814865D01*
X102985015Y-59848165D01*
X102986723Y-59848623D01*
X102984619Y-59856471D01*
X102984619Y-59856473D01*
X102964140Y-59932900D01*
X102964140Y-61807814D01*
X102981471Y-61872492D01*
X102984619Y-61884241D01*
X102993430Y-61899502D01*
X102993430Y-61899503D01*
X103001512Y-61913502D01*
X103017983Y-61981402D01*
X102995130Y-62047429D01*
X102940208Y-62090618D01*
X102894124Y-62099500D01*
X102358676Y-62099500D01*
X102291637Y-62079815D01*
X102270995Y-62063181D01*
X102207316Y-61999502D01*
X102207314Y-61999500D01*
X102150250Y-61966554D01*
X102093187Y-61933608D01*
X102029539Y-61916554D01*
X101965892Y-61899500D01*
X101834108Y-61899500D01*
X101706812Y-61933608D01*
X101592686Y-61999500D01*
X101592683Y-61999502D01*
X101499502Y-62092683D01*
X101499496Y-62092692D01*
X101462368Y-62156998D01*
X101411801Y-62205213D01*
X101343194Y-62218435D01*
X101322890Y-62214772D01*
X101265893Y-62199500D01*
X101265892Y-62199500D01*
X101134108Y-62199500D01*
X101006811Y-62233608D01*
X100960847Y-62260146D01*
X100892946Y-62276617D01*
X100826920Y-62253765D01*
X100784285Y-62200205D01*
X100782137Y-62195019D01*
X100775055Y-62182752D01*
X100716244Y-62080889D01*
X100652562Y-62017207D01*
X100619078Y-61955883D01*
X100616244Y-61929526D01*
X100616244Y-61360089D01*
X100635929Y-61293050D01*
X100652563Y-61272408D01*
X107838152Y-54086819D01*
X107899475Y-54053334D01*
X107925833Y-54050500D01*
X108791324Y-54050500D01*
X108858363Y-54070185D01*
X108879005Y-54086819D01*
X108942686Y-54150500D01*
X109056814Y-54216392D01*
X109184108Y-54250500D01*
X109184110Y-54250500D01*
X109315890Y-54250500D01*
X109315892Y-54250500D01*
X109443186Y-54216392D01*
X109557314Y-54150500D01*
X109650500Y-54057314D01*
X109716392Y-53943186D01*
X109750500Y-53815892D01*
X109750500Y-53684108D01*
X109716392Y-53556814D01*
X109650500Y-53442686D01*
X109557314Y-53349500D01*
X109500250Y-53316554D01*
X109443187Y-53283608D01*
X109379539Y-53266554D01*
X109315892Y-53249500D01*
X109184108Y-53249500D01*
X109056812Y-53283608D01*
X108942686Y-53349500D01*
X108942683Y-53349502D01*
X108879005Y-53413181D01*
X108817682Y-53446666D01*
X108791324Y-53449500D01*
X107710438Y-53449500D01*
X107634010Y-53469978D01*
X107565489Y-53509540D01*
X107565486Y-53509542D01*
X100075285Y-60999743D01*
X100075279Y-60999751D01*
X100035726Y-61068260D01*
X100035723Y-61068265D01*
X100015244Y-61144695D01*
X100015244Y-61929526D01*
X99995559Y-61996565D01*
X99978926Y-62017207D01*
X99915244Y-62080889D01*
X99849352Y-62195015D01*
X99825614Y-62283608D01*
X99815244Y-62322311D01*
X99815244Y-62454095D01*
X99842767Y-62556814D01*
X99849353Y-62581391D01*
X99849353Y-62581392D01*
X99881101Y-62636381D01*
X99897574Y-62704281D01*
X99874721Y-62770308D01*
X99819800Y-62813499D01*
X99750247Y-62820140D01*
X99688144Y-62788124D01*
X99686033Y-62786062D01*
X98159512Y-61259541D01*
X98159504Y-61259535D01*
X98090995Y-61219982D01*
X98090990Y-61219979D01*
X98065513Y-61213152D01*
X98014562Y-61199500D01*
X98014560Y-61199500D01*
X81175833Y-61199500D01*
X81108794Y-61179815D01*
X81088152Y-61163181D01*
X80159079Y-60234108D01*
X93099500Y-60234108D01*
X93099500Y-60365891D01*
X93133608Y-60493187D01*
X93166554Y-60550250D01*
X93199500Y-60607314D01*
X93292686Y-60700500D01*
X93406814Y-60766392D01*
X93534108Y-60800500D01*
X93534110Y-60800500D01*
X93665890Y-60800500D01*
X93665892Y-60800500D01*
X93793186Y-60766392D01*
X93907314Y-60700500D01*
X94000500Y-60607314D01*
X94066392Y-60493186D01*
X94100500Y-60365892D01*
X94100500Y-60234108D01*
X94066392Y-60106814D01*
X94000500Y-59992686D01*
X93907314Y-59899500D01*
X93849100Y-59865890D01*
X93793187Y-59833608D01*
X93729539Y-59816554D01*
X93665892Y-59799500D01*
X93534108Y-59799500D01*
X93406812Y-59833608D01*
X93292686Y-59899500D01*
X93292683Y-59899502D01*
X93199502Y-59992683D01*
X93199500Y-59992686D01*
X93133608Y-60106812D01*
X93099500Y-60234108D01*
X80159079Y-60234108D01*
X79445914Y-59520943D01*
X86699500Y-59520943D01*
X86699500Y-59679057D01*
X86733867Y-59807314D01*
X86740423Y-59831783D01*
X86740426Y-59831790D01*
X86819475Y-59968709D01*
X86819479Y-59968714D01*
X86819480Y-59968716D01*
X86931284Y-60080520D01*
X86931286Y-60080521D01*
X86931290Y-60080524D01*
X87055811Y-60152415D01*
X87068216Y-60159577D01*
X87220943Y-60200500D01*
X87220945Y-60200500D01*
X87379055Y-60200500D01*
X87379057Y-60200500D01*
X87531784Y-60159577D01*
X87668716Y-60080520D01*
X87780520Y-59968716D01*
X87859577Y-59831784D01*
X87900500Y-59679057D01*
X87900500Y-59520943D01*
X87859577Y-59368216D01*
X87829368Y-59315892D01*
X87780524Y-59231290D01*
X87780518Y-59231282D01*
X87668717Y-59119481D01*
X87668709Y-59119475D01*
X87531790Y-59040426D01*
X87531786Y-59040424D01*
X87531784Y-59040423D01*
X87379057Y-58999500D01*
X87220943Y-58999500D01*
X87068216Y-59040423D01*
X87068209Y-59040426D01*
X86931290Y-59119475D01*
X86931282Y-59119481D01*
X86819481Y-59231282D01*
X86819475Y-59231290D01*
X86740426Y-59368209D01*
X86740423Y-59368216D01*
X86699500Y-59520943D01*
X79445914Y-59520943D01*
X77109079Y-57184108D01*
X77749500Y-57184108D01*
X77749500Y-57315891D01*
X77783608Y-57443187D01*
X77814293Y-57496334D01*
X77849500Y-57557314D01*
X77942686Y-57650500D01*
X78056814Y-57716392D01*
X78184108Y-57750500D01*
X78184110Y-57750500D01*
X78315890Y-57750500D01*
X78315892Y-57750500D01*
X78443186Y-57716392D01*
X78557314Y-57650500D01*
X78595995Y-57611819D01*
X78657318Y-57578334D01*
X78683676Y-57575500D01*
X89738811Y-57575500D01*
X89805850Y-57595185D01*
X89826492Y-57611819D01*
X90138370Y-57923696D01*
X90171855Y-57985019D01*
X90173018Y-58012816D01*
X90174500Y-58012816D01*
X90174500Y-58020943D01*
X90174500Y-58179057D01*
X90211780Y-58318186D01*
X90215423Y-58331783D01*
X90215426Y-58331790D01*
X90294475Y-58468709D01*
X90294479Y-58468714D01*
X90294480Y-58468716D01*
X90406284Y-58580520D01*
X90406286Y-58580521D01*
X90406290Y-58580524D01*
X90484192Y-58625500D01*
X90543216Y-58659577D01*
X90695943Y-58700500D01*
X90695945Y-58700500D01*
X90854055Y-58700500D01*
X90854057Y-58700500D01*
X91006784Y-58659577D01*
X91143716Y-58580520D01*
X91255520Y-58468716D01*
X91334577Y-58331784D01*
X91375500Y-58179057D01*
X91375500Y-58059108D01*
X92649500Y-58059108D01*
X92649500Y-58190891D01*
X92683608Y-58318187D01*
X92691462Y-58331790D01*
X92749500Y-58432314D01*
X92842686Y-58525500D01*
X92956814Y-58591392D01*
X93084108Y-58625500D01*
X93084110Y-58625500D01*
X93215890Y-58625500D01*
X93215892Y-58625500D01*
X93343186Y-58591392D01*
X93457314Y-58525500D01*
X93550500Y-58432314D01*
X93616392Y-58318186D01*
X93650500Y-58190892D01*
X93650500Y-58059108D01*
X93616392Y-57931814D01*
X93550500Y-57817686D01*
X93457314Y-57724500D01*
X93400250Y-57691554D01*
X93343187Y-57658608D01*
X93279539Y-57641554D01*
X93215892Y-57624500D01*
X93084108Y-57624500D01*
X92956812Y-57658608D01*
X92842686Y-57724500D01*
X92842683Y-57724502D01*
X92749502Y-57817683D01*
X92749500Y-57817686D01*
X92683608Y-57931812D01*
X92649500Y-58059108D01*
X91375500Y-58059108D01*
X91375500Y-58020943D01*
X91334577Y-57868216D01*
X91305402Y-57817683D01*
X91255524Y-57731290D01*
X91255518Y-57731282D01*
X91143717Y-57619481D01*
X91143709Y-57619475D01*
X91006790Y-57540426D01*
X91006786Y-57540424D01*
X91006784Y-57540423D01*
X90854057Y-57499500D01*
X90695943Y-57499500D01*
X90687816Y-57499500D01*
X90687816Y-57496334D01*
X90633493Y-57487846D01*
X90598696Y-57463370D01*
X90124864Y-56989537D01*
X90124863Y-56989536D01*
X90124862Y-56989535D01*
X90087750Y-56968108D01*
X90050640Y-56946682D01*
X90009246Y-56935591D01*
X89967853Y-56924500D01*
X89967852Y-56924500D01*
X78683676Y-56924500D01*
X78616637Y-56904815D01*
X78595995Y-56888181D01*
X78557316Y-56849502D01*
X78557314Y-56849500D01*
X78500250Y-56816554D01*
X78443187Y-56783608D01*
X78379539Y-56766554D01*
X78315892Y-56749500D01*
X78184108Y-56749500D01*
X78056812Y-56783608D01*
X77942686Y-56849500D01*
X77942683Y-56849502D01*
X77849502Y-56942683D01*
X77849500Y-56942686D01*
X77783608Y-57056812D01*
X77749500Y-57184108D01*
X77109079Y-57184108D01*
X73609079Y-53684108D01*
X93499500Y-53684108D01*
X93499500Y-53815892D01*
X93511080Y-53859108D01*
X93533608Y-53943187D01*
X93561151Y-53990892D01*
X93599500Y-54057314D01*
X93692686Y-54150500D01*
X93806814Y-54216392D01*
X93934108Y-54250500D01*
X93953456Y-54250500D01*
X94020495Y-54270185D01*
X94041137Y-54286819D01*
X95863181Y-56108863D01*
X95896666Y-56170186D01*
X95899500Y-56196544D01*
X95899500Y-58653456D01*
X95879815Y-58720495D01*
X95863181Y-58741137D01*
X95641137Y-58963181D01*
X95579814Y-58996666D01*
X95553456Y-58999500D01*
X95534108Y-58999500D01*
X95406812Y-59033608D01*
X95292686Y-59099500D01*
X95292683Y-59099502D01*
X95199502Y-59192683D01*
X95199500Y-59192686D01*
X95133608Y-59306812D01*
X95099500Y-59434108D01*
X95099500Y-59565891D01*
X95133608Y-59693187D01*
X95166554Y-59750250D01*
X95199500Y-59807314D01*
X95292686Y-59900500D01*
X95406814Y-59966392D01*
X95534108Y-60000500D01*
X95534110Y-60000500D01*
X95665890Y-60000500D01*
X95665892Y-60000500D01*
X95793186Y-59966392D01*
X95907314Y-59900500D01*
X96000500Y-59807314D01*
X96066392Y-59693186D01*
X96100500Y-59565892D01*
X96100500Y-59546544D01*
X96120185Y-59479505D01*
X96136819Y-59458863D01*
X96318523Y-59277159D01*
X96530470Y-59065212D01*
X96576614Y-58985288D01*
X96600500Y-58896144D01*
X96600500Y-58803856D01*
X96600500Y-56376682D01*
X99242201Y-56376682D01*
X99242201Y-56508465D01*
X99276309Y-56635761D01*
X99309255Y-56692824D01*
X99342201Y-56749888D01*
X99435387Y-56843074D01*
X99549515Y-56908966D01*
X99676809Y-56943074D01*
X99676811Y-56943074D01*
X99808591Y-56943074D01*
X99808593Y-56943074D01*
X99935887Y-56908966D01*
X100050015Y-56843074D01*
X100143201Y-56749888D01*
X100209093Y-56635760D01*
X100243201Y-56508466D01*
X100243201Y-56376682D01*
X100209093Y-56249388D01*
X100143201Y-56135260D01*
X100050015Y-56042074D01*
X99992951Y-56009128D01*
X99935888Y-55976182D01*
X99852564Y-55953856D01*
X99808593Y-55942074D01*
X99676809Y-55942074D01*
X99549513Y-55976182D01*
X99435387Y-56042074D01*
X99435384Y-56042076D01*
X99342203Y-56135257D01*
X99342201Y-56135260D01*
X99276309Y-56249386D01*
X99242201Y-56376682D01*
X96600500Y-56376682D01*
X96600500Y-55953856D01*
X96576614Y-55864712D01*
X96530470Y-55784788D01*
X94579790Y-53834108D01*
X97049500Y-53834108D01*
X97049500Y-53965892D01*
X97056199Y-53990892D01*
X97083608Y-54093187D01*
X97098042Y-54118187D01*
X97149500Y-54207314D01*
X97242686Y-54300500D01*
X97356814Y-54366392D01*
X97484108Y-54400500D01*
X97484110Y-54400500D01*
X97615890Y-54400500D01*
X97615892Y-54400500D01*
X97743186Y-54366392D01*
X97857314Y-54300500D01*
X97950500Y-54207314D01*
X98016392Y-54093186D01*
X98050500Y-53965892D01*
X98050500Y-53859108D01*
X101949500Y-53859108D01*
X101949500Y-53990891D01*
X101983608Y-54118187D01*
X102016554Y-54175250D01*
X102049500Y-54232314D01*
X102142686Y-54325500D01*
X102256814Y-54391392D01*
X102384108Y-54425500D01*
X102384110Y-54425500D01*
X102515890Y-54425500D01*
X102515892Y-54425500D01*
X102643186Y-54391392D01*
X102757314Y-54325500D01*
X102850500Y-54232314D01*
X102916392Y-54118186D01*
X102950500Y-53990892D01*
X102950500Y-53859108D01*
X102916392Y-53731814D01*
X102850500Y-53617686D01*
X102757314Y-53524500D01*
X102700250Y-53491554D01*
X102643187Y-53458608D01*
X102579539Y-53441554D01*
X102515892Y-53424500D01*
X102384108Y-53424500D01*
X102256812Y-53458608D01*
X102142686Y-53524500D01*
X102142683Y-53524502D01*
X102049502Y-53617683D01*
X102049500Y-53617686D01*
X101983608Y-53731812D01*
X101949500Y-53859108D01*
X98050500Y-53859108D01*
X98050500Y-53834108D01*
X98016392Y-53706814D01*
X97950500Y-53592686D01*
X97857314Y-53499500D01*
X97770712Y-53449500D01*
X97743187Y-53433608D01*
X97679539Y-53416554D01*
X97615892Y-53399500D01*
X97484108Y-53399500D01*
X97356812Y-53433608D01*
X97242686Y-53499500D01*
X97242683Y-53499502D01*
X97149502Y-53592683D01*
X97149500Y-53592686D01*
X97083608Y-53706812D01*
X97076909Y-53731814D01*
X97049500Y-53834108D01*
X94579790Y-53834108D01*
X94536819Y-53791137D01*
X94503334Y-53729814D01*
X94500500Y-53703456D01*
X94500500Y-53684110D01*
X94500500Y-53684108D01*
X94466392Y-53556814D01*
X94400500Y-53442686D01*
X94307314Y-53349500D01*
X94250250Y-53316554D01*
X94193187Y-53283608D01*
X94129539Y-53266554D01*
X94065892Y-53249500D01*
X93934108Y-53249500D01*
X93806812Y-53283608D01*
X93692686Y-53349500D01*
X93692683Y-53349502D01*
X93599502Y-53442683D01*
X93599500Y-53442686D01*
X93533608Y-53556812D01*
X93510898Y-53641569D01*
X93499500Y-53684108D01*
X73609079Y-53684108D01*
X70859079Y-50934108D01*
X91474500Y-50934108D01*
X91474500Y-51065892D01*
X91485331Y-51106315D01*
X91508608Y-51193187D01*
X91516474Y-51206811D01*
X91574500Y-51307314D01*
X91667686Y-51400500D01*
X91781814Y-51466392D01*
X91909108Y-51500500D01*
X91909110Y-51500500D01*
X92040890Y-51500500D01*
X92040892Y-51500500D01*
X92111787Y-51481504D01*
X94680000Y-51481504D01*
X94680000Y-51880000D01*
X95380000Y-51880000D01*
X95380000Y-52380000D01*
X94680000Y-52380000D01*
X94680000Y-52778495D01*
X94718427Y-52971681D01*
X94718430Y-52971693D01*
X94793807Y-53153671D01*
X94793814Y-53153684D01*
X94903248Y-53317462D01*
X94903251Y-53317466D01*
X95042533Y-53456748D01*
X95042537Y-53456751D01*
X95206315Y-53566185D01*
X95206328Y-53566192D01*
X95388308Y-53641569D01*
X95430000Y-53649862D01*
X95430000Y-52846988D01*
X95439940Y-52864205D01*
X95495795Y-52920060D01*
X95564204Y-52959556D01*
X95640504Y-52980000D01*
X95719496Y-52980000D01*
X95795796Y-52959556D01*
X95864205Y-52920060D01*
X95920060Y-52864205D01*
X95930000Y-52846988D01*
X95930000Y-53649862D01*
X95971690Y-53641569D01*
X95971692Y-53641569D01*
X96153671Y-53566192D01*
X96153684Y-53566185D01*
X96317462Y-53456751D01*
X96317466Y-53456748D01*
X96456748Y-53317466D01*
X96456751Y-53317462D01*
X96566185Y-53153684D01*
X96566192Y-53153671D01*
X96641569Y-52971693D01*
X96641572Y-52971681D01*
X96679999Y-52778495D01*
X96680000Y-52778492D01*
X96680000Y-52380000D01*
X95980000Y-52380000D01*
X95980000Y-51880000D01*
X96535536Y-51880000D01*
X96602575Y-51899685D01*
X96642923Y-51942000D01*
X96649482Y-51953361D01*
X96649484Y-51953364D01*
X96649485Y-51953365D01*
X96756635Y-52060515D01*
X96887865Y-52136281D01*
X97034234Y-52175500D01*
X97034236Y-52175500D01*
X97185764Y-52175500D01*
X97185766Y-52175500D01*
X97332135Y-52136281D01*
X97463365Y-52060515D01*
X97570515Y-51953365D01*
X97646281Y-51822135D01*
X97685500Y-51675766D01*
X97685500Y-51524234D01*
X102314500Y-51524234D01*
X102314500Y-51675765D01*
X102353719Y-51822136D01*
X102391602Y-51887750D01*
X102429485Y-51953365D01*
X102536635Y-52060515D01*
X102667865Y-52136281D01*
X102814234Y-52175500D01*
X102814236Y-52175500D01*
X102965764Y-52175500D01*
X102965766Y-52175500D01*
X103112135Y-52136281D01*
X103243365Y-52060515D01*
X103350515Y-51953365D01*
X103357077Y-51942000D01*
X103407644Y-51893784D01*
X103464464Y-51880000D01*
X104020000Y-51880000D01*
X104020000Y-52380000D01*
X103320000Y-52380000D01*
X103320000Y-52778495D01*
X103358427Y-52971681D01*
X103358430Y-52971693D01*
X103433807Y-53153671D01*
X103433814Y-53153684D01*
X103543248Y-53317462D01*
X103543251Y-53317466D01*
X103682533Y-53456748D01*
X103682537Y-53456751D01*
X103846315Y-53566185D01*
X103846328Y-53566192D01*
X104028308Y-53641569D01*
X104070000Y-53649862D01*
X104070000Y-52846988D01*
X104079940Y-52864205D01*
X104135795Y-52920060D01*
X104204204Y-52959556D01*
X104280504Y-52980000D01*
X104359496Y-52980000D01*
X104435796Y-52959556D01*
X104504205Y-52920060D01*
X104560060Y-52864205D01*
X104570000Y-52846988D01*
X104570000Y-53649862D01*
X104611690Y-53641569D01*
X104611692Y-53641569D01*
X104793671Y-53566192D01*
X104793684Y-53566185D01*
X104957462Y-53456751D01*
X104957466Y-53456748D01*
X105096748Y-53317466D01*
X105096751Y-53317462D01*
X105206185Y-53153684D01*
X105206192Y-53153671D01*
X105281569Y-52971693D01*
X105281572Y-52971681D01*
X105319999Y-52778495D01*
X105320000Y-52778492D01*
X105320000Y-52380000D01*
X104620000Y-52380000D01*
X104620000Y-51880000D01*
X105320000Y-51880000D01*
X105320000Y-51481508D01*
X105319999Y-51481504D01*
X105281572Y-51288318D01*
X105281569Y-51288306D01*
X105206192Y-51106328D01*
X105206185Y-51106315D01*
X105096751Y-50942537D01*
X105096748Y-50942533D01*
X104957466Y-50803251D01*
X104957462Y-50803248D01*
X104793684Y-50693814D01*
X104793671Y-50693807D01*
X104611691Y-50618429D01*
X104611683Y-50618427D01*
X104570000Y-50610135D01*
X104570000Y-51413011D01*
X104560060Y-51395795D01*
X104504205Y-51339940D01*
X104435796Y-51300444D01*
X104359496Y-51280000D01*
X104280504Y-51280000D01*
X104204204Y-51300444D01*
X104135795Y-51339940D01*
X104079940Y-51395795D01*
X104070000Y-51413011D01*
X104070000Y-50610136D01*
X104069999Y-50610135D01*
X104028316Y-50618427D01*
X104028308Y-50618429D01*
X103846328Y-50693807D01*
X103846315Y-50693814D01*
X103682537Y-50803248D01*
X103682533Y-50803251D01*
X103543248Y-50942536D01*
X103430427Y-51111387D01*
X103429003Y-51110435D01*
X103385742Y-51154451D01*
X103317600Y-51169892D01*
X103251927Y-51146041D01*
X103249907Y-51144306D01*
X103249811Y-51144432D01*
X103243367Y-51139487D01*
X103243365Y-51139485D01*
X103162307Y-51092686D01*
X103112136Y-51063719D01*
X103038950Y-51044109D01*
X102965766Y-51024500D01*
X102814234Y-51024500D01*
X102667863Y-51063719D01*
X102536635Y-51139485D01*
X102536632Y-51139487D01*
X102429487Y-51246632D01*
X102429485Y-51246635D01*
X102353719Y-51377863D01*
X102314500Y-51524234D01*
X97685500Y-51524234D01*
X97646281Y-51377865D01*
X97570515Y-51246635D01*
X97463365Y-51139485D01*
X97382307Y-51092686D01*
X97332136Y-51063719D01*
X97258950Y-51044109D01*
X97185766Y-51024500D01*
X97034234Y-51024500D01*
X96887863Y-51063719D01*
X96756635Y-51139485D01*
X96750189Y-51144432D01*
X96748099Y-51141709D01*
X96700217Y-51167466D01*
X96630558Y-51162043D01*
X96574888Y-51119821D01*
X96569299Y-51110976D01*
X96456751Y-50942537D01*
X96456748Y-50942533D01*
X96317466Y-50803251D01*
X96317462Y-50803248D01*
X96153684Y-50693814D01*
X96153671Y-50693807D01*
X95971691Y-50618429D01*
X95971683Y-50618427D01*
X95930000Y-50610135D01*
X95930000Y-51413011D01*
X95920060Y-51395795D01*
X95864205Y-51339940D01*
X95795796Y-51300444D01*
X95719496Y-51280000D01*
X95640504Y-51280000D01*
X95564204Y-51300444D01*
X95495795Y-51339940D01*
X95439940Y-51395795D01*
X95430000Y-51413011D01*
X95430000Y-50610136D01*
X95429999Y-50610135D01*
X95388316Y-50618427D01*
X95388308Y-50618429D01*
X95206328Y-50693807D01*
X95206315Y-50693814D01*
X95042537Y-50803248D01*
X95042533Y-50803251D01*
X94903251Y-50942533D01*
X94903248Y-50942537D01*
X94793814Y-51106315D01*
X94793807Y-51106328D01*
X94718430Y-51288306D01*
X94718427Y-51288318D01*
X94680000Y-51481504D01*
X92111787Y-51481504D01*
X92168186Y-51466392D01*
X92282314Y-51400500D01*
X92375500Y-51307314D01*
X92441392Y-51193186D01*
X92475500Y-51065892D01*
X92475500Y-50934108D01*
X92441392Y-50806814D01*
X92375500Y-50692686D01*
X92282314Y-50599500D01*
X92225250Y-50566554D01*
X92168187Y-50533608D01*
X92104539Y-50516554D01*
X92040892Y-50499500D01*
X91909108Y-50499500D01*
X91781812Y-50533608D01*
X91667686Y-50599500D01*
X91667683Y-50599502D01*
X91574502Y-50692683D01*
X91574500Y-50692686D01*
X91508608Y-50806812D01*
X91498862Y-50843186D01*
X91474500Y-50934108D01*
X70859079Y-50934108D01*
X70335469Y-50410498D01*
X70334508Y-50409537D01*
X70325063Y-50404084D01*
X70265986Y-50369976D01*
X70189559Y-50349497D01*
X70139795Y-50349497D01*
X70121771Y-50343878D01*
X70107773Y-50334550D01*
X70091637Y-50329812D01*
X70070995Y-50313178D01*
X70007316Y-50249499D01*
X70007314Y-50249497D01*
X69950250Y-50216551D01*
X69893187Y-50183605D01*
X69829539Y-50166551D01*
X69765892Y-50149497D01*
X69634108Y-50149497D01*
X69506812Y-50183605D01*
X69392686Y-50249497D01*
X69392683Y-50249499D01*
X69299502Y-50342680D01*
X69299500Y-50342683D01*
X69233608Y-50456809D01*
X69199500Y-50584105D01*
X55200500Y-50584105D01*
X55200500Y-50002706D01*
X55200618Y-49997297D01*
X55209891Y-49784906D01*
X55218528Y-49587080D01*
X55219468Y-49576347D01*
X55272709Y-49171938D01*
X55274582Y-49161308D01*
X55362870Y-48763068D01*
X55365668Y-48752630D01*
X55466067Y-48434205D01*
X55488319Y-48363629D01*
X55492016Y-48353473D01*
X55494078Y-48348495D01*
X55648111Y-47976627D01*
X55652669Y-47966853D01*
X55793696Y-47695943D01*
X75399500Y-47695943D01*
X75399500Y-47854057D01*
X75432347Y-47976642D01*
X75440423Y-48006783D01*
X75440426Y-48006790D01*
X75519475Y-48143709D01*
X75519479Y-48143714D01*
X75519480Y-48143716D01*
X75631284Y-48255520D01*
X75631286Y-48255521D01*
X75631290Y-48255524D01*
X75768209Y-48334573D01*
X75768216Y-48334577D01*
X75920943Y-48375500D01*
X75920945Y-48375500D01*
X76079055Y-48375500D01*
X76079057Y-48375500D01*
X76231784Y-48334577D01*
X76368716Y-48255520D01*
X76480520Y-48143716D01*
X76559577Y-48006784D01*
X76600500Y-47854057D01*
X76600500Y-47695943D01*
X76561798Y-47551504D01*
X94680000Y-47551504D01*
X94680000Y-47700000D01*
X95380000Y-47700000D01*
X95380000Y-48200000D01*
X94680000Y-48200000D01*
X94680000Y-48348495D01*
X94718427Y-48541681D01*
X94718430Y-48541693D01*
X94793807Y-48723671D01*
X94793814Y-48723684D01*
X94903248Y-48887462D01*
X94903251Y-48887466D01*
X95042533Y-49026748D01*
X95042537Y-49026751D01*
X95206315Y-49136185D01*
X95206328Y-49136192D01*
X95388308Y-49211569D01*
X95430000Y-49219862D01*
X95430000Y-48416988D01*
X95439940Y-48434205D01*
X95495795Y-48490060D01*
X95564204Y-48529556D01*
X95640504Y-48550000D01*
X95719496Y-48550000D01*
X95795796Y-48529556D01*
X95864205Y-48490060D01*
X95920060Y-48434205D01*
X95930000Y-48416988D01*
X95930000Y-49219862D01*
X95971690Y-49211569D01*
X95971692Y-49211569D01*
X96153671Y-49136192D01*
X96153684Y-49136185D01*
X96317462Y-49026751D01*
X96317466Y-49026748D01*
X96456748Y-48887466D01*
X96456751Y-48887462D01*
X96566185Y-48723684D01*
X96566192Y-48723671D01*
X96641569Y-48541693D01*
X96641572Y-48541681D01*
X96679999Y-48348495D01*
X96680000Y-48348492D01*
X96680000Y-48200000D01*
X95980000Y-48200000D01*
X95980000Y-47700000D01*
X96680000Y-47700000D01*
X96680000Y-47551508D01*
X96679999Y-47551504D01*
X103320000Y-47551504D01*
X103320000Y-47700000D01*
X104020000Y-47700000D01*
X104020000Y-48200000D01*
X103320000Y-48200000D01*
X103320000Y-48348495D01*
X103358427Y-48541681D01*
X103358430Y-48541693D01*
X103433807Y-48723671D01*
X103433814Y-48723684D01*
X103543248Y-48887462D01*
X103543251Y-48887466D01*
X103682533Y-49026748D01*
X103682537Y-49026751D01*
X103846315Y-49136185D01*
X103846328Y-49136192D01*
X104028308Y-49211569D01*
X104070000Y-49219862D01*
X104070000Y-48416988D01*
X104079940Y-48434205D01*
X104135795Y-48490060D01*
X104204204Y-48529556D01*
X104280504Y-48550000D01*
X104359496Y-48550000D01*
X104435796Y-48529556D01*
X104504205Y-48490060D01*
X104560060Y-48434205D01*
X104570000Y-48416988D01*
X104570000Y-49219862D01*
X104611690Y-49211569D01*
X104611692Y-49211569D01*
X104793671Y-49136192D01*
X104793684Y-49136185D01*
X104957462Y-49026751D01*
X104957466Y-49026748D01*
X105096748Y-48887466D01*
X105096751Y-48887462D01*
X105206185Y-48723684D01*
X105206192Y-48723671D01*
X105281569Y-48541693D01*
X105281572Y-48541681D01*
X105319999Y-48348495D01*
X105320000Y-48348492D01*
X105320000Y-48200000D01*
X104620000Y-48200000D01*
X104620000Y-47700000D01*
X105320000Y-47700000D01*
X105320000Y-47551508D01*
X105319999Y-47551504D01*
X105281572Y-47358318D01*
X105281569Y-47358306D01*
X105206192Y-47176328D01*
X105206185Y-47176315D01*
X105118357Y-47044872D01*
X105096751Y-47012537D01*
X105096748Y-47012533D01*
X105068323Y-46984108D01*
X108899500Y-46984108D01*
X108899500Y-47115891D01*
X108933608Y-47243187D01*
X108963220Y-47294475D01*
X108999500Y-47357314D01*
X109092686Y-47450500D01*
X109206814Y-47516392D01*
X109334108Y-47550500D01*
X109334110Y-47550500D01*
X109465890Y-47550500D01*
X109465892Y-47550500D01*
X109593186Y-47516392D01*
X109707314Y-47450500D01*
X109800500Y-47357314D01*
X109866392Y-47243186D01*
X109900500Y-47115892D01*
X109900500Y-46984108D01*
X109887103Y-46934108D01*
X116899500Y-46934108D01*
X116899500Y-47065891D01*
X116933608Y-47193187D01*
X116946448Y-47215426D01*
X116999500Y-47307314D01*
X117092686Y-47400500D01*
X117206814Y-47466392D01*
X117334108Y-47500500D01*
X117334110Y-47500500D01*
X117465890Y-47500500D01*
X117465892Y-47500500D01*
X117593186Y-47466392D01*
X117707314Y-47400500D01*
X117800500Y-47307314D01*
X117866392Y-47193186D01*
X117900500Y-47065892D01*
X117900500Y-46934108D01*
X117866392Y-46806814D01*
X117800500Y-46692686D01*
X117707314Y-46599500D01*
X117620712Y-46549500D01*
X117593187Y-46533608D01*
X117529539Y-46516554D01*
X117465892Y-46499500D01*
X117334108Y-46499500D01*
X117206812Y-46533608D01*
X117092686Y-46599500D01*
X117092683Y-46599502D01*
X116999502Y-46692683D01*
X116999500Y-46692686D01*
X116933608Y-46806812D01*
X116899500Y-46934108D01*
X109887103Y-46934108D01*
X109866392Y-46856814D01*
X109800500Y-46742686D01*
X109707314Y-46649500D01*
X109639300Y-46610232D01*
X109593187Y-46583608D01*
X109529539Y-46566554D01*
X109465892Y-46549500D01*
X109334108Y-46549500D01*
X109206812Y-46583608D01*
X109092686Y-46649500D01*
X109092683Y-46649502D01*
X108999502Y-46742683D01*
X108999500Y-46742686D01*
X108933608Y-46856812D01*
X108899500Y-46984108D01*
X105068323Y-46984108D01*
X104957466Y-46873251D01*
X104957462Y-46873248D01*
X104793684Y-46763814D01*
X104793671Y-46763807D01*
X104611691Y-46688429D01*
X104611683Y-46688427D01*
X104570000Y-46680135D01*
X104570000Y-47483011D01*
X104560060Y-47465795D01*
X104504205Y-47409940D01*
X104435796Y-47370444D01*
X104359496Y-47350000D01*
X104280504Y-47350000D01*
X104204204Y-47370444D01*
X104135795Y-47409940D01*
X104079940Y-47465795D01*
X104070000Y-47483011D01*
X104070000Y-46680136D01*
X104069999Y-46680135D01*
X104028316Y-46688427D01*
X104028308Y-46688429D01*
X103846328Y-46763807D01*
X103846315Y-46763814D01*
X103682537Y-46873248D01*
X103682533Y-46873251D01*
X103543251Y-47012533D01*
X103543248Y-47012537D01*
X103433814Y-47176315D01*
X103433807Y-47176328D01*
X103358430Y-47358306D01*
X103358427Y-47358318D01*
X103320000Y-47551504D01*
X96679999Y-47551504D01*
X96641572Y-47358318D01*
X96641569Y-47358306D01*
X96566192Y-47176328D01*
X96566185Y-47176315D01*
X96456751Y-47012537D01*
X96456748Y-47012533D01*
X96317466Y-46873251D01*
X96317462Y-46873248D01*
X96153684Y-46763814D01*
X96153671Y-46763807D01*
X95971691Y-46688429D01*
X95971683Y-46688427D01*
X95930000Y-46680135D01*
X95930000Y-47483011D01*
X95920060Y-47465795D01*
X95864205Y-47409940D01*
X95795796Y-47370444D01*
X95719496Y-47350000D01*
X95640504Y-47350000D01*
X95564204Y-47370444D01*
X95495795Y-47409940D01*
X95439940Y-47465795D01*
X95430000Y-47483011D01*
X95430000Y-46680136D01*
X95429999Y-46680135D01*
X95388316Y-46688427D01*
X95388308Y-46688429D01*
X95206328Y-46763807D01*
X95206315Y-46763814D01*
X95042537Y-46873248D01*
X95042533Y-46873251D01*
X94903251Y-47012533D01*
X94903248Y-47012537D01*
X94793814Y-47176315D01*
X94793807Y-47176328D01*
X94718430Y-47358306D01*
X94718427Y-47358318D01*
X94680000Y-47551504D01*
X76561798Y-47551504D01*
X76559577Y-47543216D01*
X76515223Y-47466392D01*
X76480524Y-47406290D01*
X76480518Y-47406282D01*
X76368717Y-47294481D01*
X76368709Y-47294475D01*
X76231790Y-47215426D01*
X76231786Y-47215424D01*
X76231784Y-47215423D01*
X76079057Y-47174500D01*
X75920943Y-47174500D01*
X75768216Y-47215423D01*
X75768209Y-47215426D01*
X75631290Y-47294475D01*
X75631282Y-47294481D01*
X75519481Y-47406282D01*
X75519475Y-47406290D01*
X75440426Y-47543209D01*
X75440424Y-47543214D01*
X75440423Y-47543216D01*
X75399500Y-47695943D01*
X55793696Y-47695943D01*
X55841029Y-47605017D01*
X55846407Y-47595703D01*
X56065574Y-47251680D01*
X56071765Y-47242837D01*
X56320083Y-46919224D01*
X56327021Y-46910955D01*
X56602594Y-46610220D01*
X56610220Y-46602594D01*
X56910955Y-46327021D01*
X56919224Y-46320083D01*
X57242837Y-46071765D01*
X57251680Y-46065574D01*
X57595703Y-45846407D01*
X57605024Y-45841025D01*
X57966853Y-45652669D01*
X57976627Y-45648111D01*
X58353482Y-45492012D01*
X58363629Y-45488319D01*
X58752639Y-45365665D01*
X58763068Y-45362870D01*
X59161308Y-45274582D01*
X59171938Y-45272709D01*
X59576347Y-45219468D01*
X59587080Y-45218528D01*
X59997297Y-45200617D01*
X60002706Y-45200500D01*
X60039882Y-45200500D01*
X139960118Y-45200500D01*
X139997294Y-45200500D01*
X140002702Y-45200617D01*
G37*
%TD.AperFunction*%
%TD*%
M02*
