%TF.GenerationSoftware,KiCad,Pcbnew,9.0.7*%
%TF.CreationDate,2026-06-11T13:29:59+02:00*%
%TF.ProjectId,usb_rfid_reader,7573625f-7266-4696-945f-726561646572,rev?*%
%TF.SameCoordinates,Original*%
%TF.FileFunction,Soldermask,Top*%
%TF.FilePolarity,Negative*%
%FSLAX46Y46*%
G04 Gerber Fmt 4.6, Leading zero omitted, Abs format (unit mm)*
G04 Created by KiCad (PCBNEW 9.0.7) date 2026-06-11 13:29:59*
%MOMM*%
%LPD*%
G01*
G04 APERTURE LIST*
G04 Aperture macros list*
%AMRoundRect*
0 Rectangle with rounded corners*
0 $1 Rounding radius*
0 $2 $3 $4 $5 $6 $7 $8 $9 X,Y pos of 4 corners*
0 Add a 4 corners polygon primitive as box body*
4,1,4,$2,$3,$4,$5,$6,$7,$8,$9,$2,$3,0*
0 Add four circle primitives for the rounded corners*
1,1,$1+$1,$2,$3*
1,1,$1+$1,$4,$5*
1,1,$1+$1,$6,$7*
1,1,$1+$1,$8,$9*
0 Add four rect primitives between the rounded corners*
20,1,$1+$1,$2,$3,$4,$5,0*
20,1,$1+$1,$4,$5,$6,$7,0*
20,1,$1+$1,$6,$7,$8,$9,0*
20,1,$1+$1,$8,$9,$2,$3,0*%
G04 Aperture macros list end*
%ADD10C,1.000000*%
%ADD11RoundRect,0.200000X-0.200000X-0.275000X0.200000X-0.275000X0.200000X0.275000X-0.200000X0.275000X0*%
%ADD12RoundRect,0.150000X0.512500X0.150000X-0.512500X0.150000X-0.512500X-0.150000X0.512500X-0.150000X0*%
%ADD13RoundRect,0.250000X-0.525000X-0.400000X0.525000X-0.400000X0.525000X0.400000X-0.525000X0.400000X0*%
%ADD14C,5.600000*%
%ADD15R,2.000000X2.000000*%
%ADD16C,2.000000*%
%ADD17RoundRect,0.225000X0.225000X0.250000X-0.225000X0.250000X-0.225000X-0.250000X0.225000X-0.250000X0*%
%ADD18RoundRect,0.218750X0.218750X0.256250X-0.218750X0.256250X-0.218750X-0.256250X0.218750X-0.256250X0*%
%ADD19RoundRect,0.200000X-0.275000X0.200000X-0.275000X-0.200000X0.275000X-0.200000X0.275000X0.200000X0*%
%ADD20RoundRect,0.200000X0.200000X0.275000X-0.200000X0.275000X-0.200000X-0.275000X0.200000X-0.275000X0*%
%ADD21RoundRect,0.135000X-0.185000X0.135000X-0.185000X-0.135000X0.185000X-0.135000X0.185000X0.135000X0*%
%ADD22RoundRect,0.218750X-0.218750X-0.256250X0.218750X-0.256250X0.218750X0.256250X-0.218750X0.256250X0*%
%ADD23RoundRect,0.075000X0.075000X-0.700000X0.075000X0.700000X-0.075000X0.700000X-0.075000X-0.700000X0*%
%ADD24RoundRect,0.075000X0.700000X-0.075000X0.700000X0.075000X-0.700000X0.075000X-0.700000X-0.075000X0*%
%ADD25C,0.650000*%
%ADD26R,0.600000X1.450000*%
%ADD27R,0.300000X1.450000*%
%ADD28O,1.000000X2.100000*%
%ADD29O,1.000000X1.600000*%
%ADD30R,0.740000X2.400000*%
%ADD31RoundRect,0.135000X0.185000X-0.135000X0.185000X0.135000X-0.185000X0.135000X-0.185000X-0.135000X0*%
%ADD32RoundRect,0.225000X-0.225000X-0.250000X0.225000X-0.250000X0.225000X0.250000X-0.225000X0.250000X0*%
%ADD33RoundRect,0.375000X0.625000X0.375000X-0.625000X0.375000X-0.625000X-0.375000X0.625000X-0.375000X0*%
%ADD34RoundRect,0.500000X0.500000X1.400000X-0.500000X1.400000X-0.500000X-1.400000X0.500000X-1.400000X0*%
%ADD35RoundRect,0.150000X0.150000X-0.512500X0.150000X0.512500X-0.150000X0.512500X-0.150000X-0.512500X0*%
%ADD36C,2.500000*%
%ADD37RoundRect,0.102000X-0.862500X-0.862500X0.862500X-0.862500X0.862500X0.862500X-0.862500X0.862500X0*%
%ADD38C,1.929000*%
%ADD39RoundRect,0.225000X0.250000X-0.225000X0.250000X0.225000X-0.250000X0.225000X-0.250000X-0.225000X0*%
%ADD40RoundRect,0.225000X-0.250000X0.225000X-0.250000X-0.225000X0.250000X-0.225000X0.250000X0.225000X0*%
%ADD41RoundRect,0.250000X1.250000X0.550000X-1.250000X0.550000X-1.250000X-0.550000X1.250000X-0.550000X0*%
G04 APERTURE END LIST*
D10*
%TO.C,TP8*%
X78500000Y-85000000D03*
%TD*%
%TO.C,TP7*%
X78500000Y-82500000D03*
%TD*%
%TO.C,TP6*%
X78500000Y-80000000D03*
%TD*%
%TO.C,TP5*%
X78500000Y-77500000D03*
%TD*%
%TO.C,TP4*%
X78500000Y-75000000D03*
%TD*%
%TO.C,TP3*%
X110750000Y-64750000D03*
%TD*%
%TO.C,TP2*%
X87300000Y-60500000D03*
%TD*%
%TO.C,TP1*%
X89300000Y-60500000D03*
%TD*%
D11*
%TO.C,R8*%
X113775000Y-61800000D03*
X115425000Y-61800000D03*
%TD*%
D12*
%TO.C,Q2*%
X115437500Y-65250000D03*
X115437500Y-63350000D03*
X113162500Y-64300000D03*
%TD*%
D13*
%TO.C,SW1*%
X109440000Y-47750000D03*
X117400000Y-47750000D03*
X109440000Y-52250000D03*
X117400000Y-52250000D03*
%TD*%
D14*
%TO.C,H4*%
X60000000Y-130000000D03*
%TD*%
D15*
%TO.C,BZ1*%
X136000000Y-64000000D03*
D16*
X126000000Y-64000000D03*
%TD*%
D17*
%TO.C,C8*%
X109500000Y-68225000D03*
X107950000Y-68225000D03*
%TD*%
D18*
%TO.C,D3*%
X133787500Y-75050000D03*
X132212500Y-75050000D03*
%TD*%
D19*
%TO.C,R7*%
X92000000Y-66975000D03*
X92000000Y-68625000D03*
%TD*%
D20*
%TO.C,R6*%
X129825000Y-75050000D03*
X128175000Y-75050000D03*
%TD*%
D21*
%TO.C,R2*%
X97240000Y-55990000D03*
X97240000Y-57010000D03*
%TD*%
D22*
%TO.C,D2*%
X61712500Y-59250000D03*
X63287500Y-59250000D03*
%TD*%
D23*
%TO.C,U3*%
X96250000Y-72350000D03*
X96750000Y-72350000D03*
X97250000Y-72350000D03*
X97750000Y-72350000D03*
X98250000Y-72350000D03*
X98750000Y-72350000D03*
X99250000Y-72350000D03*
X99750000Y-72350000D03*
X100250000Y-72350000D03*
X100750000Y-72350000D03*
X101250000Y-72350000D03*
X101750000Y-72350000D03*
X102250000Y-72350000D03*
X102750000Y-72350000D03*
X103250000Y-72350000D03*
X103750000Y-72350000D03*
D24*
X105675000Y-70425000D03*
X105675000Y-69925000D03*
X105675000Y-69425000D03*
X105675000Y-68925000D03*
X105675000Y-68425000D03*
X105675000Y-67925000D03*
X105675000Y-67425000D03*
X105675000Y-66925000D03*
X105675000Y-66425000D03*
X105675000Y-65925000D03*
X105675000Y-65425000D03*
X105675000Y-64925000D03*
X105675000Y-64425000D03*
X105675000Y-63925000D03*
X105675000Y-63425000D03*
X105675000Y-62925000D03*
D23*
X103750000Y-61000000D03*
X103250000Y-61000000D03*
X102750000Y-61000000D03*
X102250000Y-61000000D03*
X101750000Y-61000000D03*
X101250000Y-61000000D03*
X100750000Y-61000000D03*
X100250000Y-61000000D03*
X99750000Y-61000000D03*
X99250000Y-61000000D03*
X98750000Y-61000000D03*
X98250000Y-61000000D03*
X97750000Y-61000000D03*
X97250000Y-61000000D03*
X96750000Y-61000000D03*
X96250000Y-61000000D03*
D24*
X94325000Y-62925000D03*
X94325000Y-63425000D03*
X94325000Y-63925000D03*
X94325000Y-64425000D03*
X94325000Y-64925000D03*
X94325000Y-65425000D03*
X94325000Y-65925000D03*
X94325000Y-66425000D03*
X94325000Y-66925000D03*
X94325000Y-67425000D03*
X94325000Y-67925000D03*
X94325000Y-68425000D03*
X94325000Y-68925000D03*
X94325000Y-69425000D03*
X94325000Y-69925000D03*
X94325000Y-70425000D03*
%TD*%
D25*
%TO.C,J1*%
X102890000Y-51600000D03*
X97110000Y-51600000D03*
D26*
X103250000Y-53045000D03*
X102450000Y-53045000D03*
D27*
X101250000Y-53045000D03*
X100250000Y-53045000D03*
X99750000Y-53045000D03*
X98750000Y-53045000D03*
D26*
X97550000Y-53045000D03*
X96750000Y-53045000D03*
X96750000Y-53045000D03*
X97550000Y-53045000D03*
D27*
X98250000Y-53045000D03*
X99250000Y-53045000D03*
X100750000Y-53045000D03*
X101750000Y-53045000D03*
D26*
X102450000Y-53045000D03*
X103250000Y-53045000D03*
D28*
X104320000Y-52130000D03*
D29*
X104320000Y-47950000D03*
D28*
X95680000Y-52130000D03*
D29*
X95680000Y-47950000D03*
%TD*%
D14*
%TO.C,H1*%
X60000000Y-50000000D03*
%TD*%
D17*
%TO.C,C7*%
X106565000Y-72860000D03*
X105015000Y-72860000D03*
%TD*%
D14*
%TO.C,H2*%
X140000000Y-50000000D03*
%TD*%
D13*
%TO.C,SW2*%
X125020000Y-47750000D03*
X132980000Y-47750000D03*
X125020000Y-52250000D03*
X132980000Y-52250000D03*
%TD*%
D30*
%TO.C,J3*%
X77270000Y-49050000D03*
X77270000Y-52950000D03*
X76000000Y-49050000D03*
X76000000Y-52950000D03*
X74730000Y-49050000D03*
X74730000Y-52950000D03*
X73460000Y-49050000D03*
X73460000Y-52950000D03*
X72190000Y-49050000D03*
X72190000Y-52950000D03*
X70920000Y-49050000D03*
X70920000Y-52950000D03*
X69650000Y-49050000D03*
X69650000Y-52950000D03*
%TD*%
D11*
%TO.C,R4*%
X65100000Y-57000000D03*
X66750000Y-57000000D03*
%TD*%
D31*
%TO.C,R1*%
X102750000Y-57010000D03*
X102750000Y-55990000D03*
%TD*%
D32*
%TO.C,C6*%
X92875000Y-72800000D03*
X94425000Y-72800000D03*
%TD*%
D33*
%TO.C,U1*%
X91975000Y-58100000D03*
X91975000Y-55800000D03*
D34*
X85675000Y-55800000D03*
D33*
X91975000Y-53500000D03*
%TD*%
D11*
%TO.C,R5*%
X65175000Y-59250000D03*
X66825000Y-59250000D03*
%TD*%
D35*
%TO.C,U2*%
X99100000Y-57637500D03*
X100050000Y-57637500D03*
X101000000Y-57637500D03*
X101000000Y-55362500D03*
X100050000Y-55362500D03*
X99100000Y-55362500D03*
%TD*%
D17*
%TO.C,C10*%
X109895000Y-71490000D03*
X108345000Y-71490000D03*
%TD*%
D22*
%TO.C,D1*%
X61712500Y-57000000D03*
X63287500Y-57000000D03*
%TD*%
D36*
%TO.C,J2*%
X82500000Y-90000000D03*
X86000000Y-128000000D03*
X114000000Y-128000000D03*
X117500000Y-90000000D03*
D37*
X91550000Y-76240000D03*
D38*
X94090000Y-76240000D03*
X96630000Y-76240000D03*
X99170000Y-76240000D03*
X101710000Y-76240000D03*
X104250000Y-76240000D03*
X106790000Y-76240000D03*
X109330000Y-76240000D03*
%TD*%
D39*
%TO.C,C4*%
X90190000Y-64155000D03*
X90190000Y-62605000D03*
%TD*%
D32*
%TO.C,C5*%
X89925000Y-70200000D03*
X91475000Y-70200000D03*
%TD*%
D11*
%TO.C,R3*%
X109175000Y-63000000D03*
X110825000Y-63000000D03*
%TD*%
D17*
%TO.C,C1*%
X92575000Y-60300000D03*
X91025000Y-60300000D03*
%TD*%
D32*
%TO.C,C9*%
X106045000Y-60770000D03*
X107595000Y-60770000D03*
%TD*%
D40*
%TO.C,C11*%
X123100000Y-49225000D03*
X123100000Y-50775000D03*
%TD*%
D41*
%TO.C,C3*%
X91700000Y-49300000D03*
X87300000Y-49300000D03*
%TD*%
D14*
%TO.C,H3*%
X140000000Y-130000000D03*
%TD*%
D17*
%TO.C,C2*%
X86575000Y-72925000D03*
X85025000Y-72925000D03*
%TD*%
M02*
