M48
; DRILL file {KiCad 9.0.7} date 2026-06-11T13:29:48+0200
; FORMAT={-:-/ absolute / metric / decimal}
; #@! TF.CreationDate,2026-06-11T13:29:48+02:00
; #@! TF.GenerationSoftware,Kicad,Pcbnew,9.0.7
; #@! TF.FileFunction,Plated,1,4,PTH
FMAT,2
METRIC
; #@! TA.AperFunction,Plated,PTH,ViaDrill
T1C0.300
; #@! TA.AperFunction,Plated,PTH,ViaDrill
T2C0.400
; #@! TA.AperFunction,Plated,PTH,ComponentDrill
T3C0.600
; #@! TA.AperFunction,Plated,PTH,ComponentDrill
T4C1.000
; #@! TA.AperFunction,Plated,PTH,ComponentDrill
T5C1.150
; #@! TA.AperFunction,Plated,PTH,ComponentDrill
T6C3.200
%
G90
G05
T1
X60.7Y-57.0
X60.7Y-59.2
X68.25Y-59.25
X69.7Y-50.65
X69.7Y-51.4
X78.25Y-57.25
X83.75Y-58.5
X85.675Y-50.925
X88.5Y-63.75
X89.9Y-69.3
X90.775Y-64.155
X90.825Y-62.605
X91.4Y-72.4
X91.7Y-64.5
X91.975Y-51.0
X92.674Y-69.758
X92.785Y-70.5
X93.15Y-58.125
X93.6Y-60.3
X94.0Y-53.75
X95.3Y-60.3
X95.52Y-73.099
X95.6Y-59.5
X95.6Y-65.9
X96.2Y-67.6
X96.65Y-59.45
X97.55Y-53.9
X98.4Y-63.4
X99.3Y-64.4
X99.573Y-58.774
X99.743Y-56.443
X100.316Y-62.388
X101.0Y-63.6
X101.2Y-62.7
X101.2Y-73.9
X101.9Y-62.4
X102.45Y-53.925
X102.9Y-63.0
X103.226Y-73.776
X103.3Y-68.3
X103.492Y-59.744
X104.3Y-54.3
X104.3Y-59.8
X104.3Y-66.8
X104.4Y-71.7
X104.6Y-70.425
X106.05Y-61.64
X106.545Y-72.145
X106.8Y-71.3
X106.874Y-69.167
X107.05Y-70.4
X107.162Y-63.662
X107.5Y-62.75
X109.25Y-53.75
X109.4Y-47.05
X110.0Y-61.25
X110.2Y-60.4
X117.4Y-47.0
T2
X56.0Y-50.0
X56.0Y-55.0
X56.0Y-65.0
X56.0Y-70.0
X56.0Y-75.0
X56.0Y-80.0
X56.0Y-85.0
X56.0Y-90.0
X56.0Y-95.0
X56.0Y-100.0
X56.0Y-105.0
X56.0Y-110.0
X56.0Y-115.0
X56.0Y-120.0
X56.0Y-125.0
X56.0Y-130.0
X60.0Y-46.0
X60.0Y-65.0
X60.0Y-70.0
X60.0Y-75.0
X60.0Y-80.0
X60.0Y-85.0
X60.0Y-105.0
X60.0Y-110.0
X60.0Y-115.0
X60.0Y-120.0
X60.0Y-125.0
X60.0Y-134.0
X65.0Y-46.0
X65.0Y-65.0
X65.0Y-70.0
X65.0Y-75.0
X65.0Y-80.0
X65.0Y-85.0
X65.0Y-105.0
X65.0Y-110.0
X65.0Y-115.0
X65.0Y-120.0
X65.0Y-125.0
X65.0Y-130.0
X65.0Y-134.0
X70.0Y-46.0
X70.0Y-65.0
X70.0Y-70.0
X70.0Y-75.0
X70.0Y-80.0
X70.0Y-85.0
X70.0Y-105.0
X70.0Y-110.0
X70.0Y-115.0
X70.0Y-120.0
X70.0Y-125.0
X70.0Y-130.0
X70.0Y-134.0
X75.0Y-46.0
X75.0Y-65.0
X75.0Y-70.0
X75.0Y-105.0
X75.0Y-110.0
X75.0Y-115.0
X75.0Y-120.0
X75.0Y-125.0
X75.0Y-130.0
X75.0Y-134.0
X76.0Y-47.775
X80.0Y-46.0
X85.0Y-46.0
X87.3Y-59.6
X87.562Y-73.912
X90.0Y-46.0
X90.775Y-58.1
X109.703Y-74.425
X110.0Y-46.0
X112.8Y-61.8
X113.1Y-65.3
X115.0Y-46.0
X120.0Y-46.0
X125.0Y-46.0
X125.0Y-80.0
X125.0Y-85.0
X125.0Y-90.0
X125.0Y-95.0
X125.0Y-100.0
X125.0Y-105.0
X125.0Y-110.0
X125.0Y-115.0
X125.0Y-120.0
X125.0Y-125.0
X125.0Y-130.0
X125.0Y-134.0
X130.0Y-46.0
X130.0Y-80.0
X130.0Y-85.0
X130.0Y-90.0
X130.0Y-95.0
X130.0Y-100.0
X130.0Y-105.0
X130.0Y-110.0
X130.0Y-115.0
X130.0Y-120.0
X130.0Y-125.0
X130.0Y-130.0
X130.0Y-134.0
X135.0Y-46.0
X135.0Y-80.0
X135.0Y-85.0
X135.0Y-90.0
X135.0Y-95.0
X135.0Y-100.0
X135.0Y-105.0
X135.0Y-110.0
X135.0Y-115.0
X135.0Y-120.0
X135.0Y-125.0
X135.0Y-130.0
X135.0Y-134.0
X140.0Y-46.0
X140.0Y-55.0
X140.0Y-60.0
X140.0Y-65.0
X140.0Y-80.0
X140.0Y-85.0
X140.0Y-90.0
X140.0Y-95.0
X140.0Y-100.0
X140.0Y-105.0
X140.0Y-110.0
X140.0Y-115.0
X140.0Y-120.0
X140.0Y-125.0
X140.0Y-134.0
X144.0Y-50.0
X144.0Y-55.0
X144.0Y-60.0
X144.0Y-65.0
X144.0Y-70.0
X144.0Y-75.0
X144.0Y-80.0
X144.0Y-85.0
X144.0Y-90.0
X144.0Y-95.0
X144.0Y-100.0
X144.0Y-105.0
X144.0Y-110.0
X144.0Y-115.0
X144.0Y-120.0
X144.0Y-125.0
X144.0Y-130.0
T4
X126.0Y-64.0
X136.0Y-64.0
T5
X91.55Y-76.24
X94.09Y-76.24
X96.63Y-76.24
X99.17Y-76.24
X101.71Y-76.24
X104.25Y-76.24
X106.79Y-76.24
X109.33Y-76.24
T6
X60.0Y-50.0
X60.0Y-130.0
X140.0Y-50.0
X140.0Y-130.0
T3
G00X95.68Y-48.25
M15
G01X95.68Y-47.65
M16
G05
G00X95.68Y-52.68
M15
G01X95.68Y-51.58
M16
G05
G00X104.32Y-48.25
M15
G01X104.32Y-47.65
M16
G05
G00X104.32Y-52.68
M15
G01X104.32Y-51.58
M16
G05
M30
