%TF.GenerationSoftware,KiCad,Pcbnew,9.0.7*%
%TF.CreationDate,2026-06-11T13:29:59+02:00*%
%TF.ProjectId,usb_rfid_reader,7573625f-7266-4696-945f-726561646572,rev?*%
%TF.SameCoordinates,Original*%
%TF.FileFunction,Legend,Top*%
%TF.FilePolarity,Positive*%
%FSLAX46Y46*%
G04 Gerber Fmt 4.6, Leading zero omitted, Abs format (unit mm)*
G04 Created by KiCad (PCBNEW 9.0.7) date 2026-06-11 13:29:59*
%MOMM*%
%LPD*%
G01*
G04 APERTURE LIST*
%ADD10C,0.200000*%
%ADD11C,0.150000*%
%ADD12C,0.120000*%
%ADD13C,0.127000*%
G04 APERTURE END LIST*
D10*
X56000000Y-56250000D02*
X60500000Y-56250000D01*
X60500000Y-57750000D01*
X56000000Y-57750000D01*
X56000000Y-56250000D01*
X134950000Y-74300000D02*
X143500000Y-74300000D01*
X143500000Y-75800000D01*
X134950000Y-75800000D01*
X134950000Y-74300000D01*
X56000000Y-58525000D02*
X60500000Y-58525000D01*
X60500000Y-60025000D01*
X56000000Y-60025000D01*
X56000000Y-58525000D01*
X135700000Y-70300000D02*
X142300000Y-70300000D01*
X142300000Y-71800000D01*
X135700000Y-71800000D01*
X135700000Y-70300000D01*
X126400000Y-54000000D02*
X131625000Y-54000000D01*
X131625000Y-55500000D01*
X126400000Y-55500000D01*
X126400000Y-54000000D01*
X60075000Y-90000000D02*
X75100000Y-90000000D01*
X75100000Y-98100000D01*
X60075000Y-98100000D01*
X60075000Y-90000000D01*
X110870000Y-54000000D02*
X116095000Y-54000000D01*
X116095000Y-55500000D01*
X110870000Y-55500000D01*
X110870000Y-54000000D01*
X59145863Y-56507219D02*
X58669673Y-56507219D01*
X58669673Y-56507219D02*
X58622054Y-56983409D01*
X58622054Y-56983409D02*
X58669673Y-56935790D01*
X58669673Y-56935790D02*
X58764911Y-56888171D01*
X58764911Y-56888171D02*
X59003006Y-56888171D01*
X59003006Y-56888171D02*
X59098244Y-56935790D01*
X59098244Y-56935790D02*
X59145863Y-56983409D01*
X59145863Y-56983409D02*
X59193482Y-57078647D01*
X59193482Y-57078647D02*
X59193482Y-57316742D01*
X59193482Y-57316742D02*
X59145863Y-57411980D01*
X59145863Y-57411980D02*
X59098244Y-57459600D01*
X59098244Y-57459600D02*
X59003006Y-57507219D01*
X59003006Y-57507219D02*
X58764911Y-57507219D01*
X58764911Y-57507219D02*
X58669673Y-57459600D01*
X58669673Y-57459600D02*
X58622054Y-57411980D01*
X59479197Y-56507219D02*
X59812530Y-57507219D01*
X59812530Y-57507219D02*
X60145863Y-56507219D01*
X61343482Y-94829838D02*
X61248244Y-94782219D01*
X61248244Y-94782219D02*
X61105387Y-94782219D01*
X61105387Y-94782219D02*
X60962530Y-94829838D01*
X60962530Y-94829838D02*
X60867292Y-94925076D01*
X60867292Y-94925076D02*
X60819673Y-95020314D01*
X60819673Y-95020314D02*
X60772054Y-95210790D01*
X60772054Y-95210790D02*
X60772054Y-95353647D01*
X60772054Y-95353647D02*
X60819673Y-95544123D01*
X60819673Y-95544123D02*
X60867292Y-95639361D01*
X60867292Y-95639361D02*
X60962530Y-95734600D01*
X60962530Y-95734600D02*
X61105387Y-95782219D01*
X61105387Y-95782219D02*
X61200625Y-95782219D01*
X61200625Y-95782219D02*
X61343482Y-95734600D01*
X61343482Y-95734600D02*
X61391101Y-95686980D01*
X61391101Y-95686980D02*
X61391101Y-95353647D01*
X61391101Y-95353647D02*
X61200625Y-95353647D01*
X62391101Y-95782219D02*
X62057768Y-95306028D01*
X61819673Y-95782219D02*
X61819673Y-94782219D01*
X61819673Y-94782219D02*
X62200625Y-94782219D01*
X62200625Y-94782219D02*
X62295863Y-94829838D01*
X62295863Y-94829838D02*
X62343482Y-94877457D01*
X62343482Y-94877457D02*
X62391101Y-94972695D01*
X62391101Y-94972695D02*
X62391101Y-95115552D01*
X62391101Y-95115552D02*
X62343482Y-95210790D01*
X62343482Y-95210790D02*
X62295863Y-95258409D01*
X62295863Y-95258409D02*
X62200625Y-95306028D01*
X62200625Y-95306028D02*
X61819673Y-95306028D01*
X62772054Y-95496504D02*
X63248244Y-95496504D01*
X62676816Y-95782219D02*
X63010149Y-94782219D01*
X63010149Y-94782219D02*
X63343482Y-95782219D01*
X63533959Y-94782219D02*
X63867292Y-95782219D01*
X63867292Y-95782219D02*
X64200625Y-94782219D01*
X64533959Y-95258409D02*
X64867292Y-95258409D01*
X65010149Y-95782219D02*
X64533959Y-95782219D01*
X64533959Y-95782219D02*
X64533959Y-94782219D01*
X64533959Y-94782219D02*
X65010149Y-94782219D01*
X66391102Y-95306028D02*
X66391102Y-95782219D01*
X66057769Y-94782219D02*
X66391102Y-95306028D01*
X66391102Y-95306028D02*
X66724435Y-94782219D01*
X67010150Y-95496504D02*
X67486340Y-95496504D01*
X66914912Y-95782219D02*
X67248245Y-94782219D01*
X67248245Y-94782219D02*
X67581578Y-95782219D01*
X67914912Y-95782219D02*
X67914912Y-94782219D01*
X67914912Y-94782219D02*
X68486340Y-95782219D01*
X68486340Y-95782219D02*
X68486340Y-94782219D01*
X68962531Y-95782219D02*
X68962531Y-94782219D01*
X69391102Y-95734600D02*
X69533959Y-95782219D01*
X69533959Y-95782219D02*
X69772054Y-95782219D01*
X69772054Y-95782219D02*
X69867292Y-95734600D01*
X69867292Y-95734600D02*
X69914911Y-95686980D01*
X69914911Y-95686980D02*
X69962530Y-95591742D01*
X69962530Y-95591742D02*
X69962530Y-95496504D01*
X69962530Y-95496504D02*
X69914911Y-95401266D01*
X69914911Y-95401266D02*
X69867292Y-95353647D01*
X69867292Y-95353647D02*
X69772054Y-95306028D01*
X69772054Y-95306028D02*
X69581578Y-95258409D01*
X69581578Y-95258409D02*
X69486340Y-95210790D01*
X69486340Y-95210790D02*
X69438721Y-95163171D01*
X69438721Y-95163171D02*
X69391102Y-95067933D01*
X69391102Y-95067933D02*
X69391102Y-94972695D01*
X69391102Y-94972695D02*
X69438721Y-94877457D01*
X69438721Y-94877457D02*
X69486340Y-94829838D01*
X69486340Y-94829838D02*
X69581578Y-94782219D01*
X69581578Y-94782219D02*
X69819673Y-94782219D01*
X69819673Y-94782219D02*
X69962530Y-94829838D01*
X57174435Y-58782219D02*
X57793482Y-58782219D01*
X57793482Y-58782219D02*
X57460149Y-59163171D01*
X57460149Y-59163171D02*
X57603006Y-59163171D01*
X57603006Y-59163171D02*
X57698244Y-59210790D01*
X57698244Y-59210790D02*
X57745863Y-59258409D01*
X57745863Y-59258409D02*
X57793482Y-59353647D01*
X57793482Y-59353647D02*
X57793482Y-59591742D01*
X57793482Y-59591742D02*
X57745863Y-59686980D01*
X57745863Y-59686980D02*
X57698244Y-59734600D01*
X57698244Y-59734600D02*
X57603006Y-59782219D01*
X57603006Y-59782219D02*
X57317292Y-59782219D01*
X57317292Y-59782219D02*
X57222054Y-59734600D01*
X57222054Y-59734600D02*
X57174435Y-59686980D01*
X58222054Y-59686980D02*
X58269673Y-59734600D01*
X58269673Y-59734600D02*
X58222054Y-59782219D01*
X58222054Y-59782219D02*
X58174435Y-59734600D01*
X58174435Y-59734600D02*
X58222054Y-59686980D01*
X58222054Y-59686980D02*
X58222054Y-59782219D01*
X58603006Y-58782219D02*
X59222053Y-58782219D01*
X59222053Y-58782219D02*
X58888720Y-59163171D01*
X58888720Y-59163171D02*
X59031577Y-59163171D01*
X59031577Y-59163171D02*
X59126815Y-59210790D01*
X59126815Y-59210790D02*
X59174434Y-59258409D01*
X59174434Y-59258409D02*
X59222053Y-59353647D01*
X59222053Y-59353647D02*
X59222053Y-59591742D01*
X59222053Y-59591742D02*
X59174434Y-59686980D01*
X59174434Y-59686980D02*
X59126815Y-59734600D01*
X59126815Y-59734600D02*
X59031577Y-59782219D01*
X59031577Y-59782219D02*
X58745863Y-59782219D01*
X58745863Y-59782219D02*
X58650625Y-59734600D01*
X58650625Y-59734600D02*
X58603006Y-59686980D01*
X59507768Y-58782219D02*
X59841101Y-59782219D01*
X59841101Y-59782219D02*
X60174434Y-58782219D01*
X127606241Y-55257219D02*
X127272908Y-54781028D01*
X127034813Y-55257219D02*
X127034813Y-54257219D01*
X127034813Y-54257219D02*
X127415765Y-54257219D01*
X127415765Y-54257219D02*
X127511003Y-54304838D01*
X127511003Y-54304838D02*
X127558622Y-54352457D01*
X127558622Y-54352457D02*
X127606241Y-54447695D01*
X127606241Y-54447695D02*
X127606241Y-54590552D01*
X127606241Y-54590552D02*
X127558622Y-54685790D01*
X127558622Y-54685790D02*
X127511003Y-54733409D01*
X127511003Y-54733409D02*
X127415765Y-54781028D01*
X127415765Y-54781028D02*
X127034813Y-54781028D01*
X128034813Y-54733409D02*
X128368146Y-54733409D01*
X128511003Y-55257219D02*
X128034813Y-55257219D01*
X128034813Y-55257219D02*
X128034813Y-54257219D01*
X128034813Y-54257219D02*
X128511003Y-54257219D01*
X128891956Y-55209600D02*
X129034813Y-55257219D01*
X129034813Y-55257219D02*
X129272908Y-55257219D01*
X129272908Y-55257219D02*
X129368146Y-55209600D01*
X129368146Y-55209600D02*
X129415765Y-55161980D01*
X129415765Y-55161980D02*
X129463384Y-55066742D01*
X129463384Y-55066742D02*
X129463384Y-54971504D01*
X129463384Y-54971504D02*
X129415765Y-54876266D01*
X129415765Y-54876266D02*
X129368146Y-54828647D01*
X129368146Y-54828647D02*
X129272908Y-54781028D01*
X129272908Y-54781028D02*
X129082432Y-54733409D01*
X129082432Y-54733409D02*
X128987194Y-54685790D01*
X128987194Y-54685790D02*
X128939575Y-54638171D01*
X128939575Y-54638171D02*
X128891956Y-54542933D01*
X128891956Y-54542933D02*
X128891956Y-54447695D01*
X128891956Y-54447695D02*
X128939575Y-54352457D01*
X128939575Y-54352457D02*
X128987194Y-54304838D01*
X128987194Y-54304838D02*
X129082432Y-54257219D01*
X129082432Y-54257219D02*
X129320527Y-54257219D01*
X129320527Y-54257219D02*
X129463384Y-54304838D01*
X129891956Y-54733409D02*
X130225289Y-54733409D01*
X130368146Y-55257219D02*
X129891956Y-55257219D01*
X129891956Y-55257219D02*
X129891956Y-54257219D01*
X129891956Y-54257219D02*
X130368146Y-54257219D01*
X130653861Y-54257219D02*
X131225289Y-54257219D01*
X130939575Y-55257219D02*
X130939575Y-54257219D01*
X60869673Y-96758409D02*
X61203006Y-96758409D01*
X61345863Y-97282219D02*
X60869673Y-97282219D01*
X60869673Y-97282219D02*
X60869673Y-96282219D01*
X60869673Y-96282219D02*
X61345863Y-96282219D01*
X61774435Y-97282219D02*
X61774435Y-96282219D01*
X61774435Y-96282219D02*
X62345863Y-97282219D01*
X62345863Y-97282219D02*
X62345863Y-96282219D01*
X62774435Y-97234600D02*
X62917292Y-97282219D01*
X62917292Y-97282219D02*
X63155387Y-97282219D01*
X63155387Y-97282219D02*
X63250625Y-97234600D01*
X63250625Y-97234600D02*
X63298244Y-97186980D01*
X63298244Y-97186980D02*
X63345863Y-97091742D01*
X63345863Y-97091742D02*
X63345863Y-96996504D01*
X63345863Y-96996504D02*
X63298244Y-96901266D01*
X63298244Y-96901266D02*
X63250625Y-96853647D01*
X63250625Y-96853647D02*
X63155387Y-96806028D01*
X63155387Y-96806028D02*
X62964911Y-96758409D01*
X62964911Y-96758409D02*
X62869673Y-96710790D01*
X62869673Y-96710790D02*
X62822054Y-96663171D01*
X62822054Y-96663171D02*
X62774435Y-96567933D01*
X62774435Y-96567933D02*
X62774435Y-96472695D01*
X62774435Y-96472695D02*
X62822054Y-96377457D01*
X62822054Y-96377457D02*
X62869673Y-96329838D01*
X62869673Y-96329838D02*
X62964911Y-96282219D01*
X62964911Y-96282219D02*
X63203006Y-96282219D01*
X63203006Y-96282219D02*
X63345863Y-96329838D01*
X63774435Y-96758409D02*
X64107768Y-96758409D01*
X64250625Y-97282219D02*
X63774435Y-97282219D01*
X63774435Y-97282219D02*
X63774435Y-96282219D01*
X63774435Y-96282219D02*
X64250625Y-96282219D01*
X64631578Y-96996504D02*
X65107768Y-96996504D01*
X64536340Y-97282219D02*
X64869673Y-96282219D01*
X64869673Y-96282219D02*
X65203006Y-97282219D01*
X136678006Y-71033409D02*
X136820863Y-71081028D01*
X136820863Y-71081028D02*
X136868482Y-71128647D01*
X136868482Y-71128647D02*
X136916101Y-71223885D01*
X136916101Y-71223885D02*
X136916101Y-71366742D01*
X136916101Y-71366742D02*
X136868482Y-71461980D01*
X136868482Y-71461980D02*
X136820863Y-71509600D01*
X136820863Y-71509600D02*
X136725625Y-71557219D01*
X136725625Y-71557219D02*
X136344673Y-71557219D01*
X136344673Y-71557219D02*
X136344673Y-70557219D01*
X136344673Y-70557219D02*
X136678006Y-70557219D01*
X136678006Y-70557219D02*
X136773244Y-70604838D01*
X136773244Y-70604838D02*
X136820863Y-70652457D01*
X136820863Y-70652457D02*
X136868482Y-70747695D01*
X136868482Y-70747695D02*
X136868482Y-70842933D01*
X136868482Y-70842933D02*
X136820863Y-70938171D01*
X136820863Y-70938171D02*
X136773244Y-70985790D01*
X136773244Y-70985790D02*
X136678006Y-71033409D01*
X136678006Y-71033409D02*
X136344673Y-71033409D01*
X137344673Y-70557219D02*
X137344673Y-71366742D01*
X137344673Y-71366742D02*
X137392292Y-71461980D01*
X137392292Y-71461980D02*
X137439911Y-71509600D01*
X137439911Y-71509600D02*
X137535149Y-71557219D01*
X137535149Y-71557219D02*
X137725625Y-71557219D01*
X137725625Y-71557219D02*
X137820863Y-71509600D01*
X137820863Y-71509600D02*
X137868482Y-71461980D01*
X137868482Y-71461980D02*
X137916101Y-71366742D01*
X137916101Y-71366742D02*
X137916101Y-70557219D01*
X138297054Y-70557219D02*
X138963720Y-70557219D01*
X138963720Y-70557219D02*
X138297054Y-71557219D01*
X138297054Y-71557219D02*
X138963720Y-71557219D01*
X139249435Y-70557219D02*
X139916101Y-70557219D01*
X139916101Y-70557219D02*
X139249435Y-71557219D01*
X139249435Y-71557219D02*
X139916101Y-71557219D01*
X140297054Y-71033409D02*
X140630387Y-71033409D01*
X140773244Y-71557219D02*
X140297054Y-71557219D01*
X140297054Y-71557219D02*
X140297054Y-70557219D01*
X140297054Y-70557219D02*
X140773244Y-70557219D01*
X141773244Y-71557219D02*
X141439911Y-71081028D01*
X141201816Y-71557219D02*
X141201816Y-70557219D01*
X141201816Y-70557219D02*
X141582768Y-70557219D01*
X141582768Y-70557219D02*
X141678006Y-70604838D01*
X141678006Y-70604838D02*
X141725625Y-70652457D01*
X141725625Y-70652457D02*
X141773244Y-70747695D01*
X141773244Y-70747695D02*
X141773244Y-70890552D01*
X141773244Y-70890552D02*
X141725625Y-70985790D01*
X141725625Y-70985790D02*
X141678006Y-71033409D01*
X141678006Y-71033409D02*
X141582768Y-71081028D01*
X141582768Y-71081028D02*
X141201816Y-71081028D01*
X111678006Y-54733409D02*
X111820863Y-54781028D01*
X111820863Y-54781028D02*
X111868482Y-54828647D01*
X111868482Y-54828647D02*
X111916101Y-54923885D01*
X111916101Y-54923885D02*
X111916101Y-55066742D01*
X111916101Y-55066742D02*
X111868482Y-55161980D01*
X111868482Y-55161980D02*
X111820863Y-55209600D01*
X111820863Y-55209600D02*
X111725625Y-55257219D01*
X111725625Y-55257219D02*
X111344673Y-55257219D01*
X111344673Y-55257219D02*
X111344673Y-54257219D01*
X111344673Y-54257219D02*
X111678006Y-54257219D01*
X111678006Y-54257219D02*
X111773244Y-54304838D01*
X111773244Y-54304838D02*
X111820863Y-54352457D01*
X111820863Y-54352457D02*
X111868482Y-54447695D01*
X111868482Y-54447695D02*
X111868482Y-54542933D01*
X111868482Y-54542933D02*
X111820863Y-54638171D01*
X111820863Y-54638171D02*
X111773244Y-54685790D01*
X111773244Y-54685790D02*
X111678006Y-54733409D01*
X111678006Y-54733409D02*
X111344673Y-54733409D01*
X112535149Y-54257219D02*
X112725625Y-54257219D01*
X112725625Y-54257219D02*
X112820863Y-54304838D01*
X112820863Y-54304838D02*
X112916101Y-54400076D01*
X112916101Y-54400076D02*
X112963720Y-54590552D01*
X112963720Y-54590552D02*
X112963720Y-54923885D01*
X112963720Y-54923885D02*
X112916101Y-55114361D01*
X112916101Y-55114361D02*
X112820863Y-55209600D01*
X112820863Y-55209600D02*
X112725625Y-55257219D01*
X112725625Y-55257219D02*
X112535149Y-55257219D01*
X112535149Y-55257219D02*
X112439911Y-55209600D01*
X112439911Y-55209600D02*
X112344673Y-55114361D01*
X112344673Y-55114361D02*
X112297054Y-54923885D01*
X112297054Y-54923885D02*
X112297054Y-54590552D01*
X112297054Y-54590552D02*
X112344673Y-54400076D01*
X112344673Y-54400076D02*
X112439911Y-54304838D01*
X112439911Y-54304838D02*
X112535149Y-54257219D01*
X113582768Y-54257219D02*
X113773244Y-54257219D01*
X113773244Y-54257219D02*
X113868482Y-54304838D01*
X113868482Y-54304838D02*
X113963720Y-54400076D01*
X113963720Y-54400076D02*
X114011339Y-54590552D01*
X114011339Y-54590552D02*
X114011339Y-54923885D01*
X114011339Y-54923885D02*
X113963720Y-55114361D01*
X113963720Y-55114361D02*
X113868482Y-55209600D01*
X113868482Y-55209600D02*
X113773244Y-55257219D01*
X113773244Y-55257219D02*
X113582768Y-55257219D01*
X113582768Y-55257219D02*
X113487530Y-55209600D01*
X113487530Y-55209600D02*
X113392292Y-55114361D01*
X113392292Y-55114361D02*
X113344673Y-54923885D01*
X113344673Y-54923885D02*
X113344673Y-54590552D01*
X113344673Y-54590552D02*
X113392292Y-54400076D01*
X113392292Y-54400076D02*
X113487530Y-54304838D01*
X113487530Y-54304838D02*
X113582768Y-54257219D01*
X114297054Y-54257219D02*
X114868482Y-54257219D01*
X114582768Y-55257219D02*
X114582768Y-54257219D01*
X115392292Y-54257219D02*
X115487530Y-54257219D01*
X115487530Y-54257219D02*
X115582768Y-54304838D01*
X115582768Y-54304838D02*
X115630387Y-54352457D01*
X115630387Y-54352457D02*
X115678006Y-54447695D01*
X115678006Y-54447695D02*
X115725625Y-54638171D01*
X115725625Y-54638171D02*
X115725625Y-54876266D01*
X115725625Y-54876266D02*
X115678006Y-55066742D01*
X115678006Y-55066742D02*
X115630387Y-55161980D01*
X115630387Y-55161980D02*
X115582768Y-55209600D01*
X115582768Y-55209600D02*
X115487530Y-55257219D01*
X115487530Y-55257219D02*
X115392292Y-55257219D01*
X115392292Y-55257219D02*
X115297054Y-55209600D01*
X115297054Y-55209600D02*
X115249435Y-55161980D01*
X115249435Y-55161980D02*
X115201816Y-55066742D01*
X115201816Y-55066742D02*
X115154197Y-54876266D01*
X115154197Y-54876266D02*
X115154197Y-54638171D01*
X115154197Y-54638171D02*
X115201816Y-54447695D01*
X115201816Y-54447695D02*
X115249435Y-54352457D01*
X115249435Y-54352457D02*
X115297054Y-54304838D01*
X115297054Y-54304838D02*
X115392292Y-54257219D01*
X62666101Y-92082219D02*
X62332768Y-91606028D01*
X62094673Y-92082219D02*
X62094673Y-91082219D01*
X62094673Y-91082219D02*
X62475625Y-91082219D01*
X62475625Y-91082219D02*
X62570863Y-91129838D01*
X62570863Y-91129838D02*
X62618482Y-91177457D01*
X62618482Y-91177457D02*
X62666101Y-91272695D01*
X62666101Y-91272695D02*
X62666101Y-91415552D01*
X62666101Y-91415552D02*
X62618482Y-91510790D01*
X62618482Y-91510790D02*
X62570863Y-91558409D01*
X62570863Y-91558409D02*
X62475625Y-91606028D01*
X62475625Y-91606028D02*
X62094673Y-91606028D01*
X63428006Y-91558409D02*
X63094673Y-91558409D01*
X63094673Y-92082219D02*
X63094673Y-91082219D01*
X63094673Y-91082219D02*
X63570863Y-91082219D01*
X63951816Y-92082219D02*
X63951816Y-91082219D01*
X64428006Y-92082219D02*
X64428006Y-91082219D01*
X64428006Y-91082219D02*
X64666101Y-91082219D01*
X64666101Y-91082219D02*
X64808958Y-91129838D01*
X64808958Y-91129838D02*
X64904196Y-91225076D01*
X64904196Y-91225076D02*
X64951815Y-91320314D01*
X64951815Y-91320314D02*
X64999434Y-91510790D01*
X64999434Y-91510790D02*
X64999434Y-91653647D01*
X64999434Y-91653647D02*
X64951815Y-91844123D01*
X64951815Y-91844123D02*
X64904196Y-91939361D01*
X64904196Y-91939361D02*
X64808958Y-92034600D01*
X64808958Y-92034600D02*
X64666101Y-92082219D01*
X64666101Y-92082219D02*
X64428006Y-92082219D01*
X66761339Y-92082219D02*
X66428006Y-91606028D01*
X66189911Y-92082219D02*
X66189911Y-91082219D01*
X66189911Y-91082219D02*
X66570863Y-91082219D01*
X66570863Y-91082219D02*
X66666101Y-91129838D01*
X66666101Y-91129838D02*
X66713720Y-91177457D01*
X66713720Y-91177457D02*
X66761339Y-91272695D01*
X66761339Y-91272695D02*
X66761339Y-91415552D01*
X66761339Y-91415552D02*
X66713720Y-91510790D01*
X66713720Y-91510790D02*
X66666101Y-91558409D01*
X66666101Y-91558409D02*
X66570863Y-91606028D01*
X66570863Y-91606028D02*
X66189911Y-91606028D01*
X67189911Y-91558409D02*
X67523244Y-91558409D01*
X67666101Y-92082219D02*
X67189911Y-92082219D01*
X67189911Y-92082219D02*
X67189911Y-91082219D01*
X67189911Y-91082219D02*
X67666101Y-91082219D01*
X68047054Y-91796504D02*
X68523244Y-91796504D01*
X67951816Y-92082219D02*
X68285149Y-91082219D01*
X68285149Y-91082219D02*
X68618482Y-92082219D01*
X68951816Y-92082219D02*
X68951816Y-91082219D01*
X68951816Y-91082219D02*
X69189911Y-91082219D01*
X69189911Y-91082219D02*
X69332768Y-91129838D01*
X69332768Y-91129838D02*
X69428006Y-91225076D01*
X69428006Y-91225076D02*
X69475625Y-91320314D01*
X69475625Y-91320314D02*
X69523244Y-91510790D01*
X69523244Y-91510790D02*
X69523244Y-91653647D01*
X69523244Y-91653647D02*
X69475625Y-91844123D01*
X69475625Y-91844123D02*
X69428006Y-91939361D01*
X69428006Y-91939361D02*
X69332768Y-92034600D01*
X69332768Y-92034600D02*
X69189911Y-92082219D01*
X69189911Y-92082219D02*
X68951816Y-92082219D01*
X69951816Y-91558409D02*
X70285149Y-91558409D01*
X70428006Y-92082219D02*
X69951816Y-92082219D01*
X69951816Y-92082219D02*
X69951816Y-91082219D01*
X69951816Y-91082219D02*
X70428006Y-91082219D01*
X71428006Y-92082219D02*
X71094673Y-91606028D01*
X70856578Y-92082219D02*
X70856578Y-91082219D01*
X70856578Y-91082219D02*
X71237530Y-91082219D01*
X71237530Y-91082219D02*
X71332768Y-91129838D01*
X71332768Y-91129838D02*
X71380387Y-91177457D01*
X71380387Y-91177457D02*
X71428006Y-91272695D01*
X71428006Y-91272695D02*
X71428006Y-91415552D01*
X71428006Y-91415552D02*
X71380387Y-91510790D01*
X71380387Y-91510790D02*
X71332768Y-91558409D01*
X71332768Y-91558409D02*
X71237530Y-91606028D01*
X71237530Y-91606028D02*
X70856578Y-91606028D01*
X135844673Y-74557219D02*
X135844673Y-75366742D01*
X135844673Y-75366742D02*
X135892292Y-75461980D01*
X135892292Y-75461980D02*
X135939911Y-75509600D01*
X135939911Y-75509600D02*
X136035149Y-75557219D01*
X136035149Y-75557219D02*
X136225625Y-75557219D01*
X136225625Y-75557219D02*
X136320863Y-75509600D01*
X136320863Y-75509600D02*
X136368482Y-75461980D01*
X136368482Y-75461980D02*
X136416101Y-75366742D01*
X136416101Y-75366742D02*
X136416101Y-74557219D01*
X136844673Y-75509600D02*
X136987530Y-75557219D01*
X136987530Y-75557219D02*
X137225625Y-75557219D01*
X137225625Y-75557219D02*
X137320863Y-75509600D01*
X137320863Y-75509600D02*
X137368482Y-75461980D01*
X137368482Y-75461980D02*
X137416101Y-75366742D01*
X137416101Y-75366742D02*
X137416101Y-75271504D01*
X137416101Y-75271504D02*
X137368482Y-75176266D01*
X137368482Y-75176266D02*
X137320863Y-75128647D01*
X137320863Y-75128647D02*
X137225625Y-75081028D01*
X137225625Y-75081028D02*
X137035149Y-75033409D01*
X137035149Y-75033409D02*
X136939911Y-74985790D01*
X136939911Y-74985790D02*
X136892292Y-74938171D01*
X136892292Y-74938171D02*
X136844673Y-74842933D01*
X136844673Y-74842933D02*
X136844673Y-74747695D01*
X136844673Y-74747695D02*
X136892292Y-74652457D01*
X136892292Y-74652457D02*
X136939911Y-74604838D01*
X136939911Y-74604838D02*
X137035149Y-74557219D01*
X137035149Y-74557219D02*
X137273244Y-74557219D01*
X137273244Y-74557219D02*
X137416101Y-74604838D01*
X137844673Y-75033409D02*
X138178006Y-75033409D01*
X138320863Y-75557219D02*
X137844673Y-75557219D01*
X137844673Y-75557219D02*
X137844673Y-74557219D01*
X137844673Y-74557219D02*
X138320863Y-74557219D01*
X139320863Y-75557219D02*
X138987530Y-75081028D01*
X138749435Y-75557219D02*
X138749435Y-74557219D01*
X138749435Y-74557219D02*
X139130387Y-74557219D01*
X139130387Y-74557219D02*
X139225625Y-74604838D01*
X139225625Y-74604838D02*
X139273244Y-74652457D01*
X139273244Y-74652457D02*
X139320863Y-74747695D01*
X139320863Y-74747695D02*
X139320863Y-74890552D01*
X139320863Y-74890552D02*
X139273244Y-74985790D01*
X139273244Y-74985790D02*
X139225625Y-75033409D01*
X139225625Y-75033409D02*
X139130387Y-75081028D01*
X139130387Y-75081028D02*
X138749435Y-75081028D01*
X140987530Y-75557219D02*
X140511340Y-75557219D01*
X140511340Y-75557219D02*
X140511340Y-74557219D01*
X141320864Y-75033409D02*
X141654197Y-75033409D01*
X141797054Y-75557219D02*
X141320864Y-75557219D01*
X141320864Y-75557219D02*
X141320864Y-74557219D01*
X141320864Y-74557219D02*
X141797054Y-74557219D01*
X142225626Y-75557219D02*
X142225626Y-74557219D01*
X142225626Y-74557219D02*
X142463721Y-74557219D01*
X142463721Y-74557219D02*
X142606578Y-74604838D01*
X142606578Y-74604838D02*
X142701816Y-74700076D01*
X142701816Y-74700076D02*
X142749435Y-74795314D01*
X142749435Y-74795314D02*
X142797054Y-74985790D01*
X142797054Y-74985790D02*
X142797054Y-75128647D01*
X142797054Y-75128647D02*
X142749435Y-75319123D01*
X142749435Y-75319123D02*
X142701816Y-75414361D01*
X142701816Y-75414361D02*
X142606578Y-75509600D01*
X142606578Y-75509600D02*
X142463721Y-75557219D01*
X142463721Y-75557219D02*
X142225626Y-75557219D01*
D11*
X70738095Y-85407200D02*
X70880952Y-85454819D01*
X70880952Y-85454819D02*
X71119047Y-85454819D01*
X71119047Y-85454819D02*
X71214285Y-85407200D01*
X71214285Y-85407200D02*
X71261904Y-85359580D01*
X71261904Y-85359580D02*
X71309523Y-85264342D01*
X71309523Y-85264342D02*
X71309523Y-85169104D01*
X71309523Y-85169104D02*
X71261904Y-85073866D01*
X71261904Y-85073866D02*
X71214285Y-85026247D01*
X71214285Y-85026247D02*
X71119047Y-84978628D01*
X71119047Y-84978628D02*
X70928571Y-84931009D01*
X70928571Y-84931009D02*
X70833333Y-84883390D01*
X70833333Y-84883390D02*
X70785714Y-84835771D01*
X70785714Y-84835771D02*
X70738095Y-84740533D01*
X70738095Y-84740533D02*
X70738095Y-84645295D01*
X70738095Y-84645295D02*
X70785714Y-84550057D01*
X70785714Y-84550057D02*
X70833333Y-84502438D01*
X70833333Y-84502438D02*
X70928571Y-84454819D01*
X70928571Y-84454819D02*
X71166666Y-84454819D01*
X71166666Y-84454819D02*
X71309523Y-84502438D01*
X71738095Y-85454819D02*
X71738095Y-84454819D01*
X71738095Y-84454819D02*
X72119047Y-84454819D01*
X72119047Y-84454819D02*
X72214285Y-84502438D01*
X72214285Y-84502438D02*
X72261904Y-84550057D01*
X72261904Y-84550057D02*
X72309523Y-84645295D01*
X72309523Y-84645295D02*
X72309523Y-84788152D01*
X72309523Y-84788152D02*
X72261904Y-84883390D01*
X72261904Y-84883390D02*
X72214285Y-84931009D01*
X72214285Y-84931009D02*
X72119047Y-84978628D01*
X72119047Y-84978628D02*
X71738095Y-84978628D01*
X72738095Y-85454819D02*
X72738095Y-84454819D01*
X72976190Y-85550057D02*
X73738094Y-85550057D01*
X74547618Y-85359580D02*
X74499999Y-85407200D01*
X74499999Y-85407200D02*
X74357142Y-85454819D01*
X74357142Y-85454819D02*
X74261904Y-85454819D01*
X74261904Y-85454819D02*
X74119047Y-85407200D01*
X74119047Y-85407200D02*
X74023809Y-85311961D01*
X74023809Y-85311961D02*
X73976190Y-85216723D01*
X73976190Y-85216723D02*
X73928571Y-85026247D01*
X73928571Y-85026247D02*
X73928571Y-84883390D01*
X73928571Y-84883390D02*
X73976190Y-84692914D01*
X73976190Y-84692914D02*
X74023809Y-84597676D01*
X74023809Y-84597676D02*
X74119047Y-84502438D01*
X74119047Y-84502438D02*
X74261904Y-84454819D01*
X74261904Y-84454819D02*
X74357142Y-84454819D01*
X74357142Y-84454819D02*
X74499999Y-84502438D01*
X74499999Y-84502438D02*
X74547618Y-84550057D01*
X74976190Y-84931009D02*
X75309523Y-84931009D01*
X75452380Y-85454819D02*
X74976190Y-85454819D01*
X74976190Y-85454819D02*
X74976190Y-84454819D01*
X74976190Y-84454819D02*
X75452380Y-84454819D01*
X75642857Y-85550057D02*
X76404761Y-85550057D01*
X76642857Y-85454819D02*
X76642857Y-84454819D01*
X76642857Y-84454819D02*
X77214285Y-85454819D01*
X77214285Y-85454819D02*
X77214285Y-84454819D01*
X71440476Y-82907200D02*
X71583333Y-82954819D01*
X71583333Y-82954819D02*
X71821428Y-82954819D01*
X71821428Y-82954819D02*
X71916666Y-82907200D01*
X71916666Y-82907200D02*
X71964285Y-82859580D01*
X71964285Y-82859580D02*
X72011904Y-82764342D01*
X72011904Y-82764342D02*
X72011904Y-82669104D01*
X72011904Y-82669104D02*
X71964285Y-82573866D01*
X71964285Y-82573866D02*
X71916666Y-82526247D01*
X71916666Y-82526247D02*
X71821428Y-82478628D01*
X71821428Y-82478628D02*
X71630952Y-82431009D01*
X71630952Y-82431009D02*
X71535714Y-82383390D01*
X71535714Y-82383390D02*
X71488095Y-82335771D01*
X71488095Y-82335771D02*
X71440476Y-82240533D01*
X71440476Y-82240533D02*
X71440476Y-82145295D01*
X71440476Y-82145295D02*
X71488095Y-82050057D01*
X71488095Y-82050057D02*
X71535714Y-82002438D01*
X71535714Y-82002438D02*
X71630952Y-81954819D01*
X71630952Y-81954819D02*
X71869047Y-81954819D01*
X71869047Y-81954819D02*
X72011904Y-82002438D01*
X72440476Y-82954819D02*
X72440476Y-81954819D01*
X72440476Y-81954819D02*
X72821428Y-81954819D01*
X72821428Y-81954819D02*
X72916666Y-82002438D01*
X72916666Y-82002438D02*
X72964285Y-82050057D01*
X72964285Y-82050057D02*
X73011904Y-82145295D01*
X73011904Y-82145295D02*
X73011904Y-82288152D01*
X73011904Y-82288152D02*
X72964285Y-82383390D01*
X72964285Y-82383390D02*
X72916666Y-82431009D01*
X72916666Y-82431009D02*
X72821428Y-82478628D01*
X72821428Y-82478628D02*
X72440476Y-82478628D01*
X73440476Y-82954819D02*
X73440476Y-81954819D01*
X73678571Y-83050057D02*
X74440475Y-83050057D01*
X75249999Y-82859580D02*
X75202380Y-82907200D01*
X75202380Y-82907200D02*
X75059523Y-82954819D01*
X75059523Y-82954819D02*
X74964285Y-82954819D01*
X74964285Y-82954819D02*
X74821428Y-82907200D01*
X74821428Y-82907200D02*
X74726190Y-82811961D01*
X74726190Y-82811961D02*
X74678571Y-82716723D01*
X74678571Y-82716723D02*
X74630952Y-82526247D01*
X74630952Y-82526247D02*
X74630952Y-82383390D01*
X74630952Y-82383390D02*
X74678571Y-82192914D01*
X74678571Y-82192914D02*
X74726190Y-82097676D01*
X74726190Y-82097676D02*
X74821428Y-82002438D01*
X74821428Y-82002438D02*
X74964285Y-81954819D01*
X74964285Y-81954819D02*
X75059523Y-81954819D01*
X75059523Y-81954819D02*
X75202380Y-82002438D01*
X75202380Y-82002438D02*
X75249999Y-82050057D01*
X76154761Y-82954819D02*
X75678571Y-82954819D01*
X75678571Y-82954819D02*
X75678571Y-81954819D01*
X76488095Y-82954819D02*
X76488095Y-81954819D01*
X77059523Y-82954819D02*
X76630952Y-82383390D01*
X77059523Y-81954819D02*
X76488095Y-82526247D01*
X70785715Y-80407200D02*
X70928572Y-80454819D01*
X70928572Y-80454819D02*
X71166667Y-80454819D01*
X71166667Y-80454819D02*
X71261905Y-80407200D01*
X71261905Y-80407200D02*
X71309524Y-80359580D01*
X71309524Y-80359580D02*
X71357143Y-80264342D01*
X71357143Y-80264342D02*
X71357143Y-80169104D01*
X71357143Y-80169104D02*
X71309524Y-80073866D01*
X71309524Y-80073866D02*
X71261905Y-80026247D01*
X71261905Y-80026247D02*
X71166667Y-79978628D01*
X71166667Y-79978628D02*
X70976191Y-79931009D01*
X70976191Y-79931009D02*
X70880953Y-79883390D01*
X70880953Y-79883390D02*
X70833334Y-79835771D01*
X70833334Y-79835771D02*
X70785715Y-79740533D01*
X70785715Y-79740533D02*
X70785715Y-79645295D01*
X70785715Y-79645295D02*
X70833334Y-79550057D01*
X70833334Y-79550057D02*
X70880953Y-79502438D01*
X70880953Y-79502438D02*
X70976191Y-79454819D01*
X70976191Y-79454819D02*
X71214286Y-79454819D01*
X71214286Y-79454819D02*
X71357143Y-79502438D01*
X71785715Y-80454819D02*
X71785715Y-79454819D01*
X71785715Y-79454819D02*
X72166667Y-79454819D01*
X72166667Y-79454819D02*
X72261905Y-79502438D01*
X72261905Y-79502438D02*
X72309524Y-79550057D01*
X72309524Y-79550057D02*
X72357143Y-79645295D01*
X72357143Y-79645295D02*
X72357143Y-79788152D01*
X72357143Y-79788152D02*
X72309524Y-79883390D01*
X72309524Y-79883390D02*
X72261905Y-79931009D01*
X72261905Y-79931009D02*
X72166667Y-79978628D01*
X72166667Y-79978628D02*
X71785715Y-79978628D01*
X72785715Y-80454819D02*
X72785715Y-79454819D01*
X73023810Y-80550057D02*
X73785714Y-80550057D01*
X74023810Y-80454819D02*
X74023810Y-79454819D01*
X74023810Y-79454819D02*
X74357143Y-80169104D01*
X74357143Y-80169104D02*
X74690476Y-79454819D01*
X74690476Y-79454819D02*
X74690476Y-80454819D01*
X75357143Y-79454819D02*
X75547619Y-79454819D01*
X75547619Y-79454819D02*
X75642857Y-79502438D01*
X75642857Y-79502438D02*
X75738095Y-79597676D01*
X75738095Y-79597676D02*
X75785714Y-79788152D01*
X75785714Y-79788152D02*
X75785714Y-80121485D01*
X75785714Y-80121485D02*
X75738095Y-80311961D01*
X75738095Y-80311961D02*
X75642857Y-80407200D01*
X75642857Y-80407200D02*
X75547619Y-80454819D01*
X75547619Y-80454819D02*
X75357143Y-80454819D01*
X75357143Y-80454819D02*
X75261905Y-80407200D01*
X75261905Y-80407200D02*
X75166667Y-80311961D01*
X75166667Y-80311961D02*
X75119048Y-80121485D01*
X75119048Y-80121485D02*
X75119048Y-79788152D01*
X75119048Y-79788152D02*
X75166667Y-79597676D01*
X75166667Y-79597676D02*
X75261905Y-79502438D01*
X75261905Y-79502438D02*
X75357143Y-79454819D01*
X76166667Y-80407200D02*
X76309524Y-80454819D01*
X76309524Y-80454819D02*
X76547619Y-80454819D01*
X76547619Y-80454819D02*
X76642857Y-80407200D01*
X76642857Y-80407200D02*
X76690476Y-80359580D01*
X76690476Y-80359580D02*
X76738095Y-80264342D01*
X76738095Y-80264342D02*
X76738095Y-80169104D01*
X76738095Y-80169104D02*
X76690476Y-80073866D01*
X76690476Y-80073866D02*
X76642857Y-80026247D01*
X76642857Y-80026247D02*
X76547619Y-79978628D01*
X76547619Y-79978628D02*
X76357143Y-79931009D01*
X76357143Y-79931009D02*
X76261905Y-79883390D01*
X76261905Y-79883390D02*
X76214286Y-79835771D01*
X76214286Y-79835771D02*
X76166667Y-79740533D01*
X76166667Y-79740533D02*
X76166667Y-79645295D01*
X76166667Y-79645295D02*
X76214286Y-79550057D01*
X76214286Y-79550057D02*
X76261905Y-79502438D01*
X76261905Y-79502438D02*
X76357143Y-79454819D01*
X76357143Y-79454819D02*
X76595238Y-79454819D01*
X76595238Y-79454819D02*
X76738095Y-79502438D01*
X77166667Y-80454819D02*
X77166667Y-79454819D01*
X70785715Y-77907200D02*
X70928572Y-77954819D01*
X70928572Y-77954819D02*
X71166667Y-77954819D01*
X71166667Y-77954819D02*
X71261905Y-77907200D01*
X71261905Y-77907200D02*
X71309524Y-77859580D01*
X71309524Y-77859580D02*
X71357143Y-77764342D01*
X71357143Y-77764342D02*
X71357143Y-77669104D01*
X71357143Y-77669104D02*
X71309524Y-77573866D01*
X71309524Y-77573866D02*
X71261905Y-77526247D01*
X71261905Y-77526247D02*
X71166667Y-77478628D01*
X71166667Y-77478628D02*
X70976191Y-77431009D01*
X70976191Y-77431009D02*
X70880953Y-77383390D01*
X70880953Y-77383390D02*
X70833334Y-77335771D01*
X70833334Y-77335771D02*
X70785715Y-77240533D01*
X70785715Y-77240533D02*
X70785715Y-77145295D01*
X70785715Y-77145295D02*
X70833334Y-77050057D01*
X70833334Y-77050057D02*
X70880953Y-77002438D01*
X70880953Y-77002438D02*
X70976191Y-76954819D01*
X70976191Y-76954819D02*
X71214286Y-76954819D01*
X71214286Y-76954819D02*
X71357143Y-77002438D01*
X71785715Y-77954819D02*
X71785715Y-76954819D01*
X71785715Y-76954819D02*
X72166667Y-76954819D01*
X72166667Y-76954819D02*
X72261905Y-77002438D01*
X72261905Y-77002438D02*
X72309524Y-77050057D01*
X72309524Y-77050057D02*
X72357143Y-77145295D01*
X72357143Y-77145295D02*
X72357143Y-77288152D01*
X72357143Y-77288152D02*
X72309524Y-77383390D01*
X72309524Y-77383390D02*
X72261905Y-77431009D01*
X72261905Y-77431009D02*
X72166667Y-77478628D01*
X72166667Y-77478628D02*
X71785715Y-77478628D01*
X72785715Y-77954819D02*
X72785715Y-76954819D01*
X73023810Y-78050057D02*
X73785714Y-78050057D01*
X74023810Y-77954819D02*
X74023810Y-76954819D01*
X74023810Y-76954819D02*
X74357143Y-77669104D01*
X74357143Y-77669104D02*
X74690476Y-76954819D01*
X74690476Y-76954819D02*
X74690476Y-77954819D01*
X75166667Y-77954819D02*
X75166667Y-76954819D01*
X75595238Y-77907200D02*
X75738095Y-77954819D01*
X75738095Y-77954819D02*
X75976190Y-77954819D01*
X75976190Y-77954819D02*
X76071428Y-77907200D01*
X76071428Y-77907200D02*
X76119047Y-77859580D01*
X76119047Y-77859580D02*
X76166666Y-77764342D01*
X76166666Y-77764342D02*
X76166666Y-77669104D01*
X76166666Y-77669104D02*
X76119047Y-77573866D01*
X76119047Y-77573866D02*
X76071428Y-77526247D01*
X76071428Y-77526247D02*
X75976190Y-77478628D01*
X75976190Y-77478628D02*
X75785714Y-77431009D01*
X75785714Y-77431009D02*
X75690476Y-77383390D01*
X75690476Y-77383390D02*
X75642857Y-77335771D01*
X75642857Y-77335771D02*
X75595238Y-77240533D01*
X75595238Y-77240533D02*
X75595238Y-77145295D01*
X75595238Y-77145295D02*
X75642857Y-77050057D01*
X75642857Y-77050057D02*
X75690476Y-77002438D01*
X75690476Y-77002438D02*
X75785714Y-76954819D01*
X75785714Y-76954819D02*
X76023809Y-76954819D01*
X76023809Y-76954819D02*
X76166666Y-77002438D01*
X76785714Y-76954819D02*
X76976190Y-76954819D01*
X76976190Y-76954819D02*
X77071428Y-77002438D01*
X77071428Y-77002438D02*
X77166666Y-77097676D01*
X77166666Y-77097676D02*
X77214285Y-77288152D01*
X77214285Y-77288152D02*
X77214285Y-77621485D01*
X77214285Y-77621485D02*
X77166666Y-77811961D01*
X77166666Y-77811961D02*
X77071428Y-77907200D01*
X77071428Y-77907200D02*
X76976190Y-77954819D01*
X76976190Y-77954819D02*
X76785714Y-77954819D01*
X76785714Y-77954819D02*
X76690476Y-77907200D01*
X76690476Y-77907200D02*
X76595238Y-77811961D01*
X76595238Y-77811961D02*
X76547619Y-77621485D01*
X76547619Y-77621485D02*
X76547619Y-77288152D01*
X76547619Y-77288152D02*
X76595238Y-77097676D01*
X76595238Y-77097676D02*
X76690476Y-77002438D01*
X76690476Y-77002438D02*
X76785714Y-76954819D01*
X71564285Y-75362295D02*
X71297618Y-74981342D01*
X71107142Y-75362295D02*
X71107142Y-74562295D01*
X71107142Y-74562295D02*
X71411904Y-74562295D01*
X71411904Y-74562295D02*
X71488094Y-74600390D01*
X71488094Y-74600390D02*
X71526189Y-74638485D01*
X71526189Y-74638485D02*
X71564285Y-74714676D01*
X71564285Y-74714676D02*
X71564285Y-74828961D01*
X71564285Y-74828961D02*
X71526189Y-74905152D01*
X71526189Y-74905152D02*
X71488094Y-74943247D01*
X71488094Y-74943247D02*
X71411904Y-74981342D01*
X71411904Y-74981342D02*
X71107142Y-74981342D01*
X72364285Y-75286104D02*
X72326189Y-75324200D01*
X72326189Y-75324200D02*
X72211904Y-75362295D01*
X72211904Y-75362295D02*
X72135713Y-75362295D01*
X72135713Y-75362295D02*
X72021427Y-75324200D01*
X72021427Y-75324200D02*
X71945237Y-75248009D01*
X71945237Y-75248009D02*
X71907142Y-75171819D01*
X71907142Y-75171819D02*
X71869046Y-75019438D01*
X71869046Y-75019438D02*
X71869046Y-74905152D01*
X71869046Y-74905152D02*
X71907142Y-74752771D01*
X71907142Y-74752771D02*
X71945237Y-74676580D01*
X71945237Y-74676580D02*
X72021427Y-74600390D01*
X72021427Y-74600390D02*
X72135713Y-74562295D01*
X72135713Y-74562295D02*
X72211904Y-74562295D01*
X72211904Y-74562295D02*
X72326189Y-74600390D01*
X72326189Y-74600390D02*
X72364285Y-74638485D01*
X73088094Y-74562295D02*
X72707142Y-74562295D01*
X72707142Y-74562295D02*
X72669046Y-74943247D01*
X72669046Y-74943247D02*
X72707142Y-74905152D01*
X72707142Y-74905152D02*
X72783332Y-74867057D01*
X72783332Y-74867057D02*
X72973808Y-74867057D01*
X72973808Y-74867057D02*
X73049999Y-74905152D01*
X73049999Y-74905152D02*
X73088094Y-74943247D01*
X73088094Y-74943247D02*
X73126189Y-75019438D01*
X73126189Y-75019438D02*
X73126189Y-75209914D01*
X73126189Y-75209914D02*
X73088094Y-75286104D01*
X73088094Y-75286104D02*
X73049999Y-75324200D01*
X73049999Y-75324200D02*
X72973808Y-75362295D01*
X72973808Y-75362295D02*
X72783332Y-75362295D01*
X72783332Y-75362295D02*
X72707142Y-75324200D01*
X72707142Y-75324200D02*
X72669046Y-75286104D01*
X73430951Y-74638485D02*
X73469047Y-74600390D01*
X73469047Y-74600390D02*
X73545237Y-74562295D01*
X73545237Y-74562295D02*
X73735713Y-74562295D01*
X73735713Y-74562295D02*
X73811904Y-74600390D01*
X73811904Y-74600390D02*
X73849999Y-74638485D01*
X73849999Y-74638485D02*
X73888094Y-74714676D01*
X73888094Y-74714676D02*
X73888094Y-74790866D01*
X73888094Y-74790866D02*
X73849999Y-74905152D01*
X73849999Y-74905152D02*
X73392856Y-75362295D01*
X73392856Y-75362295D02*
X73888094Y-75362295D01*
X74192856Y-74638485D02*
X74230952Y-74600390D01*
X74230952Y-74600390D02*
X74307142Y-74562295D01*
X74307142Y-74562295D02*
X74497618Y-74562295D01*
X74497618Y-74562295D02*
X74573809Y-74600390D01*
X74573809Y-74600390D02*
X74611904Y-74638485D01*
X74611904Y-74638485D02*
X74649999Y-74714676D01*
X74649999Y-74714676D02*
X74649999Y-74790866D01*
X74649999Y-74790866D02*
X74611904Y-74905152D01*
X74611904Y-74905152D02*
X74154761Y-75362295D01*
X74154761Y-75362295D02*
X74649999Y-75362295D01*
X74802381Y-75438485D02*
X75411904Y-75438485D01*
X76059524Y-75362295D02*
X75792857Y-74981342D01*
X75602381Y-75362295D02*
X75602381Y-74562295D01*
X75602381Y-74562295D02*
X75907143Y-74562295D01*
X75907143Y-74562295D02*
X75983333Y-74600390D01*
X75983333Y-74600390D02*
X76021428Y-74638485D01*
X76021428Y-74638485D02*
X76059524Y-74714676D01*
X76059524Y-74714676D02*
X76059524Y-74828961D01*
X76059524Y-74828961D02*
X76021428Y-74905152D01*
X76021428Y-74905152D02*
X75983333Y-74943247D01*
X75983333Y-74943247D02*
X75907143Y-74981342D01*
X75907143Y-74981342D02*
X75602381Y-74981342D01*
X76364285Y-75324200D02*
X76478571Y-75362295D01*
X76478571Y-75362295D02*
X76669047Y-75362295D01*
X76669047Y-75362295D02*
X76745238Y-75324200D01*
X76745238Y-75324200D02*
X76783333Y-75286104D01*
X76783333Y-75286104D02*
X76821428Y-75209914D01*
X76821428Y-75209914D02*
X76821428Y-75133723D01*
X76821428Y-75133723D02*
X76783333Y-75057533D01*
X76783333Y-75057533D02*
X76745238Y-75019438D01*
X76745238Y-75019438D02*
X76669047Y-74981342D01*
X76669047Y-74981342D02*
X76516666Y-74943247D01*
X76516666Y-74943247D02*
X76440476Y-74905152D01*
X76440476Y-74905152D02*
X76402381Y-74867057D01*
X76402381Y-74867057D02*
X76364285Y-74790866D01*
X76364285Y-74790866D02*
X76364285Y-74714676D01*
X76364285Y-74714676D02*
X76402381Y-74638485D01*
X76402381Y-74638485D02*
X76440476Y-74600390D01*
X76440476Y-74600390D02*
X76516666Y-74562295D01*
X76516666Y-74562295D02*
X76707143Y-74562295D01*
X76707143Y-74562295D02*
X76821428Y-74600390D01*
X77050000Y-74562295D02*
X77507143Y-74562295D01*
X77278571Y-75362295D02*
X77278571Y-74562295D01*
X109345238Y-66431009D02*
X109488095Y-66478628D01*
X109488095Y-66478628D02*
X109535714Y-66526247D01*
X109535714Y-66526247D02*
X109583333Y-66621485D01*
X109583333Y-66621485D02*
X109583333Y-66764342D01*
X109583333Y-66764342D02*
X109535714Y-66859580D01*
X109535714Y-66859580D02*
X109488095Y-66907200D01*
X109488095Y-66907200D02*
X109392857Y-66954819D01*
X109392857Y-66954819D02*
X109011905Y-66954819D01*
X109011905Y-66954819D02*
X109011905Y-65954819D01*
X109011905Y-65954819D02*
X109345238Y-65954819D01*
X109345238Y-65954819D02*
X109440476Y-66002438D01*
X109440476Y-66002438D02*
X109488095Y-66050057D01*
X109488095Y-66050057D02*
X109535714Y-66145295D01*
X109535714Y-66145295D02*
X109535714Y-66240533D01*
X109535714Y-66240533D02*
X109488095Y-66335771D01*
X109488095Y-66335771D02*
X109440476Y-66383390D01*
X109440476Y-66383390D02*
X109345238Y-66431009D01*
X109345238Y-66431009D02*
X109011905Y-66431009D01*
X110011905Y-65954819D02*
X110011905Y-66764342D01*
X110011905Y-66764342D02*
X110059524Y-66859580D01*
X110059524Y-66859580D02*
X110107143Y-66907200D01*
X110107143Y-66907200D02*
X110202381Y-66954819D01*
X110202381Y-66954819D02*
X110392857Y-66954819D01*
X110392857Y-66954819D02*
X110488095Y-66907200D01*
X110488095Y-66907200D02*
X110535714Y-66859580D01*
X110535714Y-66859580D02*
X110583333Y-66764342D01*
X110583333Y-66764342D02*
X110583333Y-65954819D01*
X110964286Y-65954819D02*
X111630952Y-65954819D01*
X111630952Y-65954819D02*
X110964286Y-66954819D01*
X110964286Y-66954819D02*
X111630952Y-66954819D01*
X111916667Y-65954819D02*
X112583333Y-65954819D01*
X112583333Y-65954819D02*
X111916667Y-66954819D01*
X111916667Y-66954819D02*
X112583333Y-66954819D01*
X83273810Y-59954819D02*
X83892857Y-59954819D01*
X83892857Y-59954819D02*
X83559524Y-60335771D01*
X83559524Y-60335771D02*
X83702381Y-60335771D01*
X83702381Y-60335771D02*
X83797619Y-60383390D01*
X83797619Y-60383390D02*
X83845238Y-60431009D01*
X83845238Y-60431009D02*
X83892857Y-60526247D01*
X83892857Y-60526247D02*
X83892857Y-60764342D01*
X83892857Y-60764342D02*
X83845238Y-60859580D01*
X83845238Y-60859580D02*
X83797619Y-60907200D01*
X83797619Y-60907200D02*
X83702381Y-60954819D01*
X83702381Y-60954819D02*
X83416667Y-60954819D01*
X83416667Y-60954819D02*
X83321429Y-60907200D01*
X83321429Y-60907200D02*
X83273810Y-60859580D01*
X84321429Y-60859580D02*
X84369048Y-60907200D01*
X84369048Y-60907200D02*
X84321429Y-60954819D01*
X84321429Y-60954819D02*
X84273810Y-60907200D01*
X84273810Y-60907200D02*
X84321429Y-60859580D01*
X84321429Y-60859580D02*
X84321429Y-60954819D01*
X84702381Y-59954819D02*
X85321428Y-59954819D01*
X85321428Y-59954819D02*
X84988095Y-60335771D01*
X84988095Y-60335771D02*
X85130952Y-60335771D01*
X85130952Y-60335771D02*
X85226190Y-60383390D01*
X85226190Y-60383390D02*
X85273809Y-60431009D01*
X85273809Y-60431009D02*
X85321428Y-60526247D01*
X85321428Y-60526247D02*
X85321428Y-60764342D01*
X85321428Y-60764342D02*
X85273809Y-60859580D01*
X85273809Y-60859580D02*
X85226190Y-60907200D01*
X85226190Y-60907200D02*
X85130952Y-60954819D01*
X85130952Y-60954819D02*
X84845238Y-60954819D01*
X84845238Y-60954819D02*
X84750000Y-60907200D01*
X84750000Y-60907200D02*
X84702381Y-60859580D01*
X85607143Y-59954819D02*
X85940476Y-60954819D01*
X85940476Y-60954819D02*
X86273809Y-59954819D01*
X87809523Y-61954819D02*
X87333333Y-61954819D01*
X87333333Y-61954819D02*
X87285714Y-62431009D01*
X87285714Y-62431009D02*
X87333333Y-62383390D01*
X87333333Y-62383390D02*
X87428571Y-62335771D01*
X87428571Y-62335771D02*
X87666666Y-62335771D01*
X87666666Y-62335771D02*
X87761904Y-62383390D01*
X87761904Y-62383390D02*
X87809523Y-62431009D01*
X87809523Y-62431009D02*
X87857142Y-62526247D01*
X87857142Y-62526247D02*
X87857142Y-62764342D01*
X87857142Y-62764342D02*
X87809523Y-62859580D01*
X87809523Y-62859580D02*
X87761904Y-62907200D01*
X87761904Y-62907200D02*
X87666666Y-62954819D01*
X87666666Y-62954819D02*
X87428571Y-62954819D01*
X87428571Y-62954819D02*
X87333333Y-62907200D01*
X87333333Y-62907200D02*
X87285714Y-62859580D01*
X88142857Y-61954819D02*
X88476190Y-62954819D01*
X88476190Y-62954819D02*
X88809523Y-61954819D01*
X114433333Y-60824819D02*
X114100000Y-60348628D01*
X113861905Y-60824819D02*
X113861905Y-59824819D01*
X113861905Y-59824819D02*
X114242857Y-59824819D01*
X114242857Y-59824819D02*
X114338095Y-59872438D01*
X114338095Y-59872438D02*
X114385714Y-59920057D01*
X114385714Y-59920057D02*
X114433333Y-60015295D01*
X114433333Y-60015295D02*
X114433333Y-60158152D01*
X114433333Y-60158152D02*
X114385714Y-60253390D01*
X114385714Y-60253390D02*
X114338095Y-60301009D01*
X114338095Y-60301009D02*
X114242857Y-60348628D01*
X114242857Y-60348628D02*
X113861905Y-60348628D01*
X115004762Y-60253390D02*
X114909524Y-60205771D01*
X114909524Y-60205771D02*
X114861905Y-60158152D01*
X114861905Y-60158152D02*
X114814286Y-60062914D01*
X114814286Y-60062914D02*
X114814286Y-60015295D01*
X114814286Y-60015295D02*
X114861905Y-59920057D01*
X114861905Y-59920057D02*
X114909524Y-59872438D01*
X114909524Y-59872438D02*
X115004762Y-59824819D01*
X115004762Y-59824819D02*
X115195238Y-59824819D01*
X115195238Y-59824819D02*
X115290476Y-59872438D01*
X115290476Y-59872438D02*
X115338095Y-59920057D01*
X115338095Y-59920057D02*
X115385714Y-60015295D01*
X115385714Y-60015295D02*
X115385714Y-60062914D01*
X115385714Y-60062914D02*
X115338095Y-60158152D01*
X115338095Y-60158152D02*
X115290476Y-60205771D01*
X115290476Y-60205771D02*
X115195238Y-60253390D01*
X115195238Y-60253390D02*
X115004762Y-60253390D01*
X115004762Y-60253390D02*
X114909524Y-60301009D01*
X114909524Y-60301009D02*
X114861905Y-60348628D01*
X114861905Y-60348628D02*
X114814286Y-60443866D01*
X114814286Y-60443866D02*
X114814286Y-60634342D01*
X114814286Y-60634342D02*
X114861905Y-60729580D01*
X114861905Y-60729580D02*
X114909524Y-60777200D01*
X114909524Y-60777200D02*
X115004762Y-60824819D01*
X115004762Y-60824819D02*
X115195238Y-60824819D01*
X115195238Y-60824819D02*
X115290476Y-60777200D01*
X115290476Y-60777200D02*
X115338095Y-60729580D01*
X115338095Y-60729580D02*
X115385714Y-60634342D01*
X115385714Y-60634342D02*
X115385714Y-60443866D01*
X115385714Y-60443866D02*
X115338095Y-60348628D01*
X115338095Y-60348628D02*
X115290476Y-60301009D01*
X115290476Y-60301009D02*
X115195238Y-60253390D01*
X114204761Y-67250057D02*
X114109523Y-67202438D01*
X114109523Y-67202438D02*
X114014285Y-67107200D01*
X114014285Y-67107200D02*
X113871428Y-66964342D01*
X113871428Y-66964342D02*
X113776190Y-66916723D01*
X113776190Y-66916723D02*
X113680952Y-66916723D01*
X113728571Y-67154819D02*
X113633333Y-67107200D01*
X113633333Y-67107200D02*
X113538095Y-67011961D01*
X113538095Y-67011961D02*
X113490476Y-66821485D01*
X113490476Y-66821485D02*
X113490476Y-66488152D01*
X113490476Y-66488152D02*
X113538095Y-66297676D01*
X113538095Y-66297676D02*
X113633333Y-66202438D01*
X113633333Y-66202438D02*
X113728571Y-66154819D01*
X113728571Y-66154819D02*
X113919047Y-66154819D01*
X113919047Y-66154819D02*
X114014285Y-66202438D01*
X114014285Y-66202438D02*
X114109523Y-66297676D01*
X114109523Y-66297676D02*
X114157142Y-66488152D01*
X114157142Y-66488152D02*
X114157142Y-66821485D01*
X114157142Y-66821485D02*
X114109523Y-67011961D01*
X114109523Y-67011961D02*
X114014285Y-67107200D01*
X114014285Y-67107200D02*
X113919047Y-67154819D01*
X113919047Y-67154819D02*
X113728571Y-67154819D01*
X114538095Y-66250057D02*
X114585714Y-66202438D01*
X114585714Y-66202438D02*
X114680952Y-66154819D01*
X114680952Y-66154819D02*
X114919047Y-66154819D01*
X114919047Y-66154819D02*
X115014285Y-66202438D01*
X115014285Y-66202438D02*
X115061904Y-66250057D01*
X115061904Y-66250057D02*
X115109523Y-66345295D01*
X115109523Y-66345295D02*
X115109523Y-66440533D01*
X115109523Y-66440533D02*
X115061904Y-66583390D01*
X115061904Y-66583390D02*
X114490476Y-67154819D01*
X114490476Y-67154819D02*
X115109523Y-67154819D01*
X111016667Y-46332200D02*
X111159524Y-46379819D01*
X111159524Y-46379819D02*
X111397619Y-46379819D01*
X111397619Y-46379819D02*
X111492857Y-46332200D01*
X111492857Y-46332200D02*
X111540476Y-46284580D01*
X111540476Y-46284580D02*
X111588095Y-46189342D01*
X111588095Y-46189342D02*
X111588095Y-46094104D01*
X111588095Y-46094104D02*
X111540476Y-45998866D01*
X111540476Y-45998866D02*
X111492857Y-45951247D01*
X111492857Y-45951247D02*
X111397619Y-45903628D01*
X111397619Y-45903628D02*
X111207143Y-45856009D01*
X111207143Y-45856009D02*
X111111905Y-45808390D01*
X111111905Y-45808390D02*
X111064286Y-45760771D01*
X111064286Y-45760771D02*
X111016667Y-45665533D01*
X111016667Y-45665533D02*
X111016667Y-45570295D01*
X111016667Y-45570295D02*
X111064286Y-45475057D01*
X111064286Y-45475057D02*
X111111905Y-45427438D01*
X111111905Y-45427438D02*
X111207143Y-45379819D01*
X111207143Y-45379819D02*
X111445238Y-45379819D01*
X111445238Y-45379819D02*
X111588095Y-45427438D01*
X111921429Y-45379819D02*
X112159524Y-46379819D01*
X112159524Y-46379819D02*
X112350000Y-45665533D01*
X112350000Y-45665533D02*
X112540476Y-46379819D01*
X112540476Y-46379819D02*
X112778572Y-45379819D01*
X113683333Y-46379819D02*
X113111905Y-46379819D01*
X113397619Y-46379819D02*
X113397619Y-45379819D01*
X113397619Y-45379819D02*
X113302381Y-45522676D01*
X113302381Y-45522676D02*
X113207143Y-45617914D01*
X113207143Y-45617914D02*
X113111905Y-45665533D01*
X59238095Y-126704819D02*
X59238095Y-125704819D01*
X59238095Y-126181009D02*
X59809523Y-126181009D01*
X59809523Y-126704819D02*
X59809523Y-125704819D01*
X60714285Y-126038152D02*
X60714285Y-126704819D01*
X60476190Y-125657200D02*
X60238095Y-126371485D01*
X60238095Y-126371485D02*
X60857142Y-126371485D01*
X135629048Y-66613866D02*
X136390953Y-66613866D01*
X136010000Y-66994819D02*
X136010000Y-66232914D01*
X111108333Y-68584580D02*
X111060714Y-68632200D01*
X111060714Y-68632200D02*
X110917857Y-68679819D01*
X110917857Y-68679819D02*
X110822619Y-68679819D01*
X110822619Y-68679819D02*
X110679762Y-68632200D01*
X110679762Y-68632200D02*
X110584524Y-68536961D01*
X110584524Y-68536961D02*
X110536905Y-68441723D01*
X110536905Y-68441723D02*
X110489286Y-68251247D01*
X110489286Y-68251247D02*
X110489286Y-68108390D01*
X110489286Y-68108390D02*
X110536905Y-67917914D01*
X110536905Y-67917914D02*
X110584524Y-67822676D01*
X110584524Y-67822676D02*
X110679762Y-67727438D01*
X110679762Y-67727438D02*
X110822619Y-67679819D01*
X110822619Y-67679819D02*
X110917857Y-67679819D01*
X110917857Y-67679819D02*
X111060714Y-67727438D01*
X111060714Y-67727438D02*
X111108333Y-67775057D01*
X111679762Y-68108390D02*
X111584524Y-68060771D01*
X111584524Y-68060771D02*
X111536905Y-68013152D01*
X111536905Y-68013152D02*
X111489286Y-67917914D01*
X111489286Y-67917914D02*
X111489286Y-67870295D01*
X111489286Y-67870295D02*
X111536905Y-67775057D01*
X111536905Y-67775057D02*
X111584524Y-67727438D01*
X111584524Y-67727438D02*
X111679762Y-67679819D01*
X111679762Y-67679819D02*
X111870238Y-67679819D01*
X111870238Y-67679819D02*
X111965476Y-67727438D01*
X111965476Y-67727438D02*
X112013095Y-67775057D01*
X112013095Y-67775057D02*
X112060714Y-67870295D01*
X112060714Y-67870295D02*
X112060714Y-67917914D01*
X112060714Y-67917914D02*
X112013095Y-68013152D01*
X112013095Y-68013152D02*
X111965476Y-68060771D01*
X111965476Y-68060771D02*
X111870238Y-68108390D01*
X111870238Y-68108390D02*
X111679762Y-68108390D01*
X111679762Y-68108390D02*
X111584524Y-68156009D01*
X111584524Y-68156009D02*
X111536905Y-68203628D01*
X111536905Y-68203628D02*
X111489286Y-68298866D01*
X111489286Y-68298866D02*
X111489286Y-68489342D01*
X111489286Y-68489342D02*
X111536905Y-68584580D01*
X111536905Y-68584580D02*
X111584524Y-68632200D01*
X111584524Y-68632200D02*
X111679762Y-68679819D01*
X111679762Y-68679819D02*
X111870238Y-68679819D01*
X111870238Y-68679819D02*
X111965476Y-68632200D01*
X111965476Y-68632200D02*
X112013095Y-68584580D01*
X112013095Y-68584580D02*
X112060714Y-68489342D01*
X112060714Y-68489342D02*
X112060714Y-68298866D01*
X112060714Y-68298866D02*
X112013095Y-68203628D01*
X112013095Y-68203628D02*
X111965476Y-68156009D01*
X111965476Y-68156009D02*
X111870238Y-68108390D01*
X132261905Y-77004819D02*
X132261905Y-76004819D01*
X132261905Y-76004819D02*
X132500000Y-76004819D01*
X132500000Y-76004819D02*
X132642857Y-76052438D01*
X132642857Y-76052438D02*
X132738095Y-76147676D01*
X132738095Y-76147676D02*
X132785714Y-76242914D01*
X132785714Y-76242914D02*
X132833333Y-76433390D01*
X132833333Y-76433390D02*
X132833333Y-76576247D01*
X132833333Y-76576247D02*
X132785714Y-76766723D01*
X132785714Y-76766723D02*
X132738095Y-76861961D01*
X132738095Y-76861961D02*
X132642857Y-76957200D01*
X132642857Y-76957200D02*
X132500000Y-77004819D01*
X132500000Y-77004819D02*
X132261905Y-77004819D01*
X133166667Y-76004819D02*
X133785714Y-76004819D01*
X133785714Y-76004819D02*
X133452381Y-76385771D01*
X133452381Y-76385771D02*
X133595238Y-76385771D01*
X133595238Y-76385771D02*
X133690476Y-76433390D01*
X133690476Y-76433390D02*
X133738095Y-76481009D01*
X133738095Y-76481009D02*
X133785714Y-76576247D01*
X133785714Y-76576247D02*
X133785714Y-76814342D01*
X133785714Y-76814342D02*
X133738095Y-76909580D01*
X133738095Y-76909580D02*
X133690476Y-76957200D01*
X133690476Y-76957200D02*
X133595238Y-77004819D01*
X133595238Y-77004819D02*
X133309524Y-77004819D01*
X133309524Y-77004819D02*
X133214286Y-76957200D01*
X133214286Y-76957200D02*
X133166667Y-76909580D01*
X91054819Y-67966666D02*
X90578628Y-68299999D01*
X91054819Y-68538094D02*
X90054819Y-68538094D01*
X90054819Y-68538094D02*
X90054819Y-68157142D01*
X90054819Y-68157142D02*
X90102438Y-68061904D01*
X90102438Y-68061904D02*
X90150057Y-68014285D01*
X90150057Y-68014285D02*
X90245295Y-67966666D01*
X90245295Y-67966666D02*
X90388152Y-67966666D01*
X90388152Y-67966666D02*
X90483390Y-68014285D01*
X90483390Y-68014285D02*
X90531009Y-68061904D01*
X90531009Y-68061904D02*
X90578628Y-68157142D01*
X90578628Y-68157142D02*
X90578628Y-68538094D01*
X90054819Y-67633332D02*
X90054819Y-66966666D01*
X90054819Y-66966666D02*
X91054819Y-67395237D01*
X128833333Y-76979819D02*
X128500000Y-76503628D01*
X128261905Y-76979819D02*
X128261905Y-75979819D01*
X128261905Y-75979819D02*
X128642857Y-75979819D01*
X128642857Y-75979819D02*
X128738095Y-76027438D01*
X128738095Y-76027438D02*
X128785714Y-76075057D01*
X128785714Y-76075057D02*
X128833333Y-76170295D01*
X128833333Y-76170295D02*
X128833333Y-76313152D01*
X128833333Y-76313152D02*
X128785714Y-76408390D01*
X128785714Y-76408390D02*
X128738095Y-76456009D01*
X128738095Y-76456009D02*
X128642857Y-76503628D01*
X128642857Y-76503628D02*
X128261905Y-76503628D01*
X129690476Y-75979819D02*
X129500000Y-75979819D01*
X129500000Y-75979819D02*
X129404762Y-76027438D01*
X129404762Y-76027438D02*
X129357143Y-76075057D01*
X129357143Y-76075057D02*
X129261905Y-76217914D01*
X129261905Y-76217914D02*
X129214286Y-76408390D01*
X129214286Y-76408390D02*
X129214286Y-76789342D01*
X129214286Y-76789342D02*
X129261905Y-76884580D01*
X129261905Y-76884580D02*
X129309524Y-76932200D01*
X129309524Y-76932200D02*
X129404762Y-76979819D01*
X129404762Y-76979819D02*
X129595238Y-76979819D01*
X129595238Y-76979819D02*
X129690476Y-76932200D01*
X129690476Y-76932200D02*
X129738095Y-76884580D01*
X129738095Y-76884580D02*
X129785714Y-76789342D01*
X129785714Y-76789342D02*
X129785714Y-76551247D01*
X129785714Y-76551247D02*
X129738095Y-76456009D01*
X129738095Y-76456009D02*
X129690476Y-76408390D01*
X129690476Y-76408390D02*
X129595238Y-76360771D01*
X129595238Y-76360771D02*
X129404762Y-76360771D01*
X129404762Y-76360771D02*
X129309524Y-76408390D01*
X129309524Y-76408390D02*
X129261905Y-76456009D01*
X129261905Y-76456009D02*
X129214286Y-76551247D01*
X96833333Y-58604819D02*
X96500000Y-58128628D01*
X96261905Y-58604819D02*
X96261905Y-57604819D01*
X96261905Y-57604819D02*
X96642857Y-57604819D01*
X96642857Y-57604819D02*
X96738095Y-57652438D01*
X96738095Y-57652438D02*
X96785714Y-57700057D01*
X96785714Y-57700057D02*
X96833333Y-57795295D01*
X96833333Y-57795295D02*
X96833333Y-57938152D01*
X96833333Y-57938152D02*
X96785714Y-58033390D01*
X96785714Y-58033390D02*
X96738095Y-58081009D01*
X96738095Y-58081009D02*
X96642857Y-58128628D01*
X96642857Y-58128628D02*
X96261905Y-58128628D01*
X97214286Y-57700057D02*
X97261905Y-57652438D01*
X97261905Y-57652438D02*
X97357143Y-57604819D01*
X97357143Y-57604819D02*
X97595238Y-57604819D01*
X97595238Y-57604819D02*
X97690476Y-57652438D01*
X97690476Y-57652438D02*
X97738095Y-57700057D01*
X97738095Y-57700057D02*
X97785714Y-57795295D01*
X97785714Y-57795295D02*
X97785714Y-57890533D01*
X97785714Y-57890533D02*
X97738095Y-58033390D01*
X97738095Y-58033390D02*
X97166667Y-58604819D01*
X97166667Y-58604819D02*
X97785714Y-58604819D01*
X61761905Y-61454819D02*
X61761905Y-60454819D01*
X61761905Y-60454819D02*
X62000000Y-60454819D01*
X62000000Y-60454819D02*
X62142857Y-60502438D01*
X62142857Y-60502438D02*
X62238095Y-60597676D01*
X62238095Y-60597676D02*
X62285714Y-60692914D01*
X62285714Y-60692914D02*
X62333333Y-60883390D01*
X62333333Y-60883390D02*
X62333333Y-61026247D01*
X62333333Y-61026247D02*
X62285714Y-61216723D01*
X62285714Y-61216723D02*
X62238095Y-61311961D01*
X62238095Y-61311961D02*
X62142857Y-61407200D01*
X62142857Y-61407200D02*
X62000000Y-61454819D01*
X62000000Y-61454819D02*
X61761905Y-61454819D01*
X62714286Y-60550057D02*
X62761905Y-60502438D01*
X62761905Y-60502438D02*
X62857143Y-60454819D01*
X62857143Y-60454819D02*
X63095238Y-60454819D01*
X63095238Y-60454819D02*
X63190476Y-60502438D01*
X63190476Y-60502438D02*
X63238095Y-60550057D01*
X63238095Y-60550057D02*
X63285714Y-60645295D01*
X63285714Y-60645295D02*
X63285714Y-60740533D01*
X63285714Y-60740533D02*
X63238095Y-60883390D01*
X63238095Y-60883390D02*
X62666667Y-61454819D01*
X62666667Y-61454819D02*
X63285714Y-61454819D01*
X98316666Y-58629819D02*
X98316666Y-59344104D01*
X98316666Y-59344104D02*
X98269047Y-59486961D01*
X98269047Y-59486961D02*
X98173809Y-59582200D01*
X98173809Y-59582200D02*
X98030952Y-59629819D01*
X98030952Y-59629819D02*
X97935714Y-59629819D01*
X99316666Y-59629819D02*
X98745238Y-59629819D01*
X99030952Y-59629819D02*
X99030952Y-58629819D01*
X99030952Y-58629819D02*
X98935714Y-58772676D01*
X98935714Y-58772676D02*
X98840476Y-58867914D01*
X98840476Y-58867914D02*
X98745238Y-58915533D01*
X107916667Y-73161104D02*
X107878571Y-73199200D01*
X107878571Y-73199200D02*
X107764286Y-73237295D01*
X107764286Y-73237295D02*
X107688095Y-73237295D01*
X107688095Y-73237295D02*
X107573809Y-73199200D01*
X107573809Y-73199200D02*
X107497619Y-73123009D01*
X107497619Y-73123009D02*
X107459524Y-73046819D01*
X107459524Y-73046819D02*
X107421428Y-72894438D01*
X107421428Y-72894438D02*
X107421428Y-72780152D01*
X107421428Y-72780152D02*
X107459524Y-72627771D01*
X107459524Y-72627771D02*
X107497619Y-72551580D01*
X107497619Y-72551580D02*
X107573809Y-72475390D01*
X107573809Y-72475390D02*
X107688095Y-72437295D01*
X107688095Y-72437295D02*
X107764286Y-72437295D01*
X107764286Y-72437295D02*
X107878571Y-72475390D01*
X107878571Y-72475390D02*
X107916667Y-72513485D01*
X108183333Y-72437295D02*
X108716667Y-72437295D01*
X108716667Y-72437295D02*
X108373809Y-73237295D01*
X126416667Y-46357200D02*
X126559524Y-46404819D01*
X126559524Y-46404819D02*
X126797619Y-46404819D01*
X126797619Y-46404819D02*
X126892857Y-46357200D01*
X126892857Y-46357200D02*
X126940476Y-46309580D01*
X126940476Y-46309580D02*
X126988095Y-46214342D01*
X126988095Y-46214342D02*
X126988095Y-46119104D01*
X126988095Y-46119104D02*
X126940476Y-46023866D01*
X126940476Y-46023866D02*
X126892857Y-45976247D01*
X126892857Y-45976247D02*
X126797619Y-45928628D01*
X126797619Y-45928628D02*
X126607143Y-45881009D01*
X126607143Y-45881009D02*
X126511905Y-45833390D01*
X126511905Y-45833390D02*
X126464286Y-45785771D01*
X126464286Y-45785771D02*
X126416667Y-45690533D01*
X126416667Y-45690533D02*
X126416667Y-45595295D01*
X126416667Y-45595295D02*
X126464286Y-45500057D01*
X126464286Y-45500057D02*
X126511905Y-45452438D01*
X126511905Y-45452438D02*
X126607143Y-45404819D01*
X126607143Y-45404819D02*
X126845238Y-45404819D01*
X126845238Y-45404819D02*
X126988095Y-45452438D01*
X127321429Y-45404819D02*
X127559524Y-46404819D01*
X127559524Y-46404819D02*
X127750000Y-45690533D01*
X127750000Y-45690533D02*
X127940476Y-46404819D01*
X127940476Y-46404819D02*
X128178572Y-45404819D01*
X128511905Y-45500057D02*
X128559524Y-45452438D01*
X128559524Y-45452438D02*
X128654762Y-45404819D01*
X128654762Y-45404819D02*
X128892857Y-45404819D01*
X128892857Y-45404819D02*
X128988095Y-45452438D01*
X128988095Y-45452438D02*
X129035714Y-45500057D01*
X129035714Y-45500057D02*
X129083333Y-45595295D01*
X129083333Y-45595295D02*
X129083333Y-45690533D01*
X129083333Y-45690533D02*
X129035714Y-45833390D01*
X129035714Y-45833390D02*
X128464286Y-46404819D01*
X128464286Y-46404819D02*
X129083333Y-46404819D01*
X78916666Y-50454819D02*
X78916666Y-51169104D01*
X78916666Y-51169104D02*
X78869047Y-51311961D01*
X78869047Y-51311961D02*
X78773809Y-51407200D01*
X78773809Y-51407200D02*
X78630952Y-51454819D01*
X78630952Y-51454819D02*
X78535714Y-51454819D01*
X79297619Y-50454819D02*
X79916666Y-50454819D01*
X79916666Y-50454819D02*
X79583333Y-50835771D01*
X79583333Y-50835771D02*
X79726190Y-50835771D01*
X79726190Y-50835771D02*
X79821428Y-50883390D01*
X79821428Y-50883390D02*
X79869047Y-50931009D01*
X79869047Y-50931009D02*
X79916666Y-51026247D01*
X79916666Y-51026247D02*
X79916666Y-51264342D01*
X79916666Y-51264342D02*
X79869047Y-51359580D01*
X79869047Y-51359580D02*
X79821428Y-51407200D01*
X79821428Y-51407200D02*
X79726190Y-51454819D01*
X79726190Y-51454819D02*
X79440476Y-51454819D01*
X79440476Y-51454819D02*
X79345238Y-51407200D01*
X79345238Y-51407200D02*
X79297619Y-51359580D01*
X68333333Y-57454819D02*
X68000000Y-56978628D01*
X67761905Y-57454819D02*
X67761905Y-56454819D01*
X67761905Y-56454819D02*
X68142857Y-56454819D01*
X68142857Y-56454819D02*
X68238095Y-56502438D01*
X68238095Y-56502438D02*
X68285714Y-56550057D01*
X68285714Y-56550057D02*
X68333333Y-56645295D01*
X68333333Y-56645295D02*
X68333333Y-56788152D01*
X68333333Y-56788152D02*
X68285714Y-56883390D01*
X68285714Y-56883390D02*
X68238095Y-56931009D01*
X68238095Y-56931009D02*
X68142857Y-56978628D01*
X68142857Y-56978628D02*
X67761905Y-56978628D01*
X69190476Y-56788152D02*
X69190476Y-57454819D01*
X68952381Y-56407200D02*
X68714286Y-57121485D01*
X68714286Y-57121485D02*
X69333333Y-57121485D01*
X104354819Y-56666666D02*
X103878628Y-56999999D01*
X104354819Y-57238094D02*
X103354819Y-57238094D01*
X103354819Y-57238094D02*
X103354819Y-56857142D01*
X103354819Y-56857142D02*
X103402438Y-56761904D01*
X103402438Y-56761904D02*
X103450057Y-56714285D01*
X103450057Y-56714285D02*
X103545295Y-56666666D01*
X103545295Y-56666666D02*
X103688152Y-56666666D01*
X103688152Y-56666666D02*
X103783390Y-56714285D01*
X103783390Y-56714285D02*
X103831009Y-56761904D01*
X103831009Y-56761904D02*
X103878628Y-56857142D01*
X103878628Y-56857142D02*
X103878628Y-57238094D01*
X104354819Y-55714285D02*
X104354819Y-56285713D01*
X104354819Y-55999999D02*
X103354819Y-55999999D01*
X103354819Y-55999999D02*
X103497676Y-56095237D01*
X103497676Y-56095237D02*
X103592914Y-56190475D01*
X103592914Y-56190475D02*
X103640533Y-56285713D01*
X90093333Y-73169580D02*
X90045714Y-73217200D01*
X90045714Y-73217200D02*
X89902857Y-73264819D01*
X89902857Y-73264819D02*
X89807619Y-73264819D01*
X89807619Y-73264819D02*
X89664762Y-73217200D01*
X89664762Y-73217200D02*
X89569524Y-73121961D01*
X89569524Y-73121961D02*
X89521905Y-73026723D01*
X89521905Y-73026723D02*
X89474286Y-72836247D01*
X89474286Y-72836247D02*
X89474286Y-72693390D01*
X89474286Y-72693390D02*
X89521905Y-72502914D01*
X89521905Y-72502914D02*
X89569524Y-72407676D01*
X89569524Y-72407676D02*
X89664762Y-72312438D01*
X89664762Y-72312438D02*
X89807619Y-72264819D01*
X89807619Y-72264819D02*
X89902857Y-72264819D01*
X89902857Y-72264819D02*
X90045714Y-72312438D01*
X90045714Y-72312438D02*
X90093333Y-72360057D01*
X90950476Y-72264819D02*
X90760000Y-72264819D01*
X90760000Y-72264819D02*
X90664762Y-72312438D01*
X90664762Y-72312438D02*
X90617143Y-72360057D01*
X90617143Y-72360057D02*
X90521905Y-72502914D01*
X90521905Y-72502914D02*
X90474286Y-72693390D01*
X90474286Y-72693390D02*
X90474286Y-73074342D01*
X90474286Y-73074342D02*
X90521905Y-73169580D01*
X90521905Y-73169580D02*
X90569524Y-73217200D01*
X90569524Y-73217200D02*
X90664762Y-73264819D01*
X90664762Y-73264819D02*
X90855238Y-73264819D01*
X90855238Y-73264819D02*
X90950476Y-73217200D01*
X90950476Y-73217200D02*
X90998095Y-73169580D01*
X90998095Y-73169580D02*
X91045714Y-73074342D01*
X91045714Y-73074342D02*
X91045714Y-72836247D01*
X91045714Y-72836247D02*
X90998095Y-72741009D01*
X90998095Y-72741009D02*
X90950476Y-72693390D01*
X90950476Y-72693390D02*
X90855238Y-72645771D01*
X90855238Y-72645771D02*
X90664762Y-72645771D01*
X90664762Y-72645771D02*
X90569524Y-72693390D01*
X90569524Y-72693390D02*
X90521905Y-72741009D01*
X90521905Y-72741009D02*
X90474286Y-72836247D01*
X84938095Y-58554819D02*
X84938095Y-59364342D01*
X84938095Y-59364342D02*
X84985714Y-59459580D01*
X84985714Y-59459580D02*
X85033333Y-59507200D01*
X85033333Y-59507200D02*
X85128571Y-59554819D01*
X85128571Y-59554819D02*
X85319047Y-59554819D01*
X85319047Y-59554819D02*
X85414285Y-59507200D01*
X85414285Y-59507200D02*
X85461904Y-59459580D01*
X85461904Y-59459580D02*
X85509523Y-59364342D01*
X85509523Y-59364342D02*
X85509523Y-58554819D01*
X86509523Y-59554819D02*
X85938095Y-59554819D01*
X86223809Y-59554819D02*
X86223809Y-58554819D01*
X86223809Y-58554819D02*
X86128571Y-58697676D01*
X86128571Y-58697676D02*
X86033333Y-58792914D01*
X86033333Y-58792914D02*
X85938095Y-58840533D01*
X68333333Y-59704819D02*
X68000000Y-59228628D01*
X67761905Y-59704819D02*
X67761905Y-58704819D01*
X67761905Y-58704819D02*
X68142857Y-58704819D01*
X68142857Y-58704819D02*
X68238095Y-58752438D01*
X68238095Y-58752438D02*
X68285714Y-58800057D01*
X68285714Y-58800057D02*
X68333333Y-58895295D01*
X68333333Y-58895295D02*
X68333333Y-59038152D01*
X68333333Y-59038152D02*
X68285714Y-59133390D01*
X68285714Y-59133390D02*
X68238095Y-59181009D01*
X68238095Y-59181009D02*
X68142857Y-59228628D01*
X68142857Y-59228628D02*
X67761905Y-59228628D01*
X69238095Y-58704819D02*
X68761905Y-58704819D01*
X68761905Y-58704819D02*
X68714286Y-59181009D01*
X68714286Y-59181009D02*
X68761905Y-59133390D01*
X68761905Y-59133390D02*
X68857143Y-59085771D01*
X68857143Y-59085771D02*
X69095238Y-59085771D01*
X69095238Y-59085771D02*
X69190476Y-59133390D01*
X69190476Y-59133390D02*
X69238095Y-59181009D01*
X69238095Y-59181009D02*
X69285714Y-59276247D01*
X69285714Y-59276247D02*
X69285714Y-59514342D01*
X69285714Y-59514342D02*
X69238095Y-59609580D01*
X69238095Y-59609580D02*
X69190476Y-59657200D01*
X69190476Y-59657200D02*
X69095238Y-59704819D01*
X69095238Y-59704819D02*
X68857143Y-59704819D01*
X68857143Y-59704819D02*
X68761905Y-59657200D01*
X68761905Y-59657200D02*
X68714286Y-59609580D01*
X111432142Y-71869580D02*
X111384523Y-71917200D01*
X111384523Y-71917200D02*
X111241666Y-71964819D01*
X111241666Y-71964819D02*
X111146428Y-71964819D01*
X111146428Y-71964819D02*
X111003571Y-71917200D01*
X111003571Y-71917200D02*
X110908333Y-71821961D01*
X110908333Y-71821961D02*
X110860714Y-71726723D01*
X110860714Y-71726723D02*
X110813095Y-71536247D01*
X110813095Y-71536247D02*
X110813095Y-71393390D01*
X110813095Y-71393390D02*
X110860714Y-71202914D01*
X110860714Y-71202914D02*
X110908333Y-71107676D01*
X110908333Y-71107676D02*
X111003571Y-71012438D01*
X111003571Y-71012438D02*
X111146428Y-70964819D01*
X111146428Y-70964819D02*
X111241666Y-70964819D01*
X111241666Y-70964819D02*
X111384523Y-71012438D01*
X111384523Y-71012438D02*
X111432142Y-71060057D01*
X112384523Y-71964819D02*
X111813095Y-71964819D01*
X112098809Y-71964819D02*
X112098809Y-70964819D01*
X112098809Y-70964819D02*
X112003571Y-71107676D01*
X112003571Y-71107676D02*
X111908333Y-71202914D01*
X111908333Y-71202914D02*
X111813095Y-71250533D01*
X113003571Y-70964819D02*
X113098809Y-70964819D01*
X113098809Y-70964819D02*
X113194047Y-71012438D01*
X113194047Y-71012438D02*
X113241666Y-71060057D01*
X113241666Y-71060057D02*
X113289285Y-71155295D01*
X113289285Y-71155295D02*
X113336904Y-71345771D01*
X113336904Y-71345771D02*
X113336904Y-71583866D01*
X113336904Y-71583866D02*
X113289285Y-71774342D01*
X113289285Y-71774342D02*
X113241666Y-71869580D01*
X113241666Y-71869580D02*
X113194047Y-71917200D01*
X113194047Y-71917200D02*
X113098809Y-71964819D01*
X113098809Y-71964819D02*
X113003571Y-71964819D01*
X113003571Y-71964819D02*
X112908333Y-71917200D01*
X112908333Y-71917200D02*
X112860714Y-71869580D01*
X112860714Y-71869580D02*
X112813095Y-71774342D01*
X112813095Y-71774342D02*
X112765476Y-71583866D01*
X112765476Y-71583866D02*
X112765476Y-71345771D01*
X112765476Y-71345771D02*
X112813095Y-71155295D01*
X112813095Y-71155295D02*
X112860714Y-71060057D01*
X112860714Y-71060057D02*
X112908333Y-71012438D01*
X112908333Y-71012438D02*
X113003571Y-70964819D01*
X61761905Y-55704819D02*
X61761905Y-54704819D01*
X61761905Y-54704819D02*
X62000000Y-54704819D01*
X62000000Y-54704819D02*
X62142857Y-54752438D01*
X62142857Y-54752438D02*
X62238095Y-54847676D01*
X62238095Y-54847676D02*
X62285714Y-54942914D01*
X62285714Y-54942914D02*
X62333333Y-55133390D01*
X62333333Y-55133390D02*
X62333333Y-55276247D01*
X62333333Y-55276247D02*
X62285714Y-55466723D01*
X62285714Y-55466723D02*
X62238095Y-55561961D01*
X62238095Y-55561961D02*
X62142857Y-55657200D01*
X62142857Y-55657200D02*
X62000000Y-55704819D01*
X62000000Y-55704819D02*
X61761905Y-55704819D01*
X63285714Y-55704819D02*
X62714286Y-55704819D01*
X63000000Y-55704819D02*
X63000000Y-54704819D01*
X63000000Y-54704819D02*
X62904762Y-54847676D01*
X62904762Y-54847676D02*
X62809524Y-54942914D01*
X62809524Y-54942914D02*
X62714286Y-54990533D01*
X120916666Y-102954819D02*
X120916666Y-103669104D01*
X120916666Y-103669104D02*
X120869047Y-103811961D01*
X120869047Y-103811961D02*
X120773809Y-103907200D01*
X120773809Y-103907200D02*
X120630952Y-103954819D01*
X120630952Y-103954819D02*
X120535714Y-103954819D01*
X121345238Y-103050057D02*
X121392857Y-103002438D01*
X121392857Y-103002438D02*
X121488095Y-102954819D01*
X121488095Y-102954819D02*
X121726190Y-102954819D01*
X121726190Y-102954819D02*
X121821428Y-103002438D01*
X121821428Y-103002438D02*
X121869047Y-103050057D01*
X121869047Y-103050057D02*
X121916666Y-103145295D01*
X121916666Y-103145295D02*
X121916666Y-103240533D01*
X121916666Y-103240533D02*
X121869047Y-103383390D01*
X121869047Y-103383390D02*
X121297619Y-103954819D01*
X121297619Y-103954819D02*
X121916666Y-103954819D01*
X90053333Y-66049580D02*
X90005714Y-66097200D01*
X90005714Y-66097200D02*
X89862857Y-66144819D01*
X89862857Y-66144819D02*
X89767619Y-66144819D01*
X89767619Y-66144819D02*
X89624762Y-66097200D01*
X89624762Y-66097200D02*
X89529524Y-66001961D01*
X89529524Y-66001961D02*
X89481905Y-65906723D01*
X89481905Y-65906723D02*
X89434286Y-65716247D01*
X89434286Y-65716247D02*
X89434286Y-65573390D01*
X89434286Y-65573390D02*
X89481905Y-65382914D01*
X89481905Y-65382914D02*
X89529524Y-65287676D01*
X89529524Y-65287676D02*
X89624762Y-65192438D01*
X89624762Y-65192438D02*
X89767619Y-65144819D01*
X89767619Y-65144819D02*
X89862857Y-65144819D01*
X89862857Y-65144819D02*
X90005714Y-65192438D01*
X90005714Y-65192438D02*
X90053333Y-65240057D01*
X90910476Y-65478152D02*
X90910476Y-66144819D01*
X90672381Y-65097200D02*
X90434286Y-65811485D01*
X90434286Y-65811485D02*
X91053333Y-65811485D01*
X87623333Y-70579580D02*
X87575714Y-70627200D01*
X87575714Y-70627200D02*
X87432857Y-70674819D01*
X87432857Y-70674819D02*
X87337619Y-70674819D01*
X87337619Y-70674819D02*
X87194762Y-70627200D01*
X87194762Y-70627200D02*
X87099524Y-70531961D01*
X87099524Y-70531961D02*
X87051905Y-70436723D01*
X87051905Y-70436723D02*
X87004286Y-70246247D01*
X87004286Y-70246247D02*
X87004286Y-70103390D01*
X87004286Y-70103390D02*
X87051905Y-69912914D01*
X87051905Y-69912914D02*
X87099524Y-69817676D01*
X87099524Y-69817676D02*
X87194762Y-69722438D01*
X87194762Y-69722438D02*
X87337619Y-69674819D01*
X87337619Y-69674819D02*
X87432857Y-69674819D01*
X87432857Y-69674819D02*
X87575714Y-69722438D01*
X87575714Y-69722438D02*
X87623333Y-69770057D01*
X88528095Y-69674819D02*
X88051905Y-69674819D01*
X88051905Y-69674819D02*
X88004286Y-70151009D01*
X88004286Y-70151009D02*
X88051905Y-70103390D01*
X88051905Y-70103390D02*
X88147143Y-70055771D01*
X88147143Y-70055771D02*
X88385238Y-70055771D01*
X88385238Y-70055771D02*
X88480476Y-70103390D01*
X88480476Y-70103390D02*
X88528095Y-70151009D01*
X88528095Y-70151009D02*
X88575714Y-70246247D01*
X88575714Y-70246247D02*
X88575714Y-70484342D01*
X88575714Y-70484342D02*
X88528095Y-70579580D01*
X88528095Y-70579580D02*
X88480476Y-70627200D01*
X88480476Y-70627200D02*
X88385238Y-70674819D01*
X88385238Y-70674819D02*
X88147143Y-70674819D01*
X88147143Y-70674819D02*
X88051905Y-70627200D01*
X88051905Y-70627200D02*
X88004286Y-70579580D01*
X108333333Y-64954819D02*
X108000000Y-64478628D01*
X107761905Y-64954819D02*
X107761905Y-63954819D01*
X107761905Y-63954819D02*
X108142857Y-63954819D01*
X108142857Y-63954819D02*
X108238095Y-64002438D01*
X108238095Y-64002438D02*
X108285714Y-64050057D01*
X108285714Y-64050057D02*
X108333333Y-64145295D01*
X108333333Y-64145295D02*
X108333333Y-64288152D01*
X108333333Y-64288152D02*
X108285714Y-64383390D01*
X108285714Y-64383390D02*
X108238095Y-64431009D01*
X108238095Y-64431009D02*
X108142857Y-64478628D01*
X108142857Y-64478628D02*
X107761905Y-64478628D01*
X108666667Y-63954819D02*
X109285714Y-63954819D01*
X109285714Y-63954819D02*
X108952381Y-64335771D01*
X108952381Y-64335771D02*
X109095238Y-64335771D01*
X109095238Y-64335771D02*
X109190476Y-64383390D01*
X109190476Y-64383390D02*
X109238095Y-64431009D01*
X109238095Y-64431009D02*
X109285714Y-64526247D01*
X109285714Y-64526247D02*
X109285714Y-64764342D01*
X109285714Y-64764342D02*
X109238095Y-64859580D01*
X109238095Y-64859580D02*
X109190476Y-64907200D01*
X109190476Y-64907200D02*
X109095238Y-64954819D01*
X109095238Y-64954819D02*
X108809524Y-64954819D01*
X108809524Y-64954819D02*
X108714286Y-64907200D01*
X108714286Y-64907200D02*
X108666667Y-64859580D01*
X91633333Y-62089580D02*
X91585714Y-62137200D01*
X91585714Y-62137200D02*
X91442857Y-62184819D01*
X91442857Y-62184819D02*
X91347619Y-62184819D01*
X91347619Y-62184819D02*
X91204762Y-62137200D01*
X91204762Y-62137200D02*
X91109524Y-62041961D01*
X91109524Y-62041961D02*
X91061905Y-61946723D01*
X91061905Y-61946723D02*
X91014286Y-61756247D01*
X91014286Y-61756247D02*
X91014286Y-61613390D01*
X91014286Y-61613390D02*
X91061905Y-61422914D01*
X91061905Y-61422914D02*
X91109524Y-61327676D01*
X91109524Y-61327676D02*
X91204762Y-61232438D01*
X91204762Y-61232438D02*
X91347619Y-61184819D01*
X91347619Y-61184819D02*
X91442857Y-61184819D01*
X91442857Y-61184819D02*
X91585714Y-61232438D01*
X91585714Y-61232438D02*
X91633333Y-61280057D01*
X92585714Y-62184819D02*
X92014286Y-62184819D01*
X92300000Y-62184819D02*
X92300000Y-61184819D01*
X92300000Y-61184819D02*
X92204762Y-61327676D01*
X92204762Y-61327676D02*
X92109524Y-61422914D01*
X92109524Y-61422914D02*
X92014286Y-61470533D01*
X106633333Y-59739580D02*
X106585714Y-59787200D01*
X106585714Y-59787200D02*
X106442857Y-59834819D01*
X106442857Y-59834819D02*
X106347619Y-59834819D01*
X106347619Y-59834819D02*
X106204762Y-59787200D01*
X106204762Y-59787200D02*
X106109524Y-59691961D01*
X106109524Y-59691961D02*
X106061905Y-59596723D01*
X106061905Y-59596723D02*
X106014286Y-59406247D01*
X106014286Y-59406247D02*
X106014286Y-59263390D01*
X106014286Y-59263390D02*
X106061905Y-59072914D01*
X106061905Y-59072914D02*
X106109524Y-58977676D01*
X106109524Y-58977676D02*
X106204762Y-58882438D01*
X106204762Y-58882438D02*
X106347619Y-58834819D01*
X106347619Y-58834819D02*
X106442857Y-58834819D01*
X106442857Y-58834819D02*
X106585714Y-58882438D01*
X106585714Y-58882438D02*
X106633333Y-58930057D01*
X107109524Y-59834819D02*
X107300000Y-59834819D01*
X107300000Y-59834819D02*
X107395238Y-59787200D01*
X107395238Y-59787200D02*
X107442857Y-59739580D01*
X107442857Y-59739580D02*
X107538095Y-59596723D01*
X107538095Y-59596723D02*
X107585714Y-59406247D01*
X107585714Y-59406247D02*
X107585714Y-59025295D01*
X107585714Y-59025295D02*
X107538095Y-58930057D01*
X107538095Y-58930057D02*
X107490476Y-58882438D01*
X107490476Y-58882438D02*
X107395238Y-58834819D01*
X107395238Y-58834819D02*
X107204762Y-58834819D01*
X107204762Y-58834819D02*
X107109524Y-58882438D01*
X107109524Y-58882438D02*
X107061905Y-58930057D01*
X107061905Y-58930057D02*
X107014286Y-59025295D01*
X107014286Y-59025295D02*
X107014286Y-59263390D01*
X107014286Y-59263390D02*
X107061905Y-59358628D01*
X107061905Y-59358628D02*
X107109524Y-59406247D01*
X107109524Y-59406247D02*
X107204762Y-59453866D01*
X107204762Y-59453866D02*
X107395238Y-59453866D01*
X107395238Y-59453866D02*
X107490476Y-59406247D01*
X107490476Y-59406247D02*
X107538095Y-59358628D01*
X107538095Y-59358628D02*
X107585714Y-59263390D01*
X123434580Y-53592857D02*
X123482200Y-53640476D01*
X123482200Y-53640476D02*
X123529819Y-53783333D01*
X123529819Y-53783333D02*
X123529819Y-53878571D01*
X123529819Y-53878571D02*
X123482200Y-54021428D01*
X123482200Y-54021428D02*
X123386961Y-54116666D01*
X123386961Y-54116666D02*
X123291723Y-54164285D01*
X123291723Y-54164285D02*
X123101247Y-54211904D01*
X123101247Y-54211904D02*
X122958390Y-54211904D01*
X122958390Y-54211904D02*
X122767914Y-54164285D01*
X122767914Y-54164285D02*
X122672676Y-54116666D01*
X122672676Y-54116666D02*
X122577438Y-54021428D01*
X122577438Y-54021428D02*
X122529819Y-53878571D01*
X122529819Y-53878571D02*
X122529819Y-53783333D01*
X122529819Y-53783333D02*
X122577438Y-53640476D01*
X122577438Y-53640476D02*
X122625057Y-53592857D01*
X123529819Y-52640476D02*
X123529819Y-53211904D01*
X123529819Y-52926190D02*
X122529819Y-52926190D01*
X122529819Y-52926190D02*
X122672676Y-53021428D01*
X122672676Y-53021428D02*
X122767914Y-53116666D01*
X122767914Y-53116666D02*
X122815533Y-53211904D01*
X123529819Y-51688095D02*
X123529819Y-52259523D01*
X123529819Y-51973809D02*
X122529819Y-51973809D01*
X122529819Y-51973809D02*
X122672676Y-52069047D01*
X122672676Y-52069047D02*
X122767914Y-52164285D01*
X122767914Y-52164285D02*
X122815533Y-52259523D01*
X84158333Y-49634580D02*
X84110714Y-49682200D01*
X84110714Y-49682200D02*
X83967857Y-49729819D01*
X83967857Y-49729819D02*
X83872619Y-49729819D01*
X83872619Y-49729819D02*
X83729762Y-49682200D01*
X83729762Y-49682200D02*
X83634524Y-49586961D01*
X83634524Y-49586961D02*
X83586905Y-49491723D01*
X83586905Y-49491723D02*
X83539286Y-49301247D01*
X83539286Y-49301247D02*
X83539286Y-49158390D01*
X83539286Y-49158390D02*
X83586905Y-48967914D01*
X83586905Y-48967914D02*
X83634524Y-48872676D01*
X83634524Y-48872676D02*
X83729762Y-48777438D01*
X83729762Y-48777438D02*
X83872619Y-48729819D01*
X83872619Y-48729819D02*
X83967857Y-48729819D01*
X83967857Y-48729819D02*
X84110714Y-48777438D01*
X84110714Y-48777438D02*
X84158333Y-48825057D01*
X84491667Y-48729819D02*
X85110714Y-48729819D01*
X85110714Y-48729819D02*
X84777381Y-49110771D01*
X84777381Y-49110771D02*
X84920238Y-49110771D01*
X84920238Y-49110771D02*
X85015476Y-49158390D01*
X85015476Y-49158390D02*
X85063095Y-49206009D01*
X85063095Y-49206009D02*
X85110714Y-49301247D01*
X85110714Y-49301247D02*
X85110714Y-49539342D01*
X85110714Y-49539342D02*
X85063095Y-49634580D01*
X85063095Y-49634580D02*
X85015476Y-49682200D01*
X85015476Y-49682200D02*
X84920238Y-49729819D01*
X84920238Y-49729819D02*
X84634524Y-49729819D01*
X84634524Y-49729819D02*
X84539286Y-49682200D01*
X84539286Y-49682200D02*
X84491667Y-49634580D01*
X83959580Y-73091666D02*
X84007200Y-73139285D01*
X84007200Y-73139285D02*
X84054819Y-73282142D01*
X84054819Y-73282142D02*
X84054819Y-73377380D01*
X84054819Y-73377380D02*
X84007200Y-73520237D01*
X84007200Y-73520237D02*
X83911961Y-73615475D01*
X83911961Y-73615475D02*
X83816723Y-73663094D01*
X83816723Y-73663094D02*
X83626247Y-73710713D01*
X83626247Y-73710713D02*
X83483390Y-73710713D01*
X83483390Y-73710713D02*
X83292914Y-73663094D01*
X83292914Y-73663094D02*
X83197676Y-73615475D01*
X83197676Y-73615475D02*
X83102438Y-73520237D01*
X83102438Y-73520237D02*
X83054819Y-73377380D01*
X83054819Y-73377380D02*
X83054819Y-73282142D01*
X83054819Y-73282142D02*
X83102438Y-73139285D01*
X83102438Y-73139285D02*
X83150057Y-73091666D01*
X83150057Y-72710713D02*
X83102438Y-72663094D01*
X83102438Y-72663094D02*
X83054819Y-72567856D01*
X83054819Y-72567856D02*
X83054819Y-72329761D01*
X83054819Y-72329761D02*
X83102438Y-72234523D01*
X83102438Y-72234523D02*
X83150057Y-72186904D01*
X83150057Y-72186904D02*
X83245295Y-72139285D01*
X83245295Y-72139285D02*
X83340533Y-72139285D01*
X83340533Y-72139285D02*
X83483390Y-72186904D01*
X83483390Y-72186904D02*
X84054819Y-72758332D01*
X84054819Y-72758332D02*
X84054819Y-72139285D01*
D12*
%TO.C,TP8*%
X79200000Y-85000000D02*
G75*
G02*
X77800000Y-85000000I-700000J0D01*
G01*
X77800000Y-85000000D02*
G75*
G02*
X79200000Y-85000000I700000J0D01*
G01*
%TO.C,TP7*%
X79200000Y-82500000D02*
G75*
G02*
X77800000Y-82500000I-700000J0D01*
G01*
X77800000Y-82500000D02*
G75*
G02*
X79200000Y-82500000I700000J0D01*
G01*
%TO.C,TP6*%
X79200000Y-80000000D02*
G75*
G02*
X77800000Y-80000000I-700000J0D01*
G01*
X77800000Y-80000000D02*
G75*
G02*
X79200000Y-80000000I700000J0D01*
G01*
%TO.C,TP5*%
X79200000Y-77500000D02*
G75*
G02*
X77800000Y-77500000I-700000J0D01*
G01*
X77800000Y-77500000D02*
G75*
G02*
X79200000Y-77500000I700000J0D01*
G01*
%TO.C,TP4*%
X79200000Y-75000000D02*
G75*
G02*
X77800000Y-75000000I-700000J0D01*
G01*
X77800000Y-75000000D02*
G75*
G02*
X79200000Y-75000000I700000J0D01*
G01*
%TO.C,TP3*%
X111450000Y-64750000D02*
G75*
G02*
X110050000Y-64750000I-700000J0D01*
G01*
X110050000Y-64750000D02*
G75*
G02*
X111450000Y-64750000I700000J0D01*
G01*
%TO.C,TP2*%
X88000000Y-60500000D02*
G75*
G02*
X86600000Y-60500000I-700000J0D01*
G01*
X86600000Y-60500000D02*
G75*
G02*
X88000000Y-60500000I700000J0D01*
G01*
%TO.C,TP1*%
X90000000Y-60500000D02*
G75*
G02*
X88600000Y-60500000I-700000J0D01*
G01*
X88600000Y-60500000D02*
G75*
G02*
X90000000Y-60500000I700000J0D01*
G01*
%TO.C,R8*%
X114362742Y-61277500D02*
X114837258Y-61277500D01*
X114362742Y-62322500D02*
X114837258Y-62322500D01*
%TO.C,Q2*%
X115210000Y-65860000D02*
X113390000Y-65860000D01*
X115210000Y-65810000D02*
X115210000Y-65860000D01*
X115210000Y-63910000D02*
X115210000Y-64690000D01*
X115210000Y-62740000D02*
X115210000Y-62790000D01*
X113390000Y-65860000D02*
X113390000Y-64860000D01*
X113390000Y-63740000D02*
X113390000Y-62740000D01*
X113390000Y-62740000D02*
X115210000Y-62740000D01*
X115750000Y-64680000D02*
X115510000Y-64350000D01*
X115990000Y-64350000D01*
X115750000Y-64680000D01*
G36*
X115750000Y-64680000D02*
G01*
X115510000Y-64350000D01*
X115990000Y-64350000D01*
X115750000Y-64680000D01*
G37*
%TO.C,SW1*%
X110190000Y-46770000D02*
X116650000Y-46770000D01*
X110190000Y-46800000D02*
X110190000Y-46770000D01*
X110190000Y-48700000D02*
X110190000Y-51300000D01*
X110190000Y-53230000D02*
X110190000Y-53200000D01*
X110190000Y-53230000D02*
X116650000Y-53230000D01*
X116650000Y-46770000D02*
X116650000Y-46800000D01*
X116650000Y-48700000D02*
X116650000Y-51300000D01*
X116650000Y-53230000D02*
X116650000Y-53200000D01*
%TO.C,BZ1*%
X138100000Y-64000000D02*
G75*
G02*
X123900000Y-64000000I-7100000J0D01*
G01*
X123900000Y-64000000D02*
G75*
G02*
X138100000Y-64000000I7100000J0D01*
G01*
%TO.C,C8*%
X108865580Y-67715000D02*
X108584420Y-67715000D01*
X108865580Y-68735000D02*
X108584420Y-68735000D01*
%TO.C,D3*%
X132200000Y-75785000D02*
X134485000Y-75785000D01*
X134485000Y-74315000D02*
X132200000Y-74315000D01*
X134485000Y-75785000D02*
X134485000Y-74315000D01*
%TO.C,R7*%
X92522500Y-67562742D02*
X92522500Y-68037258D01*
X91477500Y-67562742D02*
X91477500Y-68037258D01*
%TO.C,R6*%
X129237258Y-74527500D02*
X128762742Y-74527500D01*
X129237258Y-75572500D02*
X128762742Y-75572500D01*
%TO.C,R2*%
X96860000Y-56346359D02*
X96860000Y-56653641D01*
X97620000Y-56346359D02*
X97620000Y-56653641D01*
%TO.C,D2*%
X61015000Y-58515000D02*
X61015000Y-59985000D01*
X61015000Y-59985000D02*
X63300000Y-59985000D01*
X63300000Y-58515000D02*
X61015000Y-58515000D01*
%TO.C,U3*%
X94890000Y-61565000D02*
X95840000Y-61565000D01*
X94890000Y-62515000D02*
X94890000Y-61565000D01*
X94890000Y-71785000D02*
X94890000Y-70835000D01*
X95840000Y-71785000D02*
X94890000Y-71785000D01*
X104160000Y-61565000D02*
X105110000Y-61565000D01*
X105110000Y-61565000D02*
X105110000Y-62515000D01*
X105110000Y-70835000D02*
X105110000Y-71785000D01*
X105110000Y-71785000D02*
X104160000Y-71785000D01*
X95840000Y-72425000D02*
X95370000Y-72765000D01*
X95370000Y-72085000D01*
X95840000Y-72425000D01*
G36*
X95840000Y-72425000D02*
G01*
X95370000Y-72765000D01*
X95370000Y-72085000D01*
X95840000Y-72425000D01*
G37*
%TO.C,J1*%
X95300000Y-47000000D02*
X95300000Y-45100000D01*
X95300000Y-50900000D02*
X95300000Y-48900000D01*
X104700000Y-45100000D02*
X95300000Y-45100000D01*
X104700000Y-47000000D02*
X104700000Y-45100000D01*
X104700000Y-50900000D02*
X104700000Y-48900000D01*
%TO.C,C7*%
X105930580Y-72350000D02*
X105649420Y-72350000D01*
X105930580Y-73370000D02*
X105649420Y-73370000D01*
%TO.C,SW2*%
X125770000Y-46770000D02*
X132230000Y-46770000D01*
X125770000Y-46800000D02*
X125770000Y-46770000D01*
X125770000Y-48700000D02*
X125770000Y-51300000D01*
X125770000Y-53230000D02*
X125770000Y-53200000D01*
X125770000Y-53230000D02*
X132230000Y-53230000D01*
X132230000Y-46770000D02*
X132230000Y-46800000D01*
X132230000Y-48700000D02*
X132230000Y-51300000D01*
X132230000Y-53230000D02*
X132230000Y-53200000D01*
%TO.C,J3*%
X68905000Y-49185000D02*
X68905000Y-52815000D01*
X68970000Y-49185000D02*
X68905000Y-49185000D01*
X68970000Y-52815000D02*
X68905000Y-52815000D01*
X77950000Y-47910000D02*
X77950000Y-49185000D01*
X78015000Y-49185000D02*
X77950000Y-49185000D01*
X78015000Y-49185000D02*
X78015000Y-52815000D01*
X78015000Y-52815000D02*
X77950000Y-52815000D01*
%TO.C,R4*%
X65687742Y-56477500D02*
X66162258Y-56477500D01*
X65687742Y-57522500D02*
X66162258Y-57522500D01*
%TO.C,R1*%
X102370000Y-56653641D02*
X102370000Y-56346359D01*
X103130000Y-56653641D02*
X103130000Y-56346359D01*
%TO.C,C6*%
X93509420Y-72290000D02*
X93790580Y-72290000D01*
X93509420Y-73310000D02*
X93790580Y-73310000D01*
%TO.C,U1*%
X86915000Y-52390000D02*
X86915000Y-53650000D01*
X86915000Y-59210000D02*
X86915000Y-57950000D01*
X90675000Y-52390000D02*
X86915000Y-52390000D01*
X90675000Y-59210000D02*
X86915000Y-59210000D01*
X92195000Y-59440000D02*
X91715000Y-59440000D01*
X91955000Y-59110000D01*
X92195000Y-59440000D01*
G36*
X92195000Y-59440000D02*
G01*
X91715000Y-59440000D01*
X91955000Y-59110000D01*
X92195000Y-59440000D01*
G37*
%TO.C,R5*%
X65762742Y-58727500D02*
X66237258Y-58727500D01*
X65762742Y-59772500D02*
X66237258Y-59772500D01*
%TO.C,U2*%
X98490000Y-55590000D02*
X98540000Y-55590000D01*
X98490000Y-57410000D02*
X98490000Y-55590000D01*
X98540000Y-57410000D02*
X98490000Y-57410000D01*
X101560000Y-55590000D02*
X101610000Y-55590000D01*
X101610000Y-55590000D02*
X101610000Y-57410000D01*
X101610000Y-57410000D02*
X101560000Y-57410000D01*
X98540000Y-57950000D02*
X98210000Y-58190000D01*
X98210000Y-57710000D01*
X98540000Y-57950000D01*
G36*
X98540000Y-57950000D02*
G01*
X98210000Y-58190000D01*
X98210000Y-57710000D01*
X98540000Y-57950000D01*
G37*
%TO.C,C10*%
X109260580Y-70980000D02*
X108979420Y-70980000D01*
X109260580Y-72000000D02*
X108979420Y-72000000D01*
%TO.C,D1*%
X61015000Y-56265000D02*
X61015000Y-57735000D01*
X61015000Y-57735000D02*
X63300000Y-57735000D01*
X63300000Y-56265000D02*
X61015000Y-56265000D01*
D13*
%TO.C,J2*%
X80000000Y-74000000D02*
X120000000Y-74000000D01*
X80000000Y-134000000D02*
X80000000Y-74000000D01*
X120000000Y-74000000D02*
X120000000Y-134000000D01*
X120000000Y-134000000D02*
X80000000Y-134000000D01*
D10*
X91669000Y-73192000D02*
G75*
G02*
X91469000Y-73192000I-100000J0D01*
G01*
X91469000Y-73192000D02*
G75*
G02*
X91669000Y-73192000I100000J0D01*
G01*
D12*
%TO.C,C4*%
X89680000Y-63520580D02*
X89680000Y-63239420D01*
X90700000Y-63520580D02*
X90700000Y-63239420D01*
%TO.C,C5*%
X90559420Y-69690000D02*
X90840580Y-69690000D01*
X90559420Y-70710000D02*
X90840580Y-70710000D01*
%TO.C,R3*%
X109762742Y-62477500D02*
X110237258Y-62477500D01*
X109762742Y-63522500D02*
X110237258Y-63522500D01*
%TO.C,C1*%
X91940580Y-59790000D02*
X91659420Y-59790000D01*
X91940580Y-60810000D02*
X91659420Y-60810000D01*
%TO.C,C9*%
X106679420Y-60260000D02*
X106960580Y-60260000D01*
X106679420Y-61280000D02*
X106960580Y-61280000D01*
%TO.C,C11*%
X122590000Y-49859420D02*
X122590000Y-50140580D01*
X123610000Y-49859420D02*
X123610000Y-50140580D01*
%TO.C,C3*%
X86740000Y-46540000D02*
X86740000Y-48240000D01*
X86740000Y-52060000D02*
X86740000Y-50360000D01*
X91195563Y-46540000D02*
X86740000Y-46540000D01*
X91195563Y-52060000D02*
X86740000Y-52060000D01*
X92260000Y-47604437D02*
X91195563Y-46540000D01*
X92260000Y-47604437D02*
X92260000Y-48240000D01*
X92260000Y-50995563D02*
X91195563Y-52060000D01*
X92260000Y-50995563D02*
X92260000Y-50360000D01*
X92812500Y-51297500D02*
X92812500Y-50672500D01*
X93125000Y-50985000D02*
X92500000Y-50985000D01*
%TO.C,C2*%
X85940580Y-72415000D02*
X85659420Y-72415000D01*
X85940580Y-73435000D02*
X85659420Y-73435000D01*
%TD*%
M02*
