%TF.GenerationSoftware,KiCad,Pcbnew,9.0.7*%
%TF.CreationDate,2026-06-11T13:29:59+02:00*%
%TF.ProjectId,usb_rfid_reader,7573625f-7266-4696-945f-726561646572,rev?*%
%TF.SameCoordinates,Original*%
%TF.FileFunction,Copper,L3,Inr*%
%TF.FilePolarity,Positive*%
%FSLAX46Y46*%
G04 Gerber Fmt 4.6, Leading zero omitted, Abs format (unit mm)*
G04 Created by KiCad (PCBNEW 9.0.7) date 2026-06-11 13:29:59*
%MOMM*%
%LPD*%
G01*
G04 APERTURE LIST*
%TA.AperFunction,ComponentPad*%
%ADD10C,5.600000*%
%TD*%
%TA.AperFunction,ComponentPad*%
%ADD11R,2.000000X2.000000*%
%TD*%
%TA.AperFunction,ComponentPad*%
%ADD12C,2.000000*%
%TD*%
%TA.AperFunction,HeatsinkPad*%
%ADD13O,1.000000X2.100000*%
%TD*%
%TA.AperFunction,HeatsinkPad*%
%ADD14O,1.000000X1.600000*%
%TD*%
%TA.AperFunction,ComponentPad*%
%ADD15R,1.725000X1.725000*%
%TD*%
%TA.AperFunction,ComponentPad*%
%ADD16C,1.725000*%
%TD*%
%TA.AperFunction,ViaPad*%
%ADD17C,0.600000*%
%TD*%
%TA.AperFunction,ViaPad*%
%ADD18C,0.800000*%
%TD*%
G04 APERTURE END LIST*
D10*
%TO.N,GND*%
%TO.C,H4*%
X60000000Y-130000000D03*
%TD*%
D11*
%TO.N,+3.3V*%
%TO.C,BZ1*%
X136000000Y-64000000D03*
D12*
%TO.N,Net-(BZ1--)*%
X126000000Y-64000000D03*
%TD*%
D13*
%TO.N,GND*%
%TO.C,J1*%
X104320000Y-52130000D03*
D14*
X104320000Y-47950000D03*
D13*
X95680000Y-52130000D03*
D14*
X95680000Y-47950000D03*
%TD*%
D10*
%TO.N,GND*%
%TO.C,H1*%
X60000000Y-50000000D03*
%TD*%
%TO.N,GND*%
%TO.C,H2*%
X140000000Y-50000000D03*
%TD*%
D15*
%TO.N,+3.3V*%
%TO.C,J2*%
X91550000Y-76240000D03*
D16*
%TO.N,/RC522_RST*%
X94090000Y-76240000D03*
%TO.N,GND*%
X96630000Y-76240000D03*
%TO.N,unconnected-(J2-Pin_4-Pad4)*%
X99170000Y-76240000D03*
%TO.N,/RC522_SPI2_MISO*%
X101710000Y-76240000D03*
%TO.N,/RC522_SPI2_MOSI*%
X104250000Y-76240000D03*
%TO.N,/RC522_SPI2_CLK*%
X106790000Y-76240000D03*
%TO.N,/RC522_SPI2_CE_N*%
X109330000Y-76240000D03*
%TD*%
D10*
%TO.N,GND*%
%TO.C,H3*%
X140000000Y-130000000D03*
%TD*%
D17*
%TO.N,GND*%
X60700000Y-59200000D03*
X60700000Y-57000000D03*
X110200000Y-60400000D03*
X83750000Y-58500000D03*
X88500000Y-63750000D03*
X91700000Y-64500000D03*
X95300000Y-60300000D03*
X95600000Y-65900000D03*
X96200000Y-67600000D03*
X103300000Y-68300000D03*
X104300000Y-66800000D03*
X99300000Y-64400000D03*
X101000000Y-63600000D03*
X98400000Y-63400000D03*
X89900000Y-69300000D03*
%TO.N,+3.3V*%
X92785000Y-70500000D03*
%TO.N,GND*%
X91400000Y-72400000D03*
%TO.N,/RC522_RST*%
X101200000Y-62700000D03*
%TO.N,/BOOT0*%
X100315744Y-62388203D03*
D18*
%TO.N,+3.3V*%
X87300000Y-59600000D03*
%TO.N,GND*%
X113100000Y-65300000D03*
X112800000Y-61800000D03*
%TO.N,+3.3V*%
X87562500Y-73912500D03*
D17*
X90825000Y-62605000D03*
X68250000Y-59250000D03*
X94000000Y-53750000D03*
D18*
X76000000Y-47775000D03*
D17*
X106874142Y-69166715D03*
X95600000Y-59500000D03*
X95520000Y-73099000D03*
X107500000Y-62750000D03*
X91975000Y-51000000D03*
X106800000Y-71300000D03*
X117400000Y-47000000D03*
X109400000Y-47050000D03*
X103225735Y-73775735D03*
D18*
%TO.N,GND*%
X70000000Y-80000000D03*
X144000000Y-60000000D03*
X125000000Y-95000000D03*
X144000000Y-120000000D03*
X140000000Y-80000000D03*
X135000000Y-105000000D03*
X60000000Y-115000000D03*
X140000000Y-46000000D03*
X140000000Y-120000000D03*
X60000000Y-134000000D03*
X65000000Y-80000000D03*
X130000000Y-134000000D03*
X144000000Y-115000000D03*
X60000000Y-70000000D03*
X70000000Y-65000000D03*
X65000000Y-125000000D03*
X130000000Y-110000000D03*
X65000000Y-110000000D03*
X144000000Y-110000000D03*
X75000000Y-65000000D03*
X60000000Y-110000000D03*
X144000000Y-90000000D03*
D17*
X85675000Y-50925000D03*
D18*
X65000000Y-120000000D03*
X125000000Y-110000000D03*
X70000000Y-105000000D03*
X140000000Y-105000000D03*
X140000000Y-55000000D03*
X56000000Y-90000000D03*
X60000000Y-75000000D03*
X125000000Y-90000000D03*
X70000000Y-120000000D03*
X65000000Y-46000000D03*
X56000000Y-75000000D03*
D17*
X106545153Y-72144814D03*
D18*
X125000000Y-134000000D03*
X130000000Y-90000000D03*
X130000000Y-95000000D03*
X60000000Y-65000000D03*
D17*
X90775000Y-64155000D03*
D18*
X130000000Y-80000000D03*
X130000000Y-100000000D03*
X130000000Y-125000000D03*
X140000000Y-85000000D03*
X56000000Y-130000000D03*
X125000000Y-105000000D03*
X135000000Y-46000000D03*
X125000000Y-125000000D03*
X125000000Y-85000000D03*
X140000000Y-125000000D03*
X60000000Y-125000000D03*
D17*
X101200000Y-73900000D03*
D18*
X75000000Y-46000000D03*
X56000000Y-100000000D03*
X60000000Y-120000000D03*
X75000000Y-134000000D03*
D17*
X96650000Y-59450000D03*
D18*
X144000000Y-85000000D03*
X56000000Y-85000000D03*
X75000000Y-125000000D03*
X80000000Y-46000000D03*
X135000000Y-100000000D03*
X56000000Y-105000000D03*
D17*
X107050000Y-70400000D03*
D18*
X70000000Y-70000000D03*
X70000000Y-46000000D03*
X56000000Y-80000000D03*
D17*
X107162500Y-63662500D03*
D18*
X135000000Y-95000000D03*
D17*
X104300000Y-54300000D03*
D18*
X75000000Y-105000000D03*
X85000000Y-46000000D03*
X125000000Y-100000000D03*
X125000000Y-115000000D03*
X65000000Y-65000000D03*
D17*
X106050000Y-61640000D03*
D18*
X140000000Y-134000000D03*
X75000000Y-130000000D03*
X60000000Y-85000000D03*
X144000000Y-75000000D03*
X144000000Y-50000000D03*
X135000000Y-134000000D03*
X60000000Y-105000000D03*
X56000000Y-55000000D03*
X125000000Y-120000000D03*
X140000000Y-110000000D03*
X130000000Y-85000000D03*
X70000000Y-134000000D03*
X56000000Y-110000000D03*
X65000000Y-115000000D03*
X65000000Y-70000000D03*
X70000000Y-75000000D03*
X70000000Y-85000000D03*
X56000000Y-115000000D03*
X115000000Y-46000000D03*
X65000000Y-85000000D03*
X90000000Y-46000000D03*
X65000000Y-105000000D03*
X140000000Y-95000000D03*
D17*
X92674221Y-69758224D03*
D18*
X70000000Y-125000000D03*
X144000000Y-100000000D03*
X75000000Y-115000000D03*
X65000000Y-75000000D03*
X135000000Y-115000000D03*
X65000000Y-130000000D03*
X56000000Y-70000000D03*
X120000000Y-46000000D03*
X56000000Y-95000000D03*
X144000000Y-70000000D03*
X56000000Y-50000000D03*
X56000000Y-65000000D03*
X125000000Y-130000000D03*
X110000000Y-46000000D03*
X140000000Y-90000000D03*
X130000000Y-46000000D03*
X65000000Y-134000000D03*
X70000000Y-130000000D03*
X130000000Y-120000000D03*
X135000000Y-130000000D03*
X135000000Y-120000000D03*
X144000000Y-130000000D03*
X130000000Y-130000000D03*
X140000000Y-100000000D03*
X144000000Y-105000000D03*
X144000000Y-125000000D03*
X144000000Y-65000000D03*
X130000000Y-115000000D03*
X70000000Y-110000000D03*
X56000000Y-120000000D03*
X140000000Y-115000000D03*
X60000000Y-80000000D03*
X56000000Y-125000000D03*
X125000000Y-80000000D03*
X70000000Y-115000000D03*
X135000000Y-90000000D03*
X75000000Y-120000000D03*
X135000000Y-125000000D03*
X60000000Y-46000000D03*
X140000000Y-60000000D03*
X144000000Y-80000000D03*
X75000000Y-70000000D03*
X130000000Y-105000000D03*
X135000000Y-110000000D03*
X144000000Y-95000000D03*
X144000000Y-55000000D03*
X135000000Y-85000000D03*
X75000000Y-110000000D03*
D17*
X99572526Y-58773796D03*
D18*
X140000000Y-65000000D03*
X125000000Y-46000000D03*
X135000000Y-80000000D03*
%TO.N,+5V*%
X90775000Y-58100000D03*
D17*
X93600000Y-60300000D03*
X102450000Y-53925000D03*
X99742701Y-56442574D03*
X97550000Y-53900000D03*
X93150000Y-58125000D03*
X78250000Y-57250000D03*
D18*
%TO.N,/NRST*%
X109703000Y-74425000D03*
D17*
X110000000Y-61250000D03*
%TO.N,/RC522_SPI2_CE_N*%
X104300000Y-59800000D03*
%TO.N,/RC522_SPI2_CLK*%
X103492137Y-59743551D03*
%TO.N,/RC522_SPI2_MISO*%
X102900000Y-63000000D03*
%TO.N,/VCP_USART2_RX*%
X104600000Y-70425000D03*
X69700000Y-50649997D03*
%TO.N,/VCP_USART2_TX*%
X69700000Y-51400000D03*
X104400000Y-71700000D03*
%TO.N,/BOOT0*%
X109250000Y-53750000D03*
%TO.N,/RC522_SPI2_MOSI*%
X101900000Y-62400000D03*
%TD*%
%TA.AperFunction,Conductor*%
%TO.N,GND*%
G36*
X140002152Y-45200593D02*
G01*
X140414000Y-45218576D01*
X140422580Y-45219326D01*
X140829140Y-45272851D01*
X140837645Y-45274351D01*
X140952577Y-45299830D01*
X141237990Y-45363105D01*
X141246305Y-45365332D01*
X141637403Y-45488645D01*
X141645519Y-45491599D01*
X142024372Y-45648526D01*
X142032184Y-45652168D01*
X142395910Y-45841512D01*
X142403390Y-45845830D01*
X142749240Y-46066161D01*
X142756314Y-46071115D01*
X143081626Y-46320736D01*
X143088242Y-46326287D01*
X143390571Y-46603320D01*
X143396679Y-46609428D01*
X143673712Y-46911757D01*
X143679263Y-46918373D01*
X143928884Y-47243685D01*
X143933838Y-47250759D01*
X144154169Y-47596609D01*
X144158487Y-47604089D01*
X144347827Y-47967808D01*
X144351477Y-47975635D01*
X144508400Y-48354480D01*
X144511354Y-48362596D01*
X144634662Y-48753678D01*
X144636897Y-48762021D01*
X144725648Y-49162354D01*
X144727148Y-49170859D01*
X144780671Y-49577407D01*
X144781424Y-49586010D01*
X144799406Y-49997846D01*
X144799500Y-50002165D01*
X144799500Y-129997834D01*
X144799406Y-130002153D01*
X144781424Y-130413989D01*
X144780671Y-130422592D01*
X144727148Y-130829140D01*
X144725648Y-130837645D01*
X144636897Y-131237978D01*
X144634662Y-131246321D01*
X144511354Y-131637403D01*
X144508400Y-131645519D01*
X144351477Y-132024364D01*
X144347827Y-132032191D01*
X144158487Y-132395910D01*
X144154169Y-132403390D01*
X143933838Y-132749240D01*
X143928884Y-132756314D01*
X143679263Y-133081626D01*
X143673712Y-133088242D01*
X143396679Y-133390571D01*
X143390571Y-133396679D01*
X143088242Y-133673712D01*
X143081626Y-133679263D01*
X142756314Y-133928884D01*
X142749240Y-133933838D01*
X142403390Y-134154169D01*
X142395910Y-134158487D01*
X142032191Y-134347827D01*
X142024364Y-134351477D01*
X141645519Y-134508400D01*
X141637403Y-134511354D01*
X141246321Y-134634662D01*
X141237978Y-134636897D01*
X140837645Y-134725648D01*
X140829140Y-134727148D01*
X140422592Y-134780671D01*
X140413989Y-134781424D01*
X140046120Y-134797486D01*
X140002151Y-134799406D01*
X139997835Y-134799500D01*
X120099000Y-134799500D01*
X120040809Y-134780593D01*
X120004845Y-134731093D01*
X120000000Y-134700500D01*
X120000000Y-80000001D01*
X120000000Y-80000000D01*
X80000000Y-80000000D01*
X80000000Y-80000001D01*
X80000000Y-134700500D01*
X79981093Y-134758691D01*
X79931593Y-134794655D01*
X79901000Y-134799500D01*
X60002165Y-134799500D01*
X59997848Y-134799406D01*
X59949150Y-134797279D01*
X59586010Y-134781424D01*
X59577407Y-134780671D01*
X59170859Y-134727148D01*
X59162354Y-134725648D01*
X58762021Y-134636897D01*
X58753678Y-134634662D01*
X58362596Y-134511354D01*
X58354480Y-134508400D01*
X57975635Y-134351477D01*
X57967808Y-134347827D01*
X57604089Y-134158487D01*
X57596609Y-134154169D01*
X57250759Y-133933838D01*
X57243685Y-133928884D01*
X56918373Y-133679263D01*
X56911757Y-133673712D01*
X56609428Y-133396679D01*
X56603320Y-133390571D01*
X56326287Y-133088242D01*
X56320736Y-133081626D01*
X56071115Y-132756314D01*
X56066161Y-132749240D01*
X55845830Y-132403390D01*
X55841512Y-132395910D01*
X55652172Y-132032191D01*
X55648522Y-132024364D01*
X55491599Y-131645519D01*
X55488645Y-131637403D01*
X55440643Y-131485160D01*
X55365332Y-131246305D01*
X55363105Y-131237990D01*
X55274351Y-130837645D01*
X55272851Y-130829140D01*
X55219326Y-130422580D01*
X55218576Y-130414000D01*
X55200594Y-130002152D01*
X55200500Y-129997834D01*
X55200500Y-75357753D01*
X90487000Y-75357753D01*
X90487000Y-77122246D01*
X90487001Y-77122258D01*
X90498632Y-77180727D01*
X90498633Y-77180731D01*
X90542948Y-77247052D01*
X90609269Y-77291367D01*
X90653731Y-77300211D01*
X90667741Y-77302998D01*
X90667746Y-77302998D01*
X90667752Y-77303000D01*
X90667753Y-77303000D01*
X92432247Y-77303000D01*
X92432248Y-77303000D01*
X92490731Y-77291367D01*
X92557052Y-77247052D01*
X92601367Y-77180731D01*
X92613000Y-77122248D01*
X92613000Y-76135301D01*
X93027000Y-76135301D01*
X93027000Y-76344698D01*
X93067850Y-76550064D01*
X93147981Y-76743518D01*
X93147982Y-76743519D01*
X93264314Y-76917623D01*
X93412377Y-77065686D01*
X93586481Y-77182018D01*
X93779934Y-77262149D01*
X93985304Y-77303000D01*
X93985305Y-77303000D01*
X94194695Y-77303000D01*
X94194696Y-77303000D01*
X94400066Y-77262149D01*
X94593519Y-77182018D01*
X94767623Y-77065686D01*
X94915686Y-76917623D01*
X95032018Y-76743519D01*
X95112149Y-76550066D01*
X95153000Y-76344696D01*
X95153000Y-76135304D01*
X95152999Y-76135301D01*
X98107000Y-76135301D01*
X98107000Y-76344698D01*
X98147850Y-76550064D01*
X98227981Y-76743518D01*
X98227982Y-76743519D01*
X98344314Y-76917623D01*
X98492377Y-77065686D01*
X98666481Y-77182018D01*
X98859934Y-77262149D01*
X99065304Y-77303000D01*
X99065305Y-77303000D01*
X99274695Y-77303000D01*
X99274696Y-77303000D01*
X99480066Y-77262149D01*
X99673519Y-77182018D01*
X99847623Y-77065686D01*
X99995686Y-76917623D01*
X100112018Y-76743519D01*
X100192149Y-76550066D01*
X100233000Y-76344696D01*
X100233000Y-76135304D01*
X100232999Y-76135301D01*
X100647000Y-76135301D01*
X100647000Y-76344698D01*
X100687850Y-76550064D01*
X100767981Y-76743518D01*
X100767982Y-76743519D01*
X100884314Y-76917623D01*
X101032377Y-77065686D01*
X101206481Y-77182018D01*
X101399934Y-77262149D01*
X101605304Y-77303000D01*
X101605305Y-77303000D01*
X101814695Y-77303000D01*
X101814696Y-77303000D01*
X102020066Y-77262149D01*
X102213519Y-77182018D01*
X102387623Y-77065686D01*
X102535686Y-76917623D01*
X102652018Y-76743519D01*
X102732149Y-76550066D01*
X102773000Y-76344696D01*
X102773000Y-76135304D01*
X102772999Y-76135301D01*
X103187000Y-76135301D01*
X103187000Y-76344698D01*
X103227850Y-76550064D01*
X103307981Y-76743518D01*
X103307982Y-76743519D01*
X103424314Y-76917623D01*
X103572377Y-77065686D01*
X103746481Y-77182018D01*
X103939934Y-77262149D01*
X104145304Y-77303000D01*
X104145305Y-77303000D01*
X104354695Y-77303000D01*
X104354696Y-77303000D01*
X104560066Y-77262149D01*
X104753519Y-77182018D01*
X104927623Y-77065686D01*
X105075686Y-76917623D01*
X105192018Y-76743519D01*
X105272149Y-76550066D01*
X105313000Y-76344696D01*
X105313000Y-76135304D01*
X105312999Y-76135301D01*
X105727000Y-76135301D01*
X105727000Y-76344698D01*
X105767850Y-76550064D01*
X105847981Y-76743518D01*
X105847982Y-76743519D01*
X105964314Y-76917623D01*
X106112377Y-77065686D01*
X106286481Y-77182018D01*
X106479934Y-77262149D01*
X106685304Y-77303000D01*
X106685305Y-77303000D01*
X106894695Y-77303000D01*
X106894696Y-77303000D01*
X107100066Y-77262149D01*
X107293519Y-77182018D01*
X107467623Y-77065686D01*
X107615686Y-76917623D01*
X107732018Y-76743519D01*
X107812149Y-76550066D01*
X107853000Y-76344696D01*
X107853000Y-76135304D01*
X107852999Y-76135301D01*
X108267000Y-76135301D01*
X108267000Y-76344698D01*
X108307850Y-76550064D01*
X108387981Y-76743518D01*
X108387982Y-76743519D01*
X108504314Y-76917623D01*
X108652377Y-77065686D01*
X108826481Y-77182018D01*
X109019934Y-77262149D01*
X109225304Y-77303000D01*
X109225305Y-77303000D01*
X109434695Y-77303000D01*
X109434696Y-77303000D01*
X109640066Y-77262149D01*
X109833519Y-77182018D01*
X110007623Y-77065686D01*
X110155686Y-76917623D01*
X110272018Y-76743519D01*
X110352149Y-76550066D01*
X110393000Y-76344696D01*
X110393000Y-76135304D01*
X110352149Y-75929934D01*
X110272018Y-75736481D01*
X110155686Y-75562377D01*
X110007623Y-75414314D01*
X110007619Y-75414311D01*
X109833518Y-75297981D01*
X109724628Y-75252877D01*
X109640066Y-75217851D01*
X109640063Y-75217850D01*
X109635572Y-75215990D01*
X109636565Y-75213590D01*
X109594493Y-75184326D01*
X109574393Y-75126536D01*
X109592099Y-75067969D01*
X109640849Y-75030995D01*
X109673372Y-75025500D01*
X109782055Y-75025500D01*
X109782057Y-75025500D01*
X109934784Y-74984577D01*
X110071716Y-74905520D01*
X110183520Y-74793716D01*
X110262577Y-74656784D01*
X110303500Y-74504057D01*
X110303500Y-74345943D01*
X110262577Y-74193216D01*
X110183520Y-74056284D01*
X110071716Y-73944480D01*
X109934784Y-73865423D01*
X109782057Y-73824500D01*
X109623943Y-73824500D01*
X109471216Y-73865423D01*
X109334284Y-73944480D01*
X109222480Y-74056284D01*
X109143423Y-74193216D01*
X109102500Y-74345943D01*
X109102500Y-74504057D01*
X109143423Y-74656784D01*
X109222480Y-74793716D01*
X109334284Y-74905520D01*
X109471216Y-74984577D01*
X109471218Y-74984577D01*
X109471221Y-74984579D01*
X109475945Y-74986536D01*
X109522471Y-75026272D01*
X109536755Y-75085767D01*
X109513340Y-75142295D01*
X109461171Y-75174265D01*
X109438060Y-75177000D01*
X109225301Y-75177000D01*
X109019935Y-75217850D01*
X108826481Y-75297981D01*
X108652380Y-75414311D01*
X108504311Y-75562380D01*
X108387981Y-75736481D01*
X108307850Y-75929935D01*
X108267000Y-76135301D01*
X107852999Y-76135301D01*
X107812149Y-75929934D01*
X107732018Y-75736481D01*
X107615686Y-75562377D01*
X107467623Y-75414314D01*
X107467619Y-75414311D01*
X107293518Y-75297981D01*
X107100064Y-75217850D01*
X106894698Y-75177000D01*
X106894696Y-75177000D01*
X106685304Y-75177000D01*
X106685301Y-75177000D01*
X106479935Y-75217850D01*
X106286481Y-75297981D01*
X106112380Y-75414311D01*
X105964311Y-75562380D01*
X105847981Y-75736481D01*
X105767850Y-75929935D01*
X105727000Y-76135301D01*
X105312999Y-76135301D01*
X105272149Y-75929934D01*
X105192018Y-75736481D01*
X105075686Y-75562377D01*
X104927623Y-75414314D01*
X104927619Y-75414311D01*
X104753518Y-75297981D01*
X104560064Y-75217850D01*
X104354698Y-75177000D01*
X104354696Y-75177000D01*
X104145304Y-75177000D01*
X104145301Y-75177000D01*
X103939935Y-75217850D01*
X103746481Y-75297981D01*
X103572380Y-75414311D01*
X103424311Y-75562380D01*
X103307981Y-75736481D01*
X103227850Y-75929935D01*
X103187000Y-76135301D01*
X102772999Y-76135301D01*
X102732149Y-75929934D01*
X102652018Y-75736481D01*
X102535686Y-75562377D01*
X102387623Y-75414314D01*
X102387619Y-75414311D01*
X102213518Y-75297981D01*
X102020064Y-75217850D01*
X101814698Y-75177000D01*
X101814696Y-75177000D01*
X101605304Y-75177000D01*
X101605301Y-75177000D01*
X101399935Y-75217850D01*
X101206481Y-75297981D01*
X101032380Y-75414311D01*
X100884311Y-75562380D01*
X100767981Y-75736481D01*
X100687850Y-75929935D01*
X100647000Y-76135301D01*
X100232999Y-76135301D01*
X100192149Y-75929934D01*
X100112018Y-75736481D01*
X99995686Y-75562377D01*
X99847623Y-75414314D01*
X99847619Y-75414311D01*
X99673518Y-75297981D01*
X99480064Y-75217850D01*
X99274698Y-75177000D01*
X99274696Y-75177000D01*
X99065304Y-75177000D01*
X99065301Y-75177000D01*
X98859935Y-75217850D01*
X98666481Y-75297981D01*
X98492380Y-75414311D01*
X98344311Y-75562380D01*
X98227981Y-75736481D01*
X98147850Y-75929935D01*
X98107000Y-76135301D01*
X95152999Y-76135301D01*
X95112149Y-75929934D01*
X95032018Y-75736481D01*
X94915686Y-75562377D01*
X94767623Y-75414314D01*
X94767619Y-75414311D01*
X94593518Y-75297981D01*
X94400064Y-75217850D01*
X94194698Y-75177000D01*
X94194696Y-75177000D01*
X93985304Y-75177000D01*
X93985301Y-75177000D01*
X93779935Y-75217850D01*
X93586481Y-75297981D01*
X93412380Y-75414311D01*
X93264311Y-75562380D01*
X93147981Y-75736481D01*
X93067850Y-75929935D01*
X93027000Y-76135301D01*
X92613000Y-76135301D01*
X92613000Y-75357752D01*
X92601367Y-75299269D01*
X92557052Y-75232948D01*
X92557048Y-75232945D01*
X92490733Y-75188634D01*
X92490731Y-75188633D01*
X92490728Y-75188632D01*
X92490727Y-75188632D01*
X92432258Y-75177001D01*
X92432248Y-75177000D01*
X90667752Y-75177000D01*
X90667751Y-75177000D01*
X90667741Y-75177001D01*
X90609272Y-75188632D01*
X90609266Y-75188634D01*
X90542951Y-75232945D01*
X90542945Y-75232951D01*
X90498634Y-75299266D01*
X90498632Y-75299272D01*
X90487001Y-75357741D01*
X90487000Y-75357753D01*
X55200500Y-75357753D01*
X55200500Y-73833443D01*
X86962000Y-73833443D01*
X86962000Y-73991557D01*
X87002923Y-74144284D01*
X87081980Y-74281216D01*
X87193784Y-74393020D01*
X87330716Y-74472077D01*
X87483443Y-74513000D01*
X87483445Y-74513000D01*
X87641555Y-74513000D01*
X87641557Y-74513000D01*
X87794284Y-74472077D01*
X87931216Y-74393020D01*
X88043020Y-74281216D01*
X88122077Y-74144284D01*
X88163000Y-73991557D01*
X88163000Y-73833443D01*
X88129882Y-73709843D01*
X102725235Y-73709843D01*
X102725235Y-73841627D01*
X102731611Y-73865423D01*
X102759344Y-73968925D01*
X102825231Y-74083044D01*
X102825233Y-74083046D01*
X102825235Y-74083049D01*
X102918421Y-74176235D01*
X102918423Y-74176236D01*
X102918425Y-74176238D01*
X103032545Y-74242125D01*
X103032543Y-74242125D01*
X103032547Y-74242126D01*
X103032549Y-74242127D01*
X103159843Y-74276235D01*
X103159845Y-74276235D01*
X103291625Y-74276235D01*
X103291627Y-74276235D01*
X103418921Y-74242127D01*
X103418923Y-74242125D01*
X103418925Y-74242125D01*
X103533044Y-74176238D01*
X103533044Y-74176237D01*
X103533049Y-74176235D01*
X103626235Y-74083049D01*
X103692127Y-73968921D01*
X103726235Y-73841627D01*
X103726235Y-73709843D01*
X103692127Y-73582549D01*
X103692125Y-73582546D01*
X103692125Y-73582544D01*
X103626238Y-73468425D01*
X103626236Y-73468423D01*
X103626235Y-73468421D01*
X103533049Y-73375235D01*
X103533046Y-73375233D01*
X103533044Y-73375231D01*
X103418924Y-73309344D01*
X103418926Y-73309344D01*
X103369534Y-73296110D01*
X103291627Y-73275235D01*
X103159843Y-73275235D01*
X103081935Y-73296110D01*
X103032544Y-73309344D01*
X102918425Y-73375231D01*
X102825231Y-73468425D01*
X102759344Y-73582544D01*
X102759343Y-73582549D01*
X102725235Y-73709843D01*
X88129882Y-73709843D01*
X88122077Y-73680716D01*
X88043020Y-73543784D01*
X87931216Y-73431980D01*
X87794284Y-73352923D01*
X87641557Y-73312000D01*
X87483443Y-73312000D01*
X87330716Y-73352923D01*
X87193784Y-73431980D01*
X87081980Y-73543784D01*
X87002923Y-73680716D01*
X86962000Y-73833443D01*
X55200500Y-73833443D01*
X55200500Y-73033108D01*
X95019500Y-73033108D01*
X95019500Y-73164892D01*
X95049066Y-73275235D01*
X95053609Y-73292190D01*
X95119496Y-73406309D01*
X95119498Y-73406311D01*
X95119500Y-73406314D01*
X95212686Y-73499500D01*
X95212688Y-73499501D01*
X95212690Y-73499503D01*
X95326810Y-73565390D01*
X95326808Y-73565390D01*
X95326812Y-73565391D01*
X95326814Y-73565392D01*
X95454108Y-73599500D01*
X95454110Y-73599500D01*
X95585890Y-73599500D01*
X95585892Y-73599500D01*
X95713186Y-73565392D01*
X95713188Y-73565390D01*
X95713190Y-73565390D01*
X95827309Y-73499503D01*
X95827309Y-73499502D01*
X95827314Y-73499500D01*
X95920500Y-73406314D01*
X95938446Y-73375231D01*
X95986390Y-73292190D01*
X95986390Y-73292188D01*
X95986392Y-73292186D01*
X96020500Y-73164892D01*
X96020500Y-73033108D01*
X95986392Y-72905814D01*
X95986390Y-72905811D01*
X95986390Y-72905809D01*
X95920503Y-72791690D01*
X95920501Y-72791688D01*
X95920500Y-72791686D01*
X95827314Y-72698500D01*
X95827311Y-72698498D01*
X95827309Y-72698496D01*
X95713189Y-72632609D01*
X95713191Y-72632609D01*
X95663799Y-72619375D01*
X95585892Y-72598500D01*
X95454108Y-72598500D01*
X95376200Y-72619375D01*
X95326809Y-72632609D01*
X95212690Y-72698496D01*
X95119496Y-72791690D01*
X95053609Y-72905809D01*
X95053608Y-72905814D01*
X95019500Y-73033108D01*
X55200500Y-73033108D01*
X55200500Y-71634108D01*
X103899500Y-71634108D01*
X103899500Y-71765892D01*
X103908773Y-71800500D01*
X103933609Y-71893190D01*
X103999496Y-72007309D01*
X103999498Y-72007311D01*
X103999500Y-72007314D01*
X104092686Y-72100500D01*
X104092688Y-72100501D01*
X104092690Y-72100503D01*
X104206810Y-72166390D01*
X104206808Y-72166390D01*
X104206812Y-72166391D01*
X104206814Y-72166392D01*
X104334108Y-72200500D01*
X104334110Y-72200500D01*
X104465890Y-72200500D01*
X104465892Y-72200500D01*
X104593186Y-72166392D01*
X104593188Y-72166390D01*
X104593190Y-72166390D01*
X104707309Y-72100503D01*
X104707309Y-72100502D01*
X104707314Y-72100500D01*
X104800500Y-72007314D01*
X104866392Y-71893186D01*
X104900500Y-71765892D01*
X104900500Y-71634108D01*
X104866392Y-71506814D01*
X104866390Y-71506811D01*
X104866390Y-71506809D01*
X104800503Y-71392690D01*
X104800501Y-71392688D01*
X104800500Y-71392686D01*
X104707314Y-71299500D01*
X104707311Y-71299498D01*
X104707309Y-71299496D01*
X104594053Y-71234108D01*
X106299500Y-71234108D01*
X106299500Y-71365892D01*
X106329579Y-71478151D01*
X106333609Y-71493190D01*
X106399496Y-71607309D01*
X106399498Y-71607311D01*
X106399500Y-71607314D01*
X106492686Y-71700500D01*
X106492688Y-71700501D01*
X106492690Y-71700503D01*
X106606810Y-71766390D01*
X106606808Y-71766390D01*
X106606812Y-71766391D01*
X106606814Y-71766392D01*
X106734108Y-71800500D01*
X106734110Y-71800500D01*
X106865890Y-71800500D01*
X106865892Y-71800500D01*
X106993186Y-71766392D01*
X106993188Y-71766390D01*
X106993190Y-71766390D01*
X107107309Y-71700503D01*
X107107309Y-71700502D01*
X107107314Y-71700500D01*
X107200500Y-71607314D01*
X107266392Y-71493186D01*
X107300500Y-71365892D01*
X107300500Y-71234108D01*
X107266392Y-71106814D01*
X107266390Y-71106811D01*
X107266390Y-71106809D01*
X107200503Y-70992690D01*
X107200501Y-70992688D01*
X107200500Y-70992686D01*
X107107314Y-70899500D01*
X107107311Y-70899498D01*
X107107309Y-70899496D01*
X106993189Y-70833609D01*
X106993191Y-70833609D01*
X106943799Y-70820375D01*
X106865892Y-70799500D01*
X106734108Y-70799500D01*
X106656200Y-70820375D01*
X106606809Y-70833609D01*
X106492690Y-70899496D01*
X106399496Y-70992690D01*
X106333609Y-71106809D01*
X106333608Y-71106814D01*
X106299500Y-71234108D01*
X104594053Y-71234108D01*
X104593189Y-71233609D01*
X104593191Y-71233609D01*
X104543799Y-71220375D01*
X104465892Y-71199500D01*
X104334108Y-71199500D01*
X104256200Y-71220375D01*
X104206809Y-71233609D01*
X104092690Y-71299496D01*
X103999496Y-71392690D01*
X103933609Y-71506809D01*
X103933608Y-71506814D01*
X103899500Y-71634108D01*
X55200500Y-71634108D01*
X55200500Y-70434108D01*
X92284500Y-70434108D01*
X92284500Y-70565892D01*
X92298512Y-70618186D01*
X92318609Y-70693190D01*
X92384496Y-70807309D01*
X92384498Y-70807311D01*
X92384500Y-70807314D01*
X92477686Y-70900500D01*
X92477688Y-70900501D01*
X92477690Y-70900503D01*
X92591810Y-70966390D01*
X92591808Y-70966390D01*
X92591812Y-70966391D01*
X92591814Y-70966392D01*
X92719108Y-71000500D01*
X92719110Y-71000500D01*
X92850890Y-71000500D01*
X92850892Y-71000500D01*
X92978186Y-70966392D01*
X92978188Y-70966390D01*
X92978190Y-70966390D01*
X93092309Y-70900503D01*
X93092309Y-70900502D01*
X93092314Y-70900500D01*
X93185500Y-70807314D01*
X93185503Y-70807309D01*
X93251390Y-70693190D01*
X93251390Y-70693188D01*
X93251392Y-70693186D01*
X93285500Y-70565892D01*
X93285500Y-70434108D01*
X93265404Y-70359108D01*
X104099500Y-70359108D01*
X104099500Y-70490892D01*
X104119596Y-70565892D01*
X104133609Y-70618190D01*
X104199496Y-70732309D01*
X104199498Y-70732311D01*
X104199500Y-70732314D01*
X104292686Y-70825500D01*
X104292688Y-70825501D01*
X104292690Y-70825503D01*
X104406810Y-70891390D01*
X104406808Y-70891390D01*
X104406812Y-70891391D01*
X104406814Y-70891392D01*
X104534108Y-70925500D01*
X104534110Y-70925500D01*
X104665890Y-70925500D01*
X104665892Y-70925500D01*
X104793186Y-70891392D01*
X104793188Y-70891390D01*
X104793190Y-70891390D01*
X104907309Y-70825503D01*
X104907309Y-70825502D01*
X104907314Y-70825500D01*
X105000500Y-70732314D01*
X105066392Y-70618186D01*
X105100500Y-70490892D01*
X105100500Y-70359108D01*
X105066392Y-70231814D01*
X105066390Y-70231811D01*
X105066390Y-70231809D01*
X105000503Y-70117690D01*
X105000501Y-70117688D01*
X105000500Y-70117686D01*
X104907314Y-70024500D01*
X104907311Y-70024498D01*
X104907309Y-70024496D01*
X104793189Y-69958609D01*
X104793191Y-69958609D01*
X104743799Y-69945375D01*
X104665892Y-69924500D01*
X104534108Y-69924500D01*
X104456200Y-69945375D01*
X104406809Y-69958609D01*
X104292690Y-70024496D01*
X104199496Y-70117690D01*
X104133609Y-70231809D01*
X104133608Y-70231814D01*
X104099500Y-70359108D01*
X93265404Y-70359108D01*
X93251392Y-70306814D01*
X93208088Y-70231809D01*
X93185503Y-70192690D01*
X93185501Y-70192688D01*
X93185500Y-70192686D01*
X93092314Y-70099500D01*
X93092311Y-70099498D01*
X93092309Y-70099496D01*
X92978189Y-70033609D01*
X92978191Y-70033609D01*
X92928799Y-70020375D01*
X92850892Y-69999500D01*
X92719108Y-69999500D01*
X92641200Y-70020375D01*
X92591809Y-70033609D01*
X92477690Y-70099496D01*
X92384496Y-70192690D01*
X92318609Y-70306809D01*
X92318608Y-70306814D01*
X92284500Y-70434108D01*
X55200500Y-70434108D01*
X55200500Y-69100823D01*
X106373642Y-69100823D01*
X106373642Y-69232607D01*
X106403721Y-69344866D01*
X106407751Y-69359905D01*
X106473638Y-69474024D01*
X106473640Y-69474026D01*
X106473642Y-69474029D01*
X106566828Y-69567215D01*
X106566830Y-69567216D01*
X106566832Y-69567218D01*
X106680952Y-69633105D01*
X106680950Y-69633105D01*
X106680954Y-69633106D01*
X106680956Y-69633107D01*
X106808250Y-69667215D01*
X106808252Y-69667215D01*
X106940032Y-69667215D01*
X106940034Y-69667215D01*
X107067328Y-69633107D01*
X107067330Y-69633105D01*
X107067332Y-69633105D01*
X107181451Y-69567218D01*
X107181451Y-69567217D01*
X107181456Y-69567215D01*
X107274642Y-69474029D01*
X107340534Y-69359901D01*
X107374642Y-69232607D01*
X107374642Y-69100823D01*
X107340534Y-68973529D01*
X107340532Y-68973526D01*
X107340532Y-68973524D01*
X107274645Y-68859405D01*
X107274643Y-68859403D01*
X107274642Y-68859401D01*
X107181456Y-68766215D01*
X107181453Y-68766213D01*
X107181451Y-68766211D01*
X107067331Y-68700324D01*
X107067333Y-68700324D01*
X107017941Y-68687090D01*
X106940034Y-68666215D01*
X106808250Y-68666215D01*
X106730342Y-68687090D01*
X106680951Y-68700324D01*
X106566832Y-68766211D01*
X106473638Y-68859405D01*
X106407751Y-68973524D01*
X106407750Y-68973529D01*
X106373642Y-69100823D01*
X55200500Y-69100823D01*
X55200500Y-63905515D01*
X124799500Y-63905515D01*
X124799500Y-64094484D01*
X124829058Y-64281113D01*
X124829060Y-64281118D01*
X124887453Y-64460832D01*
X124973240Y-64629199D01*
X125084310Y-64782073D01*
X125217927Y-64915690D01*
X125370801Y-65026760D01*
X125539168Y-65112547D01*
X125718882Y-65170940D01*
X125718883Y-65170940D01*
X125718886Y-65170941D01*
X125905516Y-65200500D01*
X125905519Y-65200500D01*
X126094484Y-65200500D01*
X126281113Y-65170941D01*
X126281114Y-65170940D01*
X126281118Y-65170940D01*
X126460832Y-65112547D01*
X126629199Y-65026760D01*
X126782073Y-64915690D01*
X126915690Y-64782073D01*
X127026760Y-64629199D01*
X127112547Y-64460832D01*
X127170940Y-64281118D01*
X127200500Y-64094481D01*
X127200500Y-63905519D01*
X127200500Y-63905515D01*
X127170941Y-63718886D01*
X127170940Y-63718882D01*
X127112547Y-63539168D01*
X127026760Y-63370801D01*
X126915690Y-63217927D01*
X126782073Y-63084310D01*
X126782069Y-63084307D01*
X126782067Y-63084305D01*
X126742395Y-63055481D01*
X126742393Y-63055481D01*
X126676097Y-63007314D01*
X126638851Y-62980253D01*
X134799500Y-62980253D01*
X134799500Y-65019746D01*
X134799501Y-65019758D01*
X134811132Y-65078227D01*
X134811134Y-65078233D01*
X134855445Y-65144548D01*
X134855448Y-65144552D01*
X134921769Y-65188867D01*
X134966231Y-65197711D01*
X134980241Y-65200498D01*
X134980246Y-65200498D01*
X134980252Y-65200500D01*
X134980253Y-65200500D01*
X137019747Y-65200500D01*
X137019748Y-65200500D01*
X137078231Y-65188867D01*
X137144552Y-65144552D01*
X137188867Y-65078231D01*
X137200500Y-65019748D01*
X137200500Y-62980252D01*
X137188867Y-62921769D01*
X137144552Y-62855448D01*
X137144548Y-62855445D01*
X137078233Y-62811134D01*
X137078231Y-62811133D01*
X137078228Y-62811132D01*
X137078227Y-62811132D01*
X137019758Y-62799501D01*
X137019748Y-62799500D01*
X134980252Y-62799500D01*
X134980251Y-62799500D01*
X134980241Y-62799501D01*
X134921772Y-62811132D01*
X134921766Y-62811134D01*
X134855451Y-62855445D01*
X134855445Y-62855451D01*
X134811134Y-62921766D01*
X134811132Y-62921772D01*
X134799501Y-62980241D01*
X134799500Y-62980253D01*
X126638851Y-62980253D01*
X126629199Y-62973240D01*
X126629198Y-62973239D01*
X126629196Y-62973238D01*
X126460832Y-62887453D01*
X126281113Y-62829058D01*
X126094484Y-62799500D01*
X126094481Y-62799500D01*
X125905519Y-62799500D01*
X125905516Y-62799500D01*
X125718886Y-62829058D01*
X125539167Y-62887453D01*
X125370803Y-62973238D01*
X125217928Y-63084309D01*
X125084309Y-63217928D01*
X124973238Y-63370803D01*
X124887453Y-63539167D01*
X124829058Y-63718886D01*
X124799500Y-63905515D01*
X55200500Y-63905515D01*
X55200500Y-62539108D01*
X90324500Y-62539108D01*
X90324500Y-62670892D01*
X90345783Y-62750322D01*
X90358609Y-62798190D01*
X90424496Y-62912309D01*
X90424498Y-62912311D01*
X90424500Y-62912314D01*
X90517686Y-63005500D01*
X90517688Y-63005501D01*
X90517690Y-63005503D01*
X90631810Y-63071390D01*
X90631808Y-63071390D01*
X90631812Y-63071391D01*
X90631814Y-63071392D01*
X90759108Y-63105500D01*
X90759110Y-63105500D01*
X90890890Y-63105500D01*
X90890892Y-63105500D01*
X91018186Y-63071392D01*
X91018188Y-63071390D01*
X91018190Y-63071390D01*
X91132309Y-63005503D01*
X91132309Y-63005502D01*
X91132314Y-63005500D01*
X91225500Y-62912314D01*
X91258332Y-62855448D01*
X91291390Y-62798190D01*
X91291390Y-62798188D01*
X91291392Y-62798186D01*
X91325500Y-62670892D01*
X91325500Y-62539108D01*
X91291392Y-62411814D01*
X91239717Y-62322311D01*
X99815244Y-62322311D01*
X99815244Y-62454095D01*
X99818405Y-62465892D01*
X99849353Y-62581393D01*
X99915240Y-62695512D01*
X99915242Y-62695514D01*
X99915244Y-62695517D01*
X100008430Y-62788703D01*
X100008432Y-62788704D01*
X100008434Y-62788706D01*
X100122554Y-62854593D01*
X100122552Y-62854593D01*
X100122556Y-62854594D01*
X100122558Y-62854595D01*
X100249852Y-62888703D01*
X100249854Y-62888703D01*
X100381634Y-62888703D01*
X100381636Y-62888703D01*
X100508930Y-62854595D01*
X100508932Y-62854593D01*
X100508934Y-62854593D01*
X100582818Y-62811936D01*
X100642666Y-62799214D01*
X100698562Y-62824100D01*
X100727943Y-62872047D01*
X100729821Y-62879052D01*
X100733609Y-62893190D01*
X100799496Y-63007309D01*
X100799498Y-63007311D01*
X100799500Y-63007314D01*
X100892686Y-63100500D01*
X100892688Y-63100501D01*
X100892690Y-63100503D01*
X101006810Y-63166390D01*
X101006808Y-63166390D01*
X101006812Y-63166391D01*
X101006814Y-63166392D01*
X101134108Y-63200500D01*
X101134110Y-63200500D01*
X101265890Y-63200500D01*
X101265892Y-63200500D01*
X101393186Y-63166392D01*
X101393188Y-63166390D01*
X101393190Y-63166390D01*
X101507309Y-63100503D01*
X101507309Y-63100502D01*
X101507314Y-63100500D01*
X101600500Y-63007314D01*
X101647222Y-62926388D01*
X101692690Y-62885448D01*
X101753541Y-62879052D01*
X101758552Y-62880255D01*
X101834108Y-62900500D01*
X101834110Y-62900500D01*
X101965890Y-62900500D01*
X101965892Y-62900500D01*
X102093186Y-62866392D01*
X102093188Y-62866390D01*
X102093190Y-62866390D01*
X102207309Y-62800503D01*
X102207309Y-62800502D01*
X102207314Y-62800500D01*
X102257493Y-62750320D01*
X102312007Y-62722544D01*
X102372439Y-62732115D01*
X102415704Y-62775379D01*
X102425276Y-62835811D01*
X102423122Y-62845947D01*
X102414252Y-62879052D01*
X102399500Y-62934108D01*
X102399500Y-63065892D01*
X102422171Y-63150503D01*
X102433609Y-63193190D01*
X102499496Y-63307309D01*
X102499498Y-63307311D01*
X102499500Y-63307314D01*
X102592686Y-63400500D01*
X102592688Y-63400501D01*
X102592690Y-63400503D01*
X102706810Y-63466390D01*
X102706808Y-63466390D01*
X102706812Y-63466391D01*
X102706814Y-63466392D01*
X102834108Y-63500500D01*
X102834110Y-63500500D01*
X102965890Y-63500500D01*
X102965892Y-63500500D01*
X103093186Y-63466392D01*
X103093188Y-63466390D01*
X103093190Y-63466390D01*
X103207309Y-63400503D01*
X103207309Y-63400502D01*
X103207314Y-63400500D01*
X103300500Y-63307314D01*
X103352995Y-63216390D01*
X103366390Y-63193190D01*
X103366390Y-63193188D01*
X103366392Y-63193186D01*
X103400500Y-63065892D01*
X103400500Y-62934108D01*
X103366392Y-62806814D01*
X103300500Y-62692686D01*
X103291922Y-62684108D01*
X106999500Y-62684108D01*
X106999500Y-62815892D01*
X107025335Y-62912309D01*
X107033609Y-62943190D01*
X107099496Y-63057309D01*
X107099498Y-63057311D01*
X107099500Y-63057314D01*
X107192686Y-63150500D01*
X107192688Y-63150501D01*
X107192690Y-63150503D01*
X107306810Y-63216390D01*
X107306808Y-63216390D01*
X107306812Y-63216391D01*
X107306814Y-63216392D01*
X107434108Y-63250500D01*
X107434110Y-63250500D01*
X107565890Y-63250500D01*
X107565892Y-63250500D01*
X107693186Y-63216392D01*
X107693188Y-63216390D01*
X107693190Y-63216390D01*
X107807309Y-63150503D01*
X107807309Y-63150502D01*
X107807314Y-63150500D01*
X107900500Y-63057314D01*
X107929368Y-63007314D01*
X107966390Y-62943190D01*
X107966390Y-62943188D01*
X107966392Y-62943186D01*
X108000500Y-62815892D01*
X108000500Y-62684108D01*
X107966392Y-62556814D01*
X107966390Y-62556811D01*
X107966390Y-62556809D01*
X107900503Y-62442690D01*
X107900501Y-62442688D01*
X107900500Y-62442686D01*
X107807314Y-62349500D01*
X107807311Y-62349498D01*
X107807309Y-62349496D01*
X107693189Y-62283609D01*
X107693191Y-62283609D01*
X107620384Y-62264101D01*
X107565892Y-62249500D01*
X107434108Y-62249500D01*
X107379616Y-62264101D01*
X107306809Y-62283609D01*
X107192690Y-62349496D01*
X107099496Y-62442690D01*
X107033609Y-62556809D01*
X107022170Y-62599500D01*
X106999500Y-62684108D01*
X103291922Y-62684108D01*
X103207314Y-62599500D01*
X103207311Y-62599498D01*
X103207309Y-62599496D01*
X103093189Y-62533609D01*
X103093191Y-62533609D01*
X103043799Y-62520375D01*
X102965892Y-62499500D01*
X102834108Y-62499500D01*
X102756200Y-62520375D01*
X102706809Y-62533609D01*
X102592690Y-62599496D01*
X102592684Y-62599500D01*
X102542507Y-62649678D01*
X102487990Y-62677455D01*
X102427558Y-62667883D01*
X102384294Y-62624618D01*
X102374723Y-62564186D01*
X102376872Y-62554070D01*
X102400500Y-62465892D01*
X102400500Y-62334108D01*
X102366392Y-62206814D01*
X102366390Y-62206811D01*
X102366390Y-62206809D01*
X102300503Y-62092690D01*
X102300501Y-62092688D01*
X102300500Y-62092686D01*
X102207314Y-61999500D01*
X102207311Y-61999498D01*
X102207309Y-61999496D01*
X102093189Y-61933609D01*
X102093191Y-61933609D01*
X102043799Y-61920375D01*
X101965892Y-61899500D01*
X101834108Y-61899500D01*
X101756200Y-61920375D01*
X101706809Y-61933609D01*
X101592690Y-61999496D01*
X101499498Y-62092688D01*
X101452777Y-62173611D01*
X101407307Y-62214551D01*
X101346457Y-62220946D01*
X101341419Y-62219737D01*
X101293188Y-62206814D01*
X101265892Y-62199500D01*
X101134108Y-62199500D01*
X101058582Y-62219737D01*
X101006810Y-62233609D01*
X100932924Y-62276267D01*
X100873076Y-62288988D01*
X100817180Y-62264101D01*
X100787798Y-62216151D01*
X100782136Y-62195017D01*
X100782133Y-62195012D01*
X100716247Y-62080893D01*
X100716245Y-62080891D01*
X100716244Y-62080889D01*
X100623058Y-61987703D01*
X100623055Y-61987701D01*
X100623053Y-61987699D01*
X100508933Y-61921812D01*
X100508935Y-61921812D01*
X100425663Y-61899500D01*
X100381636Y-61887703D01*
X100249852Y-61887703D01*
X100205825Y-61899500D01*
X100122553Y-61921812D01*
X100008434Y-61987699D01*
X99915240Y-62080893D01*
X99849353Y-62195012D01*
X99846812Y-62204496D01*
X99815244Y-62322311D01*
X91239717Y-62322311D01*
X91225500Y-62297686D01*
X91132314Y-62204500D01*
X91132311Y-62204498D01*
X91132309Y-62204496D01*
X91018189Y-62138609D01*
X91018191Y-62138609D01*
X90968799Y-62125375D01*
X90890892Y-62104500D01*
X90759108Y-62104500D01*
X90681200Y-62125375D01*
X90631809Y-62138609D01*
X90517690Y-62204496D01*
X90424496Y-62297690D01*
X90358609Y-62411809D01*
X90344118Y-62465892D01*
X90324500Y-62539108D01*
X55200500Y-62539108D01*
X55200500Y-61184108D01*
X109499500Y-61184108D01*
X109499500Y-61315892D01*
X109529579Y-61428151D01*
X109533609Y-61443190D01*
X109599496Y-61557309D01*
X109599498Y-61557311D01*
X109599500Y-61557314D01*
X109692686Y-61650500D01*
X109692688Y-61650501D01*
X109692690Y-61650503D01*
X109806810Y-61716390D01*
X109806808Y-61716390D01*
X109806812Y-61716391D01*
X109806814Y-61716392D01*
X109934108Y-61750500D01*
X109934110Y-61750500D01*
X110065890Y-61750500D01*
X110065892Y-61750500D01*
X110193186Y-61716392D01*
X110193188Y-61716390D01*
X110193190Y-61716390D01*
X110307309Y-61650503D01*
X110307309Y-61650502D01*
X110307314Y-61650500D01*
X110400500Y-61557314D01*
X110466392Y-61443186D01*
X110500500Y-61315892D01*
X110500500Y-61184108D01*
X110466392Y-61056814D01*
X110466390Y-61056811D01*
X110466390Y-61056809D01*
X110400503Y-60942690D01*
X110400501Y-60942688D01*
X110400500Y-60942686D01*
X110307314Y-60849500D01*
X110307311Y-60849498D01*
X110307309Y-60849496D01*
X110193189Y-60783609D01*
X110193191Y-60783609D01*
X110128927Y-60766390D01*
X110065892Y-60749500D01*
X109934108Y-60749500D01*
X109871073Y-60766390D01*
X109806809Y-60783609D01*
X109692690Y-60849496D01*
X109599496Y-60942690D01*
X109533609Y-61056809D01*
X109533608Y-61056814D01*
X109499500Y-61184108D01*
X55200500Y-61184108D01*
X55200500Y-60234108D01*
X93099500Y-60234108D01*
X93099500Y-60365892D01*
X93129579Y-60478151D01*
X93133609Y-60493190D01*
X93199496Y-60607309D01*
X93199498Y-60607311D01*
X93199500Y-60607314D01*
X93292686Y-60700500D01*
X93292688Y-60700501D01*
X93292690Y-60700503D01*
X93406810Y-60766390D01*
X93406808Y-60766390D01*
X93406812Y-60766391D01*
X93406814Y-60766392D01*
X93534108Y-60800500D01*
X93534110Y-60800500D01*
X93665890Y-60800500D01*
X93665892Y-60800500D01*
X93793186Y-60766392D01*
X93793188Y-60766390D01*
X93793190Y-60766390D01*
X93907309Y-60700503D01*
X93907309Y-60700502D01*
X93907314Y-60700500D01*
X94000500Y-60607314D01*
X94066392Y-60493186D01*
X94100500Y-60365892D01*
X94100500Y-60234108D01*
X94066392Y-60106814D01*
X94066390Y-60106811D01*
X94066390Y-60106809D01*
X94000503Y-59992690D01*
X94000501Y-59992688D01*
X94000500Y-59992686D01*
X93907314Y-59899500D01*
X93907311Y-59899498D01*
X93907309Y-59899496D01*
X93793189Y-59833609D01*
X93793191Y-59833609D01*
X93743799Y-59820375D01*
X93665892Y-59799500D01*
X93534108Y-59799500D01*
X93456200Y-59820375D01*
X93406809Y-59833609D01*
X93292690Y-59899496D01*
X93199496Y-59992690D01*
X93133609Y-60106809D01*
X93124210Y-60141887D01*
X93099500Y-60234108D01*
X55200500Y-60234108D01*
X55200500Y-59184108D01*
X67749500Y-59184108D01*
X67749500Y-59315892D01*
X67772961Y-59403451D01*
X67783609Y-59443190D01*
X67849496Y-59557309D01*
X67849498Y-59557311D01*
X67849500Y-59557314D01*
X67942686Y-59650500D01*
X67942688Y-59650501D01*
X67942690Y-59650503D01*
X68056810Y-59716390D01*
X68056808Y-59716390D01*
X68056812Y-59716391D01*
X68056814Y-59716392D01*
X68184108Y-59750500D01*
X68184110Y-59750500D01*
X68315890Y-59750500D01*
X68315892Y-59750500D01*
X68443186Y-59716392D01*
X68443188Y-59716390D01*
X68443190Y-59716390D01*
X68557309Y-59650503D01*
X68557309Y-59650502D01*
X68557314Y-59650500D01*
X68650500Y-59557314D01*
X68654515Y-59550360D01*
X68671499Y-59520943D01*
X86699500Y-59520943D01*
X86699500Y-59679057D01*
X86740423Y-59831784D01*
X86819480Y-59968716D01*
X86931284Y-60080520D01*
X87068216Y-60159577D01*
X87220943Y-60200500D01*
X87220945Y-60200500D01*
X87379055Y-60200500D01*
X87379057Y-60200500D01*
X87531784Y-60159577D01*
X87668716Y-60080520D01*
X87780520Y-59968716D01*
X87859577Y-59831784D01*
X87900500Y-59679057D01*
X87900500Y-59520943D01*
X87877233Y-59434108D01*
X95099500Y-59434108D01*
X95099500Y-59565892D01*
X95122171Y-59650503D01*
X95133609Y-59693190D01*
X95199496Y-59807309D01*
X95199498Y-59807311D01*
X95199500Y-59807314D01*
X95292686Y-59900500D01*
X95292688Y-59900501D01*
X95292690Y-59900503D01*
X95406810Y-59966390D01*
X95406808Y-59966390D01*
X95406812Y-59966391D01*
X95406814Y-59966392D01*
X95534108Y-60000500D01*
X95534110Y-60000500D01*
X95665890Y-60000500D01*
X95665892Y-60000500D01*
X95793186Y-59966392D01*
X95793188Y-59966390D01*
X95793190Y-59966390D01*
X95907309Y-59900503D01*
X95907309Y-59900502D01*
X95907314Y-59900500D01*
X96000500Y-59807314D01*
X96000503Y-59807309D01*
X96066390Y-59693190D01*
X96066390Y-59693188D01*
X96066392Y-59693186D01*
X96070552Y-59677659D01*
X102991637Y-59677659D01*
X102991637Y-59809443D01*
X103016036Y-59900503D01*
X103025746Y-59936741D01*
X103091633Y-60050860D01*
X103091635Y-60050862D01*
X103091637Y-60050865D01*
X103184823Y-60144051D01*
X103184825Y-60144052D01*
X103184827Y-60144054D01*
X103298947Y-60209941D01*
X103298945Y-60209941D01*
X103298949Y-60209942D01*
X103298951Y-60209943D01*
X103426245Y-60244051D01*
X103426247Y-60244051D01*
X103558027Y-60244051D01*
X103558029Y-60244051D01*
X103685323Y-60209943D01*
X103685325Y-60209941D01*
X103685327Y-60209941D01*
X103796662Y-60145661D01*
X103799451Y-60144051D01*
X103799451Y-60144050D01*
X103799454Y-60144049D01*
X103804602Y-60140100D01*
X103805771Y-60141624D01*
X103852341Y-60117886D01*
X103912774Y-60127448D01*
X103937844Y-60145658D01*
X103992686Y-60200500D01*
X103992688Y-60200501D01*
X103992690Y-60200503D01*
X104106810Y-60266390D01*
X104106808Y-60266390D01*
X104106812Y-60266391D01*
X104106814Y-60266392D01*
X104234108Y-60300500D01*
X104234110Y-60300500D01*
X104365890Y-60300500D01*
X104365892Y-60300500D01*
X104493186Y-60266392D01*
X104493188Y-60266390D01*
X104493190Y-60266390D01*
X104607309Y-60200503D01*
X104607309Y-60200502D01*
X104607314Y-60200500D01*
X104700500Y-60107314D01*
X104715970Y-60080519D01*
X104766390Y-59993190D01*
X104766390Y-59993188D01*
X104766392Y-59993186D01*
X104800500Y-59865892D01*
X104800500Y-59734108D01*
X104766392Y-59606814D01*
X104766390Y-59606811D01*
X104766390Y-59606809D01*
X104700503Y-59492690D01*
X104700501Y-59492688D01*
X104700500Y-59492686D01*
X104607314Y-59399500D01*
X104607311Y-59399498D01*
X104607309Y-59399496D01*
X104493189Y-59333609D01*
X104493191Y-59333609D01*
X104427068Y-59315892D01*
X104365892Y-59299500D01*
X104234108Y-59299500D01*
X104172932Y-59315892D01*
X104106809Y-59333609D01*
X103992684Y-59399500D01*
X103987536Y-59403451D01*
X103986371Y-59401933D01*
X103939746Y-59425671D01*
X103879317Y-59416080D01*
X103854291Y-59397891D01*
X103799451Y-59343051D01*
X103799448Y-59343049D01*
X103799446Y-59343047D01*
X103685326Y-59277160D01*
X103685328Y-59277160D01*
X103635936Y-59263926D01*
X103558029Y-59243051D01*
X103426245Y-59243051D01*
X103348337Y-59263926D01*
X103298946Y-59277160D01*
X103184827Y-59343047D01*
X103091633Y-59436241D01*
X103025746Y-59550360D01*
X103010621Y-59606809D01*
X102991637Y-59677659D01*
X96070552Y-59677659D01*
X96100500Y-59565892D01*
X96100500Y-59434108D01*
X96066392Y-59306814D01*
X96066390Y-59306811D01*
X96066390Y-59306809D01*
X96000503Y-59192690D01*
X96000501Y-59192688D01*
X96000500Y-59192686D01*
X95907314Y-59099500D01*
X95907311Y-59099498D01*
X95907309Y-59099496D01*
X95793189Y-59033609D01*
X95793191Y-59033609D01*
X95743799Y-59020375D01*
X95665892Y-58999500D01*
X95534108Y-58999500D01*
X95456200Y-59020375D01*
X95406809Y-59033609D01*
X95292690Y-59099496D01*
X95199496Y-59192690D01*
X95133609Y-59306809D01*
X95114539Y-59377978D01*
X95099500Y-59434108D01*
X87877233Y-59434108D01*
X87859577Y-59368216D01*
X87780520Y-59231284D01*
X87668716Y-59119480D01*
X87531784Y-59040423D01*
X87379057Y-58999500D01*
X87220943Y-58999500D01*
X87068216Y-59040423D01*
X86931284Y-59119480D01*
X86819480Y-59231284D01*
X86740423Y-59368216D01*
X86699500Y-59520943D01*
X68671499Y-59520943D01*
X68703825Y-59464954D01*
X68716390Y-59443190D01*
X68716390Y-59443188D01*
X68716392Y-59443186D01*
X68750500Y-59315892D01*
X68750500Y-59184108D01*
X68716392Y-59056814D01*
X68716390Y-59056811D01*
X68716390Y-59056809D01*
X68650503Y-58942690D01*
X68650501Y-58942688D01*
X68650500Y-58942686D01*
X68557314Y-58849500D01*
X68557311Y-58849498D01*
X68557309Y-58849496D01*
X68443189Y-58783609D01*
X68443191Y-58783609D01*
X68393799Y-58770375D01*
X68315892Y-58749500D01*
X68184108Y-58749500D01*
X68106200Y-58770375D01*
X68056809Y-58783609D01*
X67942690Y-58849496D01*
X67849496Y-58942690D01*
X67783609Y-59056809D01*
X67772170Y-59099500D01*
X67749500Y-59184108D01*
X55200500Y-59184108D01*
X55200500Y-58020943D01*
X90174500Y-58020943D01*
X90174500Y-58179057D01*
X90215423Y-58331784D01*
X90294480Y-58468716D01*
X90406284Y-58580520D01*
X90543216Y-58659577D01*
X90695943Y-58700500D01*
X90695945Y-58700500D01*
X90854055Y-58700500D01*
X90854057Y-58700500D01*
X91006784Y-58659577D01*
X91143716Y-58580520D01*
X91255520Y-58468716D01*
X91334577Y-58331784D01*
X91375500Y-58179057D01*
X91375500Y-58059108D01*
X92649500Y-58059108D01*
X92649500Y-58190892D01*
X92679579Y-58303151D01*
X92683609Y-58318190D01*
X92749496Y-58432309D01*
X92749498Y-58432311D01*
X92749500Y-58432314D01*
X92842686Y-58525500D01*
X92842688Y-58525501D01*
X92842690Y-58525503D01*
X92956810Y-58591390D01*
X92956808Y-58591390D01*
X92956812Y-58591391D01*
X92956814Y-58591392D01*
X93084108Y-58625500D01*
X93084110Y-58625500D01*
X93215890Y-58625500D01*
X93215892Y-58625500D01*
X93343186Y-58591392D01*
X93343188Y-58591390D01*
X93343190Y-58591390D01*
X93457309Y-58525503D01*
X93457309Y-58525502D01*
X93457314Y-58525500D01*
X93550500Y-58432314D01*
X93616392Y-58318186D01*
X93650500Y-58190892D01*
X93650500Y-58059108D01*
X93616392Y-57931814D01*
X93616390Y-57931811D01*
X93616390Y-57931809D01*
X93550503Y-57817690D01*
X93550501Y-57817688D01*
X93550500Y-57817686D01*
X93457314Y-57724500D01*
X93457311Y-57724498D01*
X93457309Y-57724496D01*
X93343189Y-57658609D01*
X93343191Y-57658609D01*
X93293799Y-57645375D01*
X93215892Y-57624500D01*
X93084108Y-57624500D01*
X93006200Y-57645375D01*
X92956809Y-57658609D01*
X92842690Y-57724496D01*
X92749496Y-57817690D01*
X92683609Y-57931809D01*
X92683608Y-57931814D01*
X92649500Y-58059108D01*
X91375500Y-58059108D01*
X91375500Y-58020943D01*
X91334577Y-57868216D01*
X91255520Y-57731284D01*
X91143716Y-57619480D01*
X91006784Y-57540423D01*
X90854057Y-57499500D01*
X90695943Y-57499500D01*
X90543216Y-57540423D01*
X90406284Y-57619480D01*
X90294480Y-57731284D01*
X90215423Y-57868216D01*
X90174500Y-58020943D01*
X55200500Y-58020943D01*
X55200500Y-57184108D01*
X77749500Y-57184108D01*
X77749500Y-57315892D01*
X77779579Y-57428151D01*
X77783609Y-57443190D01*
X77849496Y-57557309D01*
X77849498Y-57557311D01*
X77849500Y-57557314D01*
X77942686Y-57650500D01*
X77942688Y-57650501D01*
X77942690Y-57650503D01*
X78056810Y-57716390D01*
X78056808Y-57716390D01*
X78056812Y-57716391D01*
X78056814Y-57716392D01*
X78184108Y-57750500D01*
X78184110Y-57750500D01*
X78315890Y-57750500D01*
X78315892Y-57750500D01*
X78443186Y-57716392D01*
X78443188Y-57716390D01*
X78443190Y-57716390D01*
X78557309Y-57650503D01*
X78557309Y-57650502D01*
X78557314Y-57650500D01*
X78650500Y-57557314D01*
X78716392Y-57443186D01*
X78750500Y-57315892D01*
X78750500Y-57184108D01*
X78716392Y-57056814D01*
X78716390Y-57056811D01*
X78716390Y-57056809D01*
X78650503Y-56942690D01*
X78650501Y-56942688D01*
X78650500Y-56942686D01*
X78557314Y-56849500D01*
X78557311Y-56849498D01*
X78557309Y-56849496D01*
X78443189Y-56783609D01*
X78443191Y-56783609D01*
X78393799Y-56770375D01*
X78315892Y-56749500D01*
X78184108Y-56749500D01*
X78106200Y-56770375D01*
X78056809Y-56783609D01*
X77942690Y-56849496D01*
X77849496Y-56942690D01*
X77783609Y-57056809D01*
X77783608Y-57056814D01*
X77749500Y-57184108D01*
X55200500Y-57184108D01*
X55200500Y-56376682D01*
X99242201Y-56376682D01*
X99242201Y-56508466D01*
X99272280Y-56620725D01*
X99276310Y-56635764D01*
X99342197Y-56749883D01*
X99342199Y-56749885D01*
X99342201Y-56749888D01*
X99435387Y-56843074D01*
X99435389Y-56843075D01*
X99435391Y-56843077D01*
X99549511Y-56908964D01*
X99549509Y-56908964D01*
X99549513Y-56908965D01*
X99549515Y-56908966D01*
X99676809Y-56943074D01*
X99676811Y-56943074D01*
X99808591Y-56943074D01*
X99808593Y-56943074D01*
X99935887Y-56908966D01*
X99935889Y-56908964D01*
X99935891Y-56908964D01*
X100050010Y-56843077D01*
X100050010Y-56843076D01*
X100050015Y-56843074D01*
X100143201Y-56749888D01*
X100209093Y-56635760D01*
X100243201Y-56508466D01*
X100243201Y-56376682D01*
X100209093Y-56249388D01*
X100209091Y-56249385D01*
X100209091Y-56249383D01*
X100143204Y-56135264D01*
X100143202Y-56135262D01*
X100143201Y-56135260D01*
X100050015Y-56042074D01*
X100050012Y-56042072D01*
X100050010Y-56042070D01*
X99935890Y-55976183D01*
X99935892Y-55976183D01*
X99886500Y-55962949D01*
X99808593Y-55942074D01*
X99676809Y-55942074D01*
X99598901Y-55962949D01*
X99549510Y-55976183D01*
X99435391Y-56042070D01*
X99342197Y-56135264D01*
X99276310Y-56249383D01*
X99276309Y-56249388D01*
X99242201Y-56376682D01*
X55200500Y-56376682D01*
X55200500Y-53684108D01*
X93499500Y-53684108D01*
X93499500Y-53815892D01*
X93511080Y-53859108D01*
X93533609Y-53943190D01*
X93599496Y-54057309D01*
X93599498Y-54057311D01*
X93599500Y-54057314D01*
X93692686Y-54150500D01*
X93692688Y-54150501D01*
X93692690Y-54150503D01*
X93806810Y-54216390D01*
X93806808Y-54216390D01*
X93806812Y-54216391D01*
X93806814Y-54216392D01*
X93934108Y-54250500D01*
X93934110Y-54250500D01*
X94065890Y-54250500D01*
X94065892Y-54250500D01*
X94193186Y-54216392D01*
X94193188Y-54216390D01*
X94193190Y-54216390D01*
X94307309Y-54150503D01*
X94307309Y-54150502D01*
X94307314Y-54150500D01*
X94400500Y-54057314D01*
X94466392Y-53943186D01*
X94495619Y-53834108D01*
X97049500Y-53834108D01*
X97049500Y-53965892D01*
X97056199Y-53990892D01*
X97083609Y-54093190D01*
X97149496Y-54207309D01*
X97149498Y-54207311D01*
X97149500Y-54207314D01*
X97242686Y-54300500D01*
X97242688Y-54300501D01*
X97242690Y-54300503D01*
X97356810Y-54366390D01*
X97356808Y-54366390D01*
X97356812Y-54366391D01*
X97356814Y-54366392D01*
X97484108Y-54400500D01*
X97484110Y-54400500D01*
X97615890Y-54400500D01*
X97615892Y-54400500D01*
X97743186Y-54366392D01*
X97743188Y-54366390D01*
X97743190Y-54366390D01*
X97857309Y-54300503D01*
X97857309Y-54300502D01*
X97857314Y-54300500D01*
X97950500Y-54207314D01*
X98016392Y-54093186D01*
X98050500Y-53965892D01*
X98050500Y-53859108D01*
X101949500Y-53859108D01*
X101949500Y-53990892D01*
X101967296Y-54057309D01*
X101983609Y-54118190D01*
X102049496Y-54232309D01*
X102049498Y-54232311D01*
X102049500Y-54232314D01*
X102142686Y-54325500D01*
X102142688Y-54325501D01*
X102142690Y-54325503D01*
X102256810Y-54391390D01*
X102256808Y-54391390D01*
X102256812Y-54391391D01*
X102256814Y-54391392D01*
X102384108Y-54425500D01*
X102384110Y-54425500D01*
X102515890Y-54425500D01*
X102515892Y-54425500D01*
X102643186Y-54391392D01*
X102643188Y-54391390D01*
X102643190Y-54391390D01*
X102757309Y-54325503D01*
X102757309Y-54325502D01*
X102757314Y-54325500D01*
X102850500Y-54232314D01*
X102897734Y-54150503D01*
X102916390Y-54118190D01*
X102916390Y-54118188D01*
X102916392Y-54118186D01*
X102950500Y-53990892D01*
X102950500Y-53859108D01*
X102916392Y-53731814D01*
X102913681Y-53727118D01*
X102888849Y-53684108D01*
X108749500Y-53684108D01*
X108749500Y-53815892D01*
X108761080Y-53859108D01*
X108783609Y-53943190D01*
X108849496Y-54057309D01*
X108849498Y-54057311D01*
X108849500Y-54057314D01*
X108942686Y-54150500D01*
X108942688Y-54150501D01*
X108942690Y-54150503D01*
X109056810Y-54216390D01*
X109056808Y-54216390D01*
X109056812Y-54216391D01*
X109056814Y-54216392D01*
X109184108Y-54250500D01*
X109184110Y-54250500D01*
X109315890Y-54250500D01*
X109315892Y-54250500D01*
X109443186Y-54216392D01*
X109443188Y-54216390D01*
X109443190Y-54216390D01*
X109557309Y-54150503D01*
X109557309Y-54150502D01*
X109557314Y-54150500D01*
X109650500Y-54057314D01*
X109716392Y-53943186D01*
X109750500Y-53815892D01*
X109750500Y-53684108D01*
X109716392Y-53556814D01*
X109716390Y-53556811D01*
X109716390Y-53556809D01*
X109650503Y-53442690D01*
X109650501Y-53442688D01*
X109650500Y-53442686D01*
X109557314Y-53349500D01*
X109557311Y-53349498D01*
X109557309Y-53349496D01*
X109443189Y-53283609D01*
X109443191Y-53283609D01*
X109393799Y-53270375D01*
X109315892Y-53249500D01*
X109184108Y-53249500D01*
X109106200Y-53270375D01*
X109056809Y-53283609D01*
X108942690Y-53349496D01*
X108849496Y-53442690D01*
X108783609Y-53556809D01*
X108783608Y-53556814D01*
X108749500Y-53684108D01*
X102888849Y-53684108D01*
X102850503Y-53617690D01*
X102850501Y-53617688D01*
X102850500Y-53617686D01*
X102757314Y-53524500D01*
X102757311Y-53524498D01*
X102757309Y-53524496D01*
X102643189Y-53458609D01*
X102643191Y-53458609D01*
X102593799Y-53445375D01*
X102515892Y-53424500D01*
X102384108Y-53424500D01*
X102306200Y-53445375D01*
X102256809Y-53458609D01*
X102142690Y-53524496D01*
X102049496Y-53617690D01*
X101983609Y-53731809D01*
X101983608Y-53731814D01*
X101949500Y-53859108D01*
X98050500Y-53859108D01*
X98050500Y-53834108D01*
X98016392Y-53706814D01*
X98016390Y-53706811D01*
X98016390Y-53706809D01*
X97950503Y-53592690D01*
X97950501Y-53592688D01*
X97950500Y-53592686D01*
X97857314Y-53499500D01*
X97857311Y-53499498D01*
X97857309Y-53499496D01*
X97743189Y-53433609D01*
X97743191Y-53433609D01*
X97693799Y-53420375D01*
X97615892Y-53399500D01*
X97484108Y-53399500D01*
X97406200Y-53420375D01*
X97356809Y-53433609D01*
X97242690Y-53499496D01*
X97149496Y-53592690D01*
X97083609Y-53706809D01*
X97076910Y-53731811D01*
X97049500Y-53834108D01*
X94495619Y-53834108D01*
X94500500Y-53815892D01*
X94500500Y-53684108D01*
X94466392Y-53556814D01*
X94466390Y-53556811D01*
X94466390Y-53556809D01*
X94400503Y-53442690D01*
X94400501Y-53442688D01*
X94400500Y-53442686D01*
X94307314Y-53349500D01*
X94307311Y-53349498D01*
X94307309Y-53349496D01*
X94193189Y-53283609D01*
X94193191Y-53283609D01*
X94143799Y-53270375D01*
X94065892Y-53249500D01*
X93934108Y-53249500D01*
X93856200Y-53270375D01*
X93806809Y-53283609D01*
X93692690Y-53349496D01*
X93599496Y-53442690D01*
X93533609Y-53556809D01*
X93533608Y-53556814D01*
X93499500Y-53684108D01*
X55200500Y-53684108D01*
X55200500Y-50584105D01*
X69199500Y-50584105D01*
X69199500Y-50715889D01*
X69223862Y-50806809D01*
X69233609Y-50843187D01*
X69299496Y-50957306D01*
X69303449Y-50962457D01*
X69301678Y-50963815D01*
X69324961Y-51009511D01*
X69315390Y-51069943D01*
X69302911Y-51087121D01*
X69303451Y-51087536D01*
X69299500Y-51092684D01*
X69233609Y-51206809D01*
X69233608Y-51206814D01*
X69199500Y-51334108D01*
X69199500Y-51465892D01*
X69208773Y-51500500D01*
X69233609Y-51593190D01*
X69299496Y-51707309D01*
X69299498Y-51707311D01*
X69299500Y-51707314D01*
X69392686Y-51800500D01*
X69392688Y-51800501D01*
X69392690Y-51800503D01*
X69506810Y-51866390D01*
X69506808Y-51866390D01*
X69506812Y-51866391D01*
X69506814Y-51866392D01*
X69634108Y-51900500D01*
X69634110Y-51900500D01*
X69765890Y-51900500D01*
X69765892Y-51900500D01*
X69893186Y-51866392D01*
X69893188Y-51866390D01*
X69893190Y-51866390D01*
X70007309Y-51800503D01*
X70007309Y-51800502D01*
X70007314Y-51800500D01*
X70100500Y-51707314D01*
X70118714Y-51675766D01*
X70166390Y-51593190D01*
X70166390Y-51593188D01*
X70166392Y-51593186D01*
X70184867Y-51524234D01*
X96534500Y-51524234D01*
X96534500Y-51675766D01*
X96567922Y-51800500D01*
X96573720Y-51822139D01*
X96649481Y-51953360D01*
X96649483Y-51953362D01*
X96649485Y-51953365D01*
X96756635Y-52060515D01*
X96756637Y-52060516D01*
X96756639Y-52060518D01*
X96887861Y-52136279D01*
X96887859Y-52136279D01*
X96887863Y-52136280D01*
X96887865Y-52136281D01*
X97034234Y-52175500D01*
X97034236Y-52175500D01*
X97185764Y-52175500D01*
X97185766Y-52175500D01*
X97332135Y-52136281D01*
X97332137Y-52136279D01*
X97332139Y-52136279D01*
X97463360Y-52060518D01*
X97463360Y-52060517D01*
X97463365Y-52060515D01*
X97570515Y-51953365D01*
X97646281Y-51822135D01*
X97685500Y-51675766D01*
X97685500Y-51524234D01*
X102314500Y-51524234D01*
X102314500Y-51675766D01*
X102347922Y-51800500D01*
X102353720Y-51822139D01*
X102429481Y-51953360D01*
X102429483Y-51953362D01*
X102429485Y-51953365D01*
X102536635Y-52060515D01*
X102536637Y-52060516D01*
X102536639Y-52060518D01*
X102667861Y-52136279D01*
X102667859Y-52136279D01*
X102667863Y-52136280D01*
X102667865Y-52136281D01*
X102814234Y-52175500D01*
X102814236Y-52175500D01*
X102965764Y-52175500D01*
X102965766Y-52175500D01*
X103112135Y-52136281D01*
X103112137Y-52136279D01*
X103112139Y-52136279D01*
X103243360Y-52060518D01*
X103243360Y-52060517D01*
X103243365Y-52060515D01*
X103350515Y-51953365D01*
X103426281Y-51822135D01*
X103465500Y-51675766D01*
X103465500Y-51524234D01*
X103426281Y-51377865D01*
X103426279Y-51377862D01*
X103426279Y-51377860D01*
X103350518Y-51246639D01*
X103350516Y-51246637D01*
X103350515Y-51246635D01*
X103243365Y-51139485D01*
X103243362Y-51139483D01*
X103243360Y-51139481D01*
X103112138Y-51063720D01*
X103112140Y-51063720D01*
X103055347Y-51048503D01*
X102965766Y-51024500D01*
X102814234Y-51024500D01*
X102724652Y-51048503D01*
X102667860Y-51063720D01*
X102536639Y-51139481D01*
X102429481Y-51246639D01*
X102353720Y-51377860D01*
X102339209Y-51432017D01*
X102314500Y-51524234D01*
X97685500Y-51524234D01*
X97646281Y-51377865D01*
X97646279Y-51377862D01*
X97646279Y-51377860D01*
X97570518Y-51246639D01*
X97570516Y-51246637D01*
X97570515Y-51246635D01*
X97463365Y-51139485D01*
X97463362Y-51139483D01*
X97463360Y-51139481D01*
X97332138Y-51063720D01*
X97332140Y-51063720D01*
X97275347Y-51048503D01*
X97185766Y-51024500D01*
X97034234Y-51024500D01*
X96944652Y-51048503D01*
X96887860Y-51063720D01*
X96756639Y-51139481D01*
X96649481Y-51246639D01*
X96573720Y-51377860D01*
X96559209Y-51432017D01*
X96534500Y-51524234D01*
X70184867Y-51524234D01*
X70200500Y-51465892D01*
X70200500Y-51334108D01*
X70166392Y-51206814D01*
X70166390Y-51206811D01*
X70166390Y-51206809D01*
X70100503Y-51092690D01*
X70096551Y-51087540D01*
X70098321Y-51086181D01*
X70075038Y-51040485D01*
X70084609Y-50980053D01*
X70088201Y-50973609D01*
X70094385Y-50963425D01*
X70100500Y-50957311D01*
X70113896Y-50934108D01*
X91474500Y-50934108D01*
X91474500Y-51065892D01*
X91494218Y-51139481D01*
X91508609Y-51193190D01*
X91574496Y-51307309D01*
X91574498Y-51307311D01*
X91574500Y-51307314D01*
X91667686Y-51400500D01*
X91667688Y-51400501D01*
X91667690Y-51400503D01*
X91781810Y-51466390D01*
X91781808Y-51466390D01*
X91781812Y-51466391D01*
X91781814Y-51466392D01*
X91909108Y-51500500D01*
X91909110Y-51500500D01*
X92040890Y-51500500D01*
X92040892Y-51500500D01*
X92168186Y-51466392D01*
X92168188Y-51466390D01*
X92168190Y-51466390D01*
X92227726Y-51432017D01*
X92227733Y-51432011D01*
X92282314Y-51400500D01*
X92375500Y-51307314D01*
X92441392Y-51193186D01*
X92475500Y-51065892D01*
X92475500Y-50934108D01*
X92441392Y-50806814D01*
X92441390Y-50806811D01*
X92441390Y-50806809D01*
X92375503Y-50692690D01*
X92375501Y-50692688D01*
X92375500Y-50692686D01*
X92282314Y-50599500D01*
X92282311Y-50599498D01*
X92282309Y-50599496D01*
X92168189Y-50533609D01*
X92168191Y-50533609D01*
X92118799Y-50520375D01*
X92040892Y-50499500D01*
X91909108Y-50499500D01*
X91831200Y-50520375D01*
X91781809Y-50533609D01*
X91667690Y-50599496D01*
X91574496Y-50692690D01*
X91508609Y-50806809D01*
X91498862Y-50843187D01*
X91474500Y-50934108D01*
X70113896Y-50934108D01*
X70166392Y-50843183D01*
X70200500Y-50715889D01*
X70200500Y-50584105D01*
X70166392Y-50456811D01*
X70166390Y-50456808D01*
X70166390Y-50456806D01*
X70100503Y-50342687D01*
X70100501Y-50342685D01*
X70100500Y-50342683D01*
X70007314Y-50249497D01*
X70007311Y-50249495D01*
X70007309Y-50249493D01*
X69893189Y-50183606D01*
X69893191Y-50183606D01*
X69843799Y-50170372D01*
X69765892Y-50149497D01*
X69634108Y-50149497D01*
X69556200Y-50170372D01*
X69506809Y-50183606D01*
X69392690Y-50249493D01*
X69299496Y-50342687D01*
X69233609Y-50456806D01*
X69214539Y-50527975D01*
X69199500Y-50584105D01*
X55200500Y-50584105D01*
X55200500Y-50002165D01*
X55200594Y-49997847D01*
X55209891Y-49784906D01*
X55218576Y-49585997D01*
X55219326Y-49577421D01*
X55272851Y-49170855D01*
X55274351Y-49162354D01*
X55325449Y-48931865D01*
X55363106Y-48762004D01*
X55365331Y-48753699D01*
X55488647Y-48362588D01*
X55491599Y-48354480D01*
X55648529Y-47975618D01*
X55652164Y-47967824D01*
X55793696Y-47695943D01*
X75399500Y-47695943D01*
X75399500Y-47854057D01*
X75440423Y-48006784D01*
X75519480Y-48143716D01*
X75631284Y-48255520D01*
X75768216Y-48334577D01*
X75920943Y-48375500D01*
X75920945Y-48375500D01*
X76079055Y-48375500D01*
X76079057Y-48375500D01*
X76231784Y-48334577D01*
X76368716Y-48255520D01*
X76480520Y-48143716D01*
X76559577Y-48006784D01*
X76600500Y-47854057D01*
X76600500Y-47695943D01*
X76559577Y-47543216D01*
X76480520Y-47406284D01*
X76368716Y-47294480D01*
X76231784Y-47215423D01*
X76079057Y-47174500D01*
X75920943Y-47174500D01*
X75768216Y-47215423D01*
X75631284Y-47294480D01*
X75519480Y-47406284D01*
X75440423Y-47543216D01*
X75399500Y-47695943D01*
X55793696Y-47695943D01*
X55841522Y-47604069D01*
X55845824Y-47596618D01*
X56066168Y-47250747D01*
X56071106Y-47243696D01*
X56270295Y-46984108D01*
X108899500Y-46984108D01*
X108899500Y-47115892D01*
X108915204Y-47174500D01*
X108933609Y-47243190D01*
X108999496Y-47357309D01*
X108999498Y-47357311D01*
X108999500Y-47357314D01*
X109092686Y-47450500D01*
X109092688Y-47450501D01*
X109092690Y-47450503D01*
X109206810Y-47516390D01*
X109206808Y-47516390D01*
X109206812Y-47516391D01*
X109206814Y-47516392D01*
X109334108Y-47550500D01*
X109334110Y-47550500D01*
X109465890Y-47550500D01*
X109465892Y-47550500D01*
X109593186Y-47516392D01*
X109593188Y-47516390D01*
X109593190Y-47516390D01*
X109707309Y-47450503D01*
X109707309Y-47450502D01*
X109707314Y-47450500D01*
X109800500Y-47357314D01*
X109829368Y-47307314D01*
X109866390Y-47243190D01*
X109866390Y-47243188D01*
X109866392Y-47243186D01*
X109900500Y-47115892D01*
X109900500Y-46984108D01*
X109887103Y-46934108D01*
X116899500Y-46934108D01*
X116899500Y-47065892D01*
X116928601Y-47174500D01*
X116933609Y-47193190D01*
X116999496Y-47307309D01*
X116999498Y-47307311D01*
X116999500Y-47307314D01*
X117092686Y-47400500D01*
X117092688Y-47400501D01*
X117092690Y-47400503D01*
X117206810Y-47466390D01*
X117206808Y-47466390D01*
X117206812Y-47466391D01*
X117206814Y-47466392D01*
X117334108Y-47500500D01*
X117334110Y-47500500D01*
X117465890Y-47500500D01*
X117465892Y-47500500D01*
X117593186Y-47466392D01*
X117593188Y-47466390D01*
X117593190Y-47466390D01*
X117707309Y-47400503D01*
X117707309Y-47400502D01*
X117707314Y-47400500D01*
X117800500Y-47307314D01*
X117835253Y-47247120D01*
X117866390Y-47193190D01*
X117866390Y-47193188D01*
X117866392Y-47193186D01*
X117900500Y-47065892D01*
X117900500Y-46934108D01*
X117866392Y-46806814D01*
X117866390Y-46806811D01*
X117866390Y-46806809D01*
X117800503Y-46692690D01*
X117800501Y-46692688D01*
X117800500Y-46692686D01*
X117707314Y-46599500D01*
X117707311Y-46599498D01*
X117707309Y-46599496D01*
X117593189Y-46533609D01*
X117593191Y-46533609D01*
X117543799Y-46520375D01*
X117465892Y-46499500D01*
X117334108Y-46499500D01*
X117256200Y-46520375D01*
X117206809Y-46533609D01*
X117092690Y-46599496D01*
X116999496Y-46692690D01*
X116933609Y-46806809D01*
X116933608Y-46806814D01*
X116899500Y-46934108D01*
X109887103Y-46934108D01*
X109866392Y-46856814D01*
X109866390Y-46856811D01*
X109866390Y-46856809D01*
X109800503Y-46742690D01*
X109800501Y-46742688D01*
X109800500Y-46742686D01*
X109707314Y-46649500D01*
X109707311Y-46649498D01*
X109707309Y-46649496D01*
X109593189Y-46583609D01*
X109593191Y-46583609D01*
X109543799Y-46570375D01*
X109465892Y-46549500D01*
X109334108Y-46549500D01*
X109256200Y-46570375D01*
X109206809Y-46583609D01*
X109092690Y-46649496D01*
X108999496Y-46742690D01*
X108933609Y-46856809D01*
X108933608Y-46856814D01*
X108899500Y-46984108D01*
X56270295Y-46984108D01*
X56320742Y-46918365D01*
X56326303Y-46911740D01*
X56327239Y-46910719D01*
X56422455Y-46806809D01*
X56603327Y-46609420D01*
X56609420Y-46603327D01*
X56911764Y-46326280D01*
X56918365Y-46320742D01*
X57243696Y-46071106D01*
X57250747Y-46066168D01*
X57596618Y-45845824D01*
X57604079Y-45841517D01*
X57967824Y-45652164D01*
X57975618Y-45648529D01*
X58354487Y-45491596D01*
X58362588Y-45488647D01*
X58753699Y-45365331D01*
X58762004Y-45363106D01*
X59162354Y-45274351D01*
X59170855Y-45272851D01*
X59577421Y-45219326D01*
X59585997Y-45218576D01*
X59997847Y-45200593D01*
X60002165Y-45200500D01*
X60039882Y-45200500D01*
X139960118Y-45200500D01*
X139997835Y-45200500D01*
X140002152Y-45200593D01*
G37*
%TD.AperFunction*%
%TD*%
M02*
